<?xml version="1.0" standalone="no"?>
<!DOCTYPE svg PUBLIC "-//W3C//DTD SVG 1.1//EN" "http://www.w3.org/Graphics/SVG/1.1/DTD/svg11.dtd" >
<svg xmlns="http://www.w3.org/2000/svg" xmlns:xlink="http://www.w3.org/1999/xlink" version="1.1">
<metadata>
Created by FontForge 20201107 at Wed Jan 24 09:36:21 2024
 By 
Copyright 2016 The Inter Project Authors
</metadata>
<defs>
<font id="V-Inter-Regular-375" horiz-adv-x="0" >
  <font-face 
    font-family="V-Inter"
    font-weight="375"
    font-stretch="normal"
    units-per-em="2048"
    panose-1="2 0 5 3 0 0 0 2 0 4"
    ascent="1638"
    descent="-410"
    x-height="1106"
    cap-height="1490"
    bbox="-1506.02 -654 5283 2262"
    underline-thickness="132"
    underline-position="-392"
    unicode-range="U+0020-1F852"
  />
<missing-glyph horiz-adv-x="1344" 
d="M1016 -416h-688v2272h688v-2272zM512 -192v-64h320v64h-215l215 127v65h-320v-64h216zM512 320v-256h320v256h-320zM768 128h-192v128h192v-128zM512 704v-256h320v256h-192v-128h64v64h64v-128h-192v192h-64zM512 832v-64h320v224h-64v-160h-256zM512 960v-64h192v160
h128v64h-320v-64h128v-96h-128zM640 1248h-64v96h64v-96zM512 1408v-224h320v64h-128v160h-192zM512 1536v-64h320v64h-144v96h144v64h-320v-64h112v-96h-112z" />
    <glyph glyph-name=".notdef" horiz-adv-x="1344" 
d="M1016 -416h-688v2272h688v-2272zM512 -192v-64h320v64h-215l215 127v65h-320v-64h216zM512 320v-256h320v256h-320zM768 128h-192v128h192v-128zM512 704v-256h320v256h-192v-128h64v64h64v-128h-192v192h-64zM512 832v-64h320v224h-64v-160h-256zM512 960v-64h192v160
h128v64h-320v-64h128v-96h-128zM640 1248h-64v96h64v-96zM512 1408v-224h320v64h-128v160h-192zM512 1536v-64h320v64h-144v96h144v64h-320v-64h112v-96h-112z" />
    <glyph glyph-name=".null" horiz-adv-x="984" 
 />
    <glyph glyph-name="nonmarkingreturn" horiz-adv-x="682" 
 />
    <glyph glyph-name="space" unicode=" " horiz-adv-x="562" 
 />
    <glyph glyph-name="exclam" unicode="!" horiz-adv-x="559" 
d="M196 460l-11 1030h188l-12 -1030h-165zM280 -13q-53 0 -90 37t-37 88q0 53 37 90t90 37q52 0 88.5 -37t36.5 -90q0 -51 -36.5 -88t-88.5 -37z" />
    <glyph glyph-name="quotedbl" unicode="&#x22;" horiz-adv-x="912" 
d="M225 944l-20 546h178l-21 -546h-137zM549 944l-20 546h178l-21 -546h-137z" />
    <glyph glyph-name="numbersign" unicode="#" horiz-adv-x="1283" 
d="M709 0l246 1490h141l-244 -1490h-143zM28 416l24 140h1115l-24 -140h-1115zM187 0l244 1490h141l-244 -1490h-141zM116 932l23 142h1113l-21 -142h-1115z" />
    <glyph glyph-name="dollar" unicode="$" horiz-adv-x="1297" 
d="M588 -216v1922h121v-1922h-121zM650 -25q-161 0 -279.5 53t-185 149.5t-73.5 225.5h180q7 -89 55.5 -149t127.5 -90.5t175 -30.5q105 0 186.5 34t129 95.5t47.5 142.5q0 71 -38 117.5t-105.5 78t-155.5 55.5l-177 49q-188 52 -287 146.5t-99 242.5q0 125 66 219t181 146
t259 52q147 0 259 -53t176.5 -145t68.5 -210h-173q-12 118 -104 184.5t-232 66.5q-98 0 -172 -33t-115.5 -89.5t-41.5 -129.5q0 -74 44 -122t110.5 -77t134.5 -48l154 -42q72 -19 146 -49.5t135.5 -78t99.5 -116t38 -165.5q0 -122 -64 -219.5t-183.5 -153.5t-287.5 -56z" />
    <glyph glyph-name="percent" unicode="%" horiz-adv-x="1857" 
d="M192 1139v66q0 86 34.5 155.5t100 111t157.5 41.5q93 0 157.5 -41.5t98.5 -111t34 -155.5v-66q0 -85 -34 -155.5t-98.5 -112t-157.5 -41.5t-158.5 41.5t-99.5 112t-34 155.5zM336 1205v-66q0 -77 35.5 -131t112.5 -54q76 0 111 54t35 131v66q0 76 -34.5 130.5
t-111.5 54.5q-75 0 -111.5 -54.5t-36.5 -130.5zM1083 282v66q0 85 35 155t100.5 111.5t156.5 41.5q94 0 159 -41.5t98.5 -111.5t33.5 -155v-66q0 -85 -34.5 -155.5t-99 -112t-157.5 -41.5q-92 0 -157.5 41.5t-100 112t-34.5 155.5zM1227 348v-66q0 -77 36 -131t112 -54
t111.5 54t35.5 131v66q0 76 -34.5 130.5t-112.5 54.5q-75 0 -111.5 -54.5t-36.5 -130.5zM337 0l1023 1490h161l-1024 -1490h-160z" />
    <glyph glyph-name="ampersand" unicode="&#x26;" horiz-adv-x="1294" 
d="M570 -20q-144 0 -250 54t-163.5 147.5t-57.5 212.5q0 90 39 159.5t108.5 131t158.5 127.5l220 163q64 47 102.5 94t38.5 121q0 61 -50.5 115.5t-132.5 54.5q-57 0 -101 -29t-69.5 -73.5t-25.5 -93.5q0 -52 28.5 -105t73 -108t94.5 -117l685 -834h-203l-572 691
q-76 92 -138.5 168t-99 149t-36.5 158q0 100 45 176.5t125.5 119t187.5 42.5q111 0 191 -43t123.5 -114t43.5 -156q0 -105 -53.5 -183.5t-145.5 -147.5l-291 -216q-100 -74 -137 -143.5t-37 -105.5q0 -71 37.5 -132t104 -99t154.5 -38q86 0 166.5 37t145 105t103.5 164
t40 215h161q0 -141 -33 -233t-75 -147t-71 -84q-9 -10 -17 -21t-16 -21q-72 -79 -181 -120t-220 -41z" />
    <glyph glyph-name="quotesingle" unicode="'" horiz-adv-x="588" 
d="M225 944l-20 546h178l-21 -546h-137z" />
    <glyph glyph-name="parenleft" unicode="(" horiz-adv-x="712" 
d="M206 608q0 163 32.5 340.5t89 341.5t130.5 288h163q-76 -154 -131.5 -322.5t-84.5 -334t-29 -313.5q0 -136 26 -275t80.5 -290.5t138.5 -324.5h-163q-124 215 -188 441t-64 449z" />
    <glyph glyph-name="parenright" unicode=")" horiz-adv-x="712" 
d="M92 -282q86 177 140 329t79 290t25 271q0 148 -29 313.5t-84 334t-131 322.5h163q73 -124 130 -288t89 -341.5t32 -340.5q0 -226 -64.5 -452t-186.5 -438h-163z" />
    <glyph glyph-name="asterisk" unicode="*" horiz-adv-x="1012" 
d="M438 652l12 323l-273 -173l-68 118l286 150l-286 150l68 120l273 -173l-12 323h136l-11 -323l272 173l68 -120l-287 -150l287 -150l-68 -118l-272 173l11 -323h-136z" />
    <glyph glyph-name="plus" unicode="+" horiz-adv-x="1336" 
d="M589 104v955h158v-955h-158zM191 508v149h954v-149h-954z" />
    <glyph glyph-name="comma" unicode="," horiz-adv-x="559" 
d="M117 -340l89 543h188l-150 -543h-127z" />
    <glyph glyph-name="hyphen" unicode="-" horiz-adv-x="925" 
d="M785 708v-155h-645v155h645z" />
    <glyph glyph-name="period" unicode="." horiz-adv-x="559" 
d="M279 -13q-52 0 -89 37t-37 89q0 53 37 89.5t89 36.5q53 0 89.5 -36.5t36.5 -89.5q0 -52 -36.5 -89t-89.5 -37z" />
    <glyph glyph-name="slash" unicode="/" horiz-adv-x="717" 
d="M676 1560l-480 -1784h-155l480 1784h155z" />
    <glyph glyph-name="zero" unicode="0" horiz-adv-x="1277" 
d="M638 -21q-163 0 -279.5 91t-179 262t-62.5 412t62.5 412t179 263t279.5 92t280 -92t179 -263t62 -412q0 -240 -61.5 -411.5t-178 -262.5t-281.5 -91zM638 134q112 0 190.5 73t120 209t41.5 328q0 193 -41.5 330t-120 210t-190.5 73q-166 0 -258.5 -162t-92.5 -451
q0 -192 41.5 -328t120 -209t189.5 -73z" />
    <glyph glyph-name="one" unicode="1" horiz-adv-x="808" 
d="M630 1490v-1490h-173v1323h-8l-359 -261v188l332 240h208z" />
    <glyph glyph-name="two" unicode="2" horiz-adv-x="1229" 
d="M143 0v131l499 530q88 93 144.5 162.5t84 131.5t27.5 133q0 83 -37.5 143t-103 93t-150.5 33q-88 0 -153.5 -37.5t-101 -104t-35.5 -155.5h-169q0 133 60.5 235t164.5 159t238 57q133 0 235.5 -55.5t160.5 -150.5t58 -214q0 -84 -30 -162t-102 -172.5t-198 -226.5
l-350 -365v-9h707v-156h-949z" />
    <glyph glyph-name="three" unicode="3" horiz-adv-x="1292" 
d="M651 -21q-146 0 -259 52.5t-178.5 145.5t-69.5 215h178q5 -79 48 -137t115 -89t163 -31q98 0 172.5 34t117.5 96t43 143q0 83 -43 145.5t-123 98t-192 35.5h-112v154h112q91 0 160.5 32t108.5 90t39 137q0 77 -34.5 135t-98 90t-148.5 32q-82 0 -150 -30.5t-109.5 -86.5
t-43.5 -135h-171q3 120 67 211.5t171.5 143t238.5 51.5q137 0 238 -55.5t156.5 -146.5t55.5 -200q0 -124 -68 -212.5t-185 -123.5v-10q95 -16 163.5 -65t105 -124t36.5 -168q0 -123 -65.5 -219.5t-179.5 -152t-259 -55.5z" />
    <glyph glyph-name="four" unicode="4" horiz-adv-x="1302" 
d="M109 317v144l666 1029h107v-220h-71l-510 -788v-9h893v-156h-1085zM820 0v360v68v1062h169v-1490h-169z" />
    <glyph glyph-name="five" unicode="5" horiz-adv-x="1224" 
d="M614 -20q-132 0 -236.5 53t-166.5 144.5t-67 208.5h172q9 -109 93.5 -179.5t204.5 -70.5q93 0 165.5 43.5t113.5 120.5t41 175q0 100 -42.5 178t-116 122.5t-168.5 44.5q-81 0 -155 -28.5t-117 -75.5l-168 17l81 757h789v-156h-638l-50 -459h6q52 46 125.5 73.5
t156.5 27.5q101 0 187 -37t149 -104t98 -158t35 -200q0 -143 -63.5 -255.5t-174.5 -177t-254 -64.5z" />
    <glyph glyph-name="six" unicode="6" horiz-adv-x="1245" 
d="M633 -21q-98 0 -190.5 37.5t-166 119.5t-116.5 217.5t-43 332.5q0 191 35.5 343.5t104 260t169 164.5t230.5 57q125 0 222.5 -50t158.5 -139t78 -206h-173q-23 104 -94.5 171t-189.5 67q-119 0 -202.5 -70.5t-127 -202t-43.5 -315.5h9q38 63 94.5 108t127 69.5
t148.5 24.5q128 0 233.5 -63t168 -174t62.5 -254q0 -139 -61.5 -252t-173 -179.5t-260.5 -66.5zM633 135q92 0 165 46t116 123.5t43 172.5q0 94 -41.5 170.5t-114 121.5t-164.5 45t-166.5 -47t-118 -125t-41.5 -168q2 -93 44.5 -170t115 -123t162.5 -46z" />
    <glyph glyph-name="seven" unicode="7" horiz-adv-x="1131" 
d="M189 0l668 1325v9h-770v156h953v-165l-665 -1325h-186z" />
    <glyph glyph-name="eight" unicode="8" horiz-adv-x="1248" 
d="M623 -21q-148 0 -262.5 54t-179 148t-64.5 214q0 94 38.5 174.5t104.5 135t150 69.5v7q-109 29 -174 122.5t-65 211.5q0 114 58.5 203.5t160.5 141t233 51.5q130 0 232 -51.5t161 -141t59 -203.5q0 -118 -65.5 -212t-171.5 -122v-7q82 -15 148 -69.5t105 -135.5t39 -174
q0 -120 -65 -214t-179.5 -148t-262.5 -54zM623 133q101 0 175 34t115 95t41 142q0 85 -43 150t-118 102.5t-170 37.5q-96 0 -171 -37.5t-118 -102.5t-43 -150q0 -81 40.5 -142t115.5 -95t176 -34zM623 843q82 0 145 32.5t99.5 91.5t36.5 136t-35.5 134t-99 89t-146.5 32
t-146.5 -32t-99 -89t-35.5 -134t35.5 -135.5t99.5 -91.5t146 -33z" />
    <glyph glyph-name="nine" unicode="9" horiz-adv-x="1245" 
d="M590 -21q-126 0 -223.5 50t-159 139.5t-78.5 208.5h174q22 -105 93.5 -173t191.5 -68q118 0 201.5 70.5t127.5 202.5t44 316h-10q-37 -61 -93.5 -106t-126 -70t-148.5 -25q-128 0 -234 63.5t-169 174.5t-63 252q0 140 62.5 253t174 179.5t261.5 64.5q98 -1 189.5 -38.5
t164.5 -119t116 -216t43 -331.5q0 -192 -35.5 -345t-104 -260.5t-169 -164.5t-229.5 -57zM608 679q93 0 167.5 47.5t118.5 125.5t42 168q-2 91 -45 167t-115 122t-164 46q-91 0 -164 -45.5t-115.5 -122.5t-42.5 -172q0 -94 41.5 -170t113.5 -121t163 -45z" />
    <glyph glyph-name="colon" unicode=":" horiz-adv-x="559" 
d="M279 -13q-52 0 -89 37t-37 89q0 53 37 89.5t89 36.5q53 0 89.5 -36.5t36.5 -89.5q0 -52 -36.5 -89t-89.5 -37zM279 804q-52 0 -89 37t-37 89q0 53 37 89.5t89 36.5q53 0 89.5 -36.5t36.5 -89.5q0 -52 -36.5 -89t-89.5 -37z" />
    <glyph glyph-name="semicolon" unicode=";" horiz-adv-x="581" 
d="M117 -340l89 543h188l-150 -543h-127zM301 804q-52 0 -89 37t-37 89q0 53 37 89.5t89 36.5q53 0 89.5 -36.5t36.5 -89.5q0 -52 -36.5 -89t-89.5 -37z" />
    <glyph glyph-name="less" unicode="&#x3c;" horiz-adv-x="1336" 
d="M172 524v118l931 479v-182l-722 -355l7 13v-28l-7 10l722 -354v-181z" />
    <glyph glyph-name="equal" unicode="=" horiz-adv-x="1336" 
d="M226 720v155h885v-155h-885zM226 291v154h885v-154h-885z" />
    <glyph glyph-name="greater" unicode="&#x3e;" horiz-adv-x="1336" 
d="M1164 524l-930 -480v181l721 354l-6 -10v28l6 -13l-721 355v182l930 -479v-118z" />
    <glyph glyph-name="question" unicode="?" horiz-adv-x="1045" 
d="M393 445v31q0 127 26.5 197t76.5 113t119 86q73 47 116 109.5t43 144.5q0 72 -33.5 124.5t-91.5 81.5t-131 29q-68 0 -126.5 -28.5t-95 -85.5t-41.5 -143h-176q4 127 62.5 218t156.5 140t220 49q128 0 224 -50t149.5 -138.5t53.5 -201.5q0 -116 -53 -202t-153 -150
q-65 -41 -104.5 -77.5t-56.5 -86t-17 -132.5v-28h-168zM479 -13q-53 0 -89.5 37t-36.5 88q0 53 36.5 90t89.5 37t89.5 -37t36.5 -90q0 -51 -36.5 -88t-89.5 -37z" />
    <glyph glyph-name="at" unicode="@" horiz-adv-x="1982" 
d="M1035 -396q-216 0 -386 63t-289 182.5t-181 290t-62 385.5q0 210 63 379t181 289t284.5 184t373.5 64q202 0 359 -66.5t265.5 -182t165 -264.5t56.5 -314q0 -109 -15 -212.5t-53 -186.5t-107 -132.5t-178 -49.5q-61 0 -118.5 19.5t-97.5 59t-48 97.5h-6q-28 -69 -98 -120
t-185 -51q-131 0 -221.5 66t-137.5 178t-47 250q0 136 54 243t148.5 169t212.5 62q99 0 166.5 -38.5t96.5 -84.5h8v100h149v-661q0 -67 32.5 -110.5t96.5 -43.5q74 0 117 48.5t62 147.5t19 250q0 139 -45 263t-133.5 220.5t-219.5 151.5t-302 55q-172 0 -309 -54
t-233.5 -156t-147 -246.5t-50.5 -326.5t50.5 -327t149.5 -245.5t241 -153.5t324 -53q83 0 159.5 15t138 34.5t96.5 33.5l43 -132q-47 -21 -119 -41.5t-156 -34t-167 -13.5zM968 181q96 0 157 41t90.5 120.5t29.5 195.5q0 118 -31.5 189.5t-92.5 104t-149 32.5
q-84 0 -144.5 -43.5t-93.5 -117t-33 -165.5q0 -97 28.5 -178.5t87.5 -130t151 -48.5z" />
    <glyph glyph-name="A" unicode="A" horiz-adv-x="1389" 
d="M47 0l544 1490h204l548 -1490h-186l-325 909q-30 83 -67.5 200.5t-91.5 297.5h38q-53 -181 -91.5 -300t-66.5 -198l-320 -909h-186zM316 423v155h757v-155h-757z" />
    <glyph glyph-name="B" unicode="B" horiz-adv-x="1330" 
d="M178 0v1490h524q152 0 254 -52t153 -141t51 -201q0 -93 -33 -156.5t-87.5 -102.5t-122.5 -59v-11q73 -6 142 -50t114 -123.5t45 -193.5q0 -115 -52.5 -205.5t-162.5 -142.5t-283 -52h-542zM354 156h362q173 0 252 69t79 175q0 79 -39.5 142.5t-111 101t-170.5 37.5h-372
v-525zM354 831h346q84 0 149.5 32.5t103 91t37.5 136.5q0 105 -72 174t-218 69h-346v-503z" />
    <glyph glyph-name="C" unicode="C" horiz-adv-x="1490" 
d="M780 -21q-193 0 -343 94t-235 266t-85 405q0 234 85 406t235 266.5t343 94.5q115 0 216 -34.5t180.5 -99.5t132 -155.5t72.5 -202.5h-177q-17 78 -55.5 138.5t-95 103t-126 64.5t-147.5 22q-140 0 -251 -71t-175 -205.5t-64 -326.5q0 -191 64.5 -325.5t175.5 -205
t250 -70.5q78 0 147.5 22.5t126 64.5t95 103t55.5 138h177q-19 -112 -72 -202t-132.5 -155t-180 -100t-216.5 -35z" />
    <glyph glyph-name="D" unicode="D" horiz-adv-x="1463" 
d="M635 0h-360v156h349q185 0 307 71t182.5 204t60.5 317q0 183 -60 314t-177 201.5t-293 70.5h-376v156h388q217 0 371 -89t236 -255.5t82 -397.5q0 -233 -83 -400.5t-241.5 -257.5t-385.5 -90zM354 1490v-1490h-176v1490h176z" />
    <glyph glyph-name="E" unicode="E" horiz-adv-x="1219" 
d="M178 0v1490h911v-156h-735v-502h684v-157h-684v-519h743v-156h-919z" />
    <glyph glyph-name="F" unicode="F" horiz-adv-x="1193" 
d="M178 0v1490h899v-156h-723v-520h656v-156h-656v-658h-176z" />
    <glyph glyph-name="G" unicode="G" horiz-adv-x="1519" 
d="M783 -21q-198 0 -347.5 94.5t-234 266.5t-84.5 404q0 234 84.5 406t232.5 266.5t340 94.5q119 0 221.5 -36.5t183 -102.5t133.5 -155.5t72 -196.5h-181q-21 73 -59.5 132.5t-93.5 103.5t-124 67.5t-151 23.5q-138 0 -248 -71t-173.5 -206t-63.5 -326q0 -189 64 -323.5
t175.5 -206t253.5 -71.5q129 0 228 55.5t155 157.5t56 240l54 -9h-452v155h570v-153q0 -184 -79 -321t-216.5 -213t-315.5 -76z" />
    <glyph glyph-name="H" unicode="H" horiz-adv-x="1505" 
d="M178 0v1490h176v-650h798v650h176v-1490h-176v684h-798v-684h-176z" />
    <glyph glyph-name="I" unicode="I" horiz-adv-x="531" 
d="M354 1490v-1490h-176v1490h176z" />
    <glyph glyph-name="J" unicode="J" horiz-adv-x="1152" 
d="M539 -20q-195 0 -317 115.5t-122 327.5v79h176v-79q0 -139 72 -213t191 -74t191 74t72 213v1067h176v-1067q0 -212 -122 -327.5t-317 -115.5z" />
    <glyph glyph-name="K" unicode="K" horiz-adv-x="1348" 
d="M299 435l-2 196q52 68 103.5 130t104.5 122.5t109 119.5l450 487h232l-634 -680h-10zM178 0v1490h176v-513l-2 -324l2 -87v-566h-176zM1088 0l-545 765l110 137l643 -902h-208z" />
    <glyph glyph-name="L" unicode="L" horiz-adv-x="1145" 
d="M178 0v1490h176v-1334h700v-156h-876z" />
    <glyph glyph-name="M" unicode="M" horiz-adv-x="1829" 
d="M178 0v1490h248l381 -964q13 -33 30 -81t35 -103t35 -108.5t29 -97.5h-40q13 42 30 95t35 108t35 104t30 83l377 964h249v-1490h-173v877v102.5t1.5 118.5t3 125.5t2.5 123.5h17q-21 -67 -44 -135t-45 -131t-41.5 -115.5t-33.5 -88.5l-349 -877h-152l-352 877
q-15 36 -33.5 87t-40.5 113t-45.5 131t-48.5 139h19q2 -55 3.5 -117t2.5 -125t1.5 -121.5t0.5 -106.5v-877h-167z" />
    <glyph glyph-name="N" unicode="N" horiz-adv-x="1528" 
d="M178 0v1490h205l626 -971q24 -37 58 -93.5t72.5 -125t74.5 -144.5l-24 -6q-7 77 -10.5 152t-4.5 139t-1 108v941h176v-1490h-207l-565 874q-34 54 -71.5 115.5t-85 143.5t-113.5 197l31 9q4 -107 7.5 -197t5.5 -158t2 -108v-876h-176z" />
    <glyph glyph-name="O" unicode="O" horiz-adv-x="1555" 
d="M778 -21q-191 0 -340.5 94t-235 266t-85.5 405q0 234 85.5 406t235 266.5t340.5 94.5q192 0 341 -94.5t234 -266.5t85 -406q0 -233 -85 -405t-234 -266t-341 -94zM778 143q137 0 247 70t175 204.5t65 326.5q0 194 -65 328.5t-175 204.5t-247 70t-247.5 -70t-175.5 -204.5
t-65 -328.5q0 -192 65 -326.5t175.5 -204.5t247.5 -70z" />
    <glyph glyph-name="P" unicode="P" horiz-adv-x="1291" 
d="M178 0v1490h509q166 0 277.5 -61.5t167 -166.5t55.5 -239q0 -133 -56 -239t-167 -168t-278 -62h-380v156h374q115 0 188.5 40.5t108.5 111.5t35 161q0 91 -35 161t-109 110t-190 40h-324v-1334h-176z" />
    <glyph glyph-name="Q" unicode="Q" horiz-adv-x="1555" 
d="M724 466h186l172 -226l40 -55l244 -325h-186l-164 221l-40 52zM778 -21q-191 0 -340.5 94t-235 266t-85.5 405q0 234 85.5 406t235 266.5t340.5 94.5q192 0 341 -94.5t234 -266.5t85 -406q0 -233 -85 -405t-234 -266t-341 -94zM778 143q137 0 247 70t175 204.5t65 326.5
q0 194 -65 328.5t-175 204.5t-247 70t-247.5 -70t-175.5 -204.5t-65 -328.5q0 -192 65 -326.5t175.5 -204.5t247.5 -70z" />
    <glyph glyph-name="R" unicode="R" horiz-adv-x="1308" 
d="M178 0v1490h512q167 0 278 -58t167 -161t56 -237q0 -133 -56.5 -234.5t-168 -158t-278.5 -56.5h-412v157h407q115 0 188.5 35.5t109 101.5t35.5 155q0 92 -36 159t-109.5 104t-188.5 37h-328v-1334h-176zM1038 0l-361 671h199l366 -671h-204z" />
    <glyph glyph-name="S" unicode="S" horiz-adv-x="1297" 
d="M650 -25q-161 0 -279.5 53t-185 149.5t-73.5 225.5h180q7 -89 55.5 -149t127.5 -90.5t175 -30.5q105 0 186.5 34t129 95.5t47.5 142.5q0 71 -38 117.5t-105.5 78t-155.5 55.5l-177 49q-188 52 -287 146.5t-99 242.5q0 125 66 219t181 146t259 52q147 0 259 -53
t176.5 -145t68.5 -210h-173q-12 118 -104 184.5t-232 66.5q-98 0 -172 -33t-115.5 -89.5t-41.5 -129.5q0 -74 44 -122t110.5 -77t134.5 -48l154 -42q72 -19 146 -49.5t135.5 -78t99.5 -116t38 -165.5q0 -122 -64 -219.5t-183.5 -153.5t-287.5 -56z" />
    <glyph glyph-name="T" unicode="T" horiz-adv-x="1303" 
d="M91 1334v156h1121v-156h-471v-1334h-177v1334h-473z" />
    <glyph glyph-name="U" unicode="U" horiz-adv-x="1503" 
d="M752 -24q-174 0 -304.5 69t-202.5 189t-72 273v983h177v-970q0 -110 49 -195.5t139 -135t214 -49.5t214 49.5t138.5 135t48.5 195.5v970h176v-983q0 -153 -72 -273t-201.5 -189t-303.5 -69z" />
    <glyph glyph-name="V" unicode="V" horiz-adv-x="1389" 
d="M596 0l-549 1490h185l326 -909q27 -76 67 -198t93 -300h-38q53 181 92 301.5t66 196.5l318 909h187l-544 -1490h-203z" />
    <glyph glyph-name="W" unicode="W" horiz-adv-x="1994" 
d="M454 0l-407 1490h179l244 -936q19 -71 36 -144t33 -148t30 -153h-22q15 78 31 153t33.5 148t36.5 144l248 936h202l246 -936q19 -71 36.5 -144t34 -148t31.5 -153h-24q15 78 31 153t33.5 148t35.5 144l243 936h182l-409 -1490h-207l-260 960q-26 94 -49 199.5t-45 235.5
h37q-21 -124 -42.5 -227.5t-50.5 -207.5l-259 -960h-208z" />
    <glyph glyph-name="X" unicode="X" horiz-adv-x="1372" 
d="M51 0l580 827v-130l-548 793h204l226 -330q44 -63 74.5 -110.5t57.5 -93.5t58 -105h-31q32 58 59 104t58.5 94t74.5 111l230 330h199l-547 -786v130l574 -834h-203l-270 389q-38 57 -67.5 101.5t-55.5 88.5t-57 101h39q-30 -55 -56.5 -99t-56 -89t-70.5 -103l-271 -389
h-201z" />
    <glyph glyph-name="Y" unicode="Y" horiz-adv-x="1369" 
d="M596 0v619l-549 871h204l301 -483q49 -78 88.5 -150t81.5 -173h-72q42 102 82 175t87 148l300 483h203l-549 -871v-619h-177z" />
    <glyph glyph-name="Z" unicode="Z" horiz-adv-x="1278" 
d="M118 0v130l694 1008q45 65 94.5 130.5t99.5 130.5l20 -59q-90 -4 -180 -5.5t-180 -1.5h-547v157h1040v-132l-684 -992q-48 -70 -100 -138.5t-104 -136.5l-21 59q89 4 178 5t178 1h560v-156h-1048z" />
    <glyph glyph-name="bracketleft" unicode="[" horiz-adv-x="712" 
d="M215 -282v1860h380v-143h-218v-1574h218v-143h-380z" />
    <glyph glyph-name="backslash" unicode="\" horiz-adv-x="716" 
d="M521 -224l-480 1784h155l480 -1784h-155z" />
    <glyph glyph-name="bracketright" unicode="]" horiz-adv-x="712" 
d="M117 -282v143h219v1574h-219v143h380v-1860h-380z" />
    <glyph glyph-name="asciicircum" unicode="^" horiz-adv-x="938" 
d="M444 1365h50v-73h-50v73zM76 814l301 629h185l300 -629h-166l-235 508h16l-233 -508h-168z" />
    <glyph glyph-name="underscore" unicode="_" horiz-adv-x="929" 
d="M929 0v-155h-929v155h929z" />
    <glyph glyph-name="grave" unicode="`" horiz-adv-x="622" 
d="M328 1251l-190 294h188l140 -294h-138z" />
    <glyph glyph-name="a" unicode="a" horiz-adv-x="1126" 
d="M465 -24q-105 0 -190 39t-135.5 114.5t-50.5 184.5q0 92 36 150.5t97.5 93t138.5 52.5t160 28q98 13 161 20.5t93 25t30 58.5v11q0 69 -27.5 118t-81 76t-132.5 27t-137 -25t-94 -64.5t-51 -82.5l-163 43q35 99 103 159.5t156.5 88.5t181.5 28q65 0 137 -16.5t134.5 -58
t101.5 -116t39 -190.5v-740h-165v158h-10q-20 -42 -62 -84t-109 -70t-161 -28zM492 124q101 0 171 40.5t106 105.5t36 139v152q-11 -13 -45.5 -23t-79.5 -18t-89.5 -14t-75.5 -10q-72 -8 -130.5 -29t-92.5 -59.5t-34 -102.5q0 -58 30 -98.5t83 -61.5t121 -21z" />
    <glyph glyph-name="b" unicode="b" horiz-adv-x="1230" 
d="M664 -23q-98 0 -163.5 33.5t-105.5 80.5t-63 89h-16v-180h-161v1490h167v-568h11q22 40 61 86.5t104 79.5t165 33q139 0 244 -70t164.5 -198.5t59.5 -301.5q0 -175 -59 -303.5t-164 -199.5t-244 -71zM639 127q104 0 175.5 55.5t109 151.5t37.5 218q0 121 -37 216
t-109 149t-176 54q-103 0 -175 -52.5t-109 -146.5t-37 -220q0 -125 37.5 -221t109.5 -150t174 -54z" />
    <glyph glyph-name="c" unicode="c" horiz-adv-x="1145" 
d="M601 -23q-149 0 -262 71.5t-176.5 200.5t-63.5 298q0 172 63.5 301.5t176.5 201.5t262 72q84 0 156.5 -23t130.5 -65t99 -100t60 -128l-162 -37q-11 41 -35.5 78t-60 65t-83 44t-105.5 16q-110 0 -184 -58t-111 -154t-37 -213q0 -115 37 -210.5t111 -152.5t184 -57
q59 0 107 16t84 44.5t60.5 67t36.5 81.5l161 -37q-18 -71 -59 -130t-100 -102t-132.5 -66.5t-157.5 -23.5z" />
    <glyph glyph-name="d" unicode="d" horiz-adv-x="1230" 
d="M567 -23q-138 0 -244 71t-165 199.5t-59 303.5q0 173 59.5 301.5t165 198.5t243.5 70q101 0 165.5 -33t104 -79.5t61.5 -86.5h11v568h167v-1490h-162v180h-16q-22 -42 -62 -89t-105 -80.5t-164 -33.5zM591 127q103 0 175 54t109.5 150t37.5 221q0 126 -37.5 220
t-109 146.5t-175.5 52.5t-176 -54t-109 -149t-37 -216q0 -122 37.5 -218t109.5 -151.5t175 -55.5z" />
    <glyph glyph-name="e" unicode="e" horiz-adv-x="1173" 
d="M614 -24q-160 0 -275 72t-177.5 200.5t-62.5 297.5t62 299t173.5 203.5t260.5 73.5q93 0 179.5 -32.5t155 -100t108.5 -173t40 -251.5v-66h-871v142h780l-77 -52q0 112 -36.5 199t-107 136t-171.5 49t-174.5 -50t-113 -132.5t-39.5 -181.5v-88q0 -123 42.5 -212
t120.5 -136t183 -47q71 0 127 21t95.5 61t59.5 96l162 -37q-25 -85 -86.5 -150.5t-152.5 -103t-205 -37.5z" />
    <glyph glyph-name="f" unicode="f" horiz-adv-x="720" 
d="M649 1106v-144h-631v144h631zM232 0v1265q0 92 42 154.5t111.5 94.5t149.5 32q56 0 94.5 -8t56.5 -15l-37 -144q-14 5 -38 9.5t-57 4.5q-80 0 -117.5 -41t-37.5 -121v-1231h-167z" />
    <glyph glyph-name="g" unicode="g" horiz-adv-x="1232" 
d="M600 -440q-121 0 -212 32t-150.5 88t-89.5 126l142 70q22 -39 59.5 -78.5t98 -65t152.5 -25.5q138 0 224 68t86 209v219h-13q-23 -42 -62.5 -87t-104.5 -76t-164 -31q-134 0 -240 65.5t-166.5 188t-60.5 293.5t60 298t166 197t244 70q100 0 165 -32.5t105 -79.5t62 -89
h14v186h162v-1129q0 -145 -63.5 -237.5t-172 -136t-241.5 -43.5zM593 159q102 0 174 48t109.5 138t37.5 214q0 122 -37 214.5t-109 145t-175 52.5q-105 0 -177 -54t-109.5 -146.5t-37.5 -211.5q0 -120 38 -210.5t110 -140t176 -49.5z" />
    <glyph glyph-name="h" unicode="h" horiz-adv-x="1191" 
d="M322 666v-666h-167v1490h167v-650h-34q50 151 145.5 216t221.5 65q112 0 198.5 -46.5t135 -139.5t48.5 -232v-703h-168v689q0 133 -69.5 207t-189.5 74q-82 0 -147.5 -35t-103 -103t-37.5 -166z" />
    <glyph glyph-name="i" unicode="i" horiz-adv-x="476" 
d="M155 0v1106h167v-1106h-167zM239 1299q-48 0 -82.5 33t-34.5 80t34.5 79.5t82.5 32.5t82.5 -32.5t34.5 -79.5t-34.5 -80t-82.5 -33z" />
    <glyph glyph-name="j" unicode="j" horiz-adv-x="477" 
d="M154 1106h168v-1205q1 -98 -35 -170t-106 -110.5t-172 -38.5h-41v153h36q76 0 113 44t37 127v1200zM239 1299q-48 0 -82.5 33t-34.5 80t34.5 79.5t82.5 32.5t82.5 -32.5t34.5 -79.5t-34.5 -80t-82.5 -33z" />
    <glyph glyph-name="k" unicode="k" horiz-adv-x="1096" 
d="M310 402v207h29l489 497h209l-515 -522l-18 -1zM155 0v1490h167v-1490h-167zM857 0l-434 548l119 117l529 -665h-214z" />
    <glyph glyph-name="l" unicode="l" horiz-adv-x="476" 
d="M322 1490v-1490h-167v1490h167z" />
    <glyph glyph-name="m" unicode="m" horiz-adv-x="1777" 
d="M155 0v1106h162l1 -245h-16q25 89 75 147.5t116.5 87.5t138.5 29q123 0 201.5 -74t100.5 -193h-26q21 82 73 142t126.5 92.5t163.5 32.5q98 0 177.5 -42t126.5 -127t47 -215v-741h-168v738q0 125 -68.5 180t-162.5 55q-77 0 -133.5 -32.5t-87 -89.5t-30.5 -131v-720h-167
v754q0 99 -64 159t-162 60q-67 0 -126.5 -32t-95 -93.5t-35.5 -151.5v-696h-167z" />
    <glyph glyph-name="n" unicode="n" horiz-adv-x="1191" 
d="M322 666v-666h-167v1106h161v-266h-28q50 151 145.5 216t221.5 65q112 0 198.5 -46.5t135 -139.5t48.5 -232v-703h-168v689q0 133 -69.5 207t-189.5 74q-82 0 -147.5 -35t-103 -103t-37.5 -166z" />
    <glyph glyph-name="o" unicode="o" horiz-adv-x="1204" 
d="M601 -24q-149 0 -262 72t-176.5 201t-63.5 298q0 172 63.5 301.5t176.5 201.5t262 72q150 0 263.5 -72t176.5 -201.5t63 -301.5q0 -169 -63 -298t-176.5 -201t-263.5 -72zM601 126q111 0 185.5 57.5t111.5 153t37 210.5q0 116 -37 212.5t-111.5 154.5t-185.5 58
q-110 0 -184 -58t-111 -154t-37 -213q0 -115 37 -210.5t111 -153t184 -57.5z" />
    <glyph glyph-name="p" unicode="p" horiz-adv-x="1230" 
d="M155 -418v1524h161v-184h16q22 40 61 86.5t104.5 79.5t165.5 33q139 0 244 -70t164.5 -198.5t59.5 -301.5q0 -175 -59 -303.5t-164 -199.5t-244 -71q-98 0 -163.5 33.5t-105 80.5t-62.5 89h-11v-598h-167zM639 127q104 0 175.5 55.5t109 151.5t37.5 218q0 121 -37 216
t-109 149t-176 54q-103 0 -175 -52.5t-109 -146.5t-37 -220q0 -125 37.5 -221t109.5 -150t174 -54z" />
    <glyph glyph-name="q" unicode="q" horiz-adv-x="1230" 
d="M1076 -418h-167v598h-11q-23 -42 -63 -89t-104.5 -80.5t-163.5 -33.5q-138 0 -244 71t-165 199.5t-59 303.5q0 173 59.5 301.5t165 198.5t243.5 70q101 0 166 -33t104.5 -79.5t60.5 -86.5h16v184h162v-1524zM591 127q103 0 175 54t109.5 150t37.5 221q0 126 -37.5 220
t-109 146.5t-175.5 52.5t-176 -54t-109 -149t-37 -216q0 -122 37.5 -218t109.5 -151.5t175 -55.5z" />
    <glyph glyph-name="r" unicode="r" horiz-adv-x="740" 
d="M155 0v1106h161v-172h10q31 85 108.5 136.5t178.5 51.5q20 0 44 -1.5t38 -2.5v-168q-8 2 -37 6t-63 4q-78 0 -140 -33t-97.5 -93t-35.5 -140v-694h-167z" />
    <glyph glyph-name="s" unicode="s" horiz-adv-x="1054" 
d="M527 -24q-114 0 -203 34.5t-146 102t-74 166.5l160 31q21 -95 88 -141t172 -46q119 0 189 51t70 124q0 61 -42.5 100.5t-125.5 58.5l-182 43q-149 36 -223 110.5t-74 191.5q0 94 52.5 166t143.5 113t207 41q112 0 193 -35.5t131.5 -98.5t70.5 -148l-153 -32
q-20 69 -76.5 120t-164.5 51q-103 0 -169 -48t-66 -121q0 -64 45.5 -103t141.5 -61l170 -41q149 -35 221 -109.5t72 -187.5q0 -98 -54.5 -172.5t-151 -117t-222.5 -42.5z" />
    <glyph glyph-name="t" unicode="t" horiz-adv-x="649" 
d="M584 1106v-144h-566v144h566zM189 1376h167v-1099q0 -74 31.5 -107.5t102.5 -32.5q17 0 42.5 3.5t46.5 6.5l28 -142q-27 -8 -59.5 -12t-63.5 -4q-141 -1 -218 71t-77 204v1112z" />
    <glyph glyph-name="u" unicode="u" horiz-adv-x="1191" 
d="M536 -15q-112 0 -198 46.5t-134.5 140t-48.5 231.5v703h167v-690q0 -132 70 -206t190 -74q81 0 146 35t103 103t38 166v666h168v-1106h-162v266h27q-50 -152 -146 -216.5t-220 -64.5z" />
    <glyph glyph-name="v" unicode="v" horiz-adv-x="1127" 
d="M476 0l-424 1106h183l241 -662q36 -96 62.5 -191.5t54.5 -186.5h-57q29 91 55.5 186.5t61.5 191.5l240 662h182l-424 -1106h-175z" />
    <glyph glyph-name="w" unicode="w" horiz-adv-x="1647" 
d="M399 0l-336 1106h177l144 -511q28 -99 58 -217.5t60 -261.5h-28q29 137 59 256.5t58 222.5l146 511h176l144 -511q28 -101 57 -220t58 -259h-29q31 139 61 257.5t58 221.5l145 511h176l-335 -1106h-170l-155 531q-21 73 -41 148.5t-39 153.5t-39 159h39
q-19 -80 -38.5 -158.5t-39.5 -154.5t-41 -148l-156 -531h-169z" />
    <glyph glyph-name="x" unicode="x" horiz-adv-x="1095" 
d="M58 0l441 631l-1 -128l-417 603h195l147 -223q51 -78 91 -147t81 -135h-86q43 66 80 135t88 147l150 223h192l-419 -609v125l437 -622h-194l-174 258q-49 75 -87.5 141.5t-79.5 129.5h87q-40 -63 -76 -129.5t-87 -141.5l-174 -258h-194z" />
    <glyph glyph-name="y" unicode="y" horiz-adv-x="1127" 
d="M138 -407l35 145l35 -4q52 -12 94 -4t75.5 45t59.5 110l40 111l-425 1110h183l241 -662q36 -97 62.5 -192.5t54.5 -186.5h-58q28 91 55 187t62 192l242 662h181l-492 -1282q-32 -84 -78 -139.5t-106 -82t-135 -26.5q-43 0 -75.5 5.5t-50.5 11.5z" />
    <glyph glyph-name="z" unicode="z" horiz-adv-x="1096" 
d="M122 0v126l622 816v10h-605v154h818v-134l-608 -809v-9h626v-154h-853z" />
    <glyph glyph-name="braceleft" unicode="{" horiz-adv-x="850" 
d="M140 637v95q122 0 170 50t48 169v243q0 100 19.5 172.5t64 119.5t116.5 69.5t175 22.5v-141q-126 1 -173 -58t-47 -187v-295q0 -59 -15 -106t-55 -81.5t-113.5 -53.5t-189.5 -19zM733 -282q-103 0 -175 22.5t-116.5 69t-64 119.5t-19.5 173v242q0 119 -48 169.5
t-170 50.5v95q116 0 189.5 -19t113.5 -54t55 -83t15 -105v-294q0 -128 47 -187t173 -59v-140zM140 564v169h176v-169h-176z" />
    <glyph glyph-name="bar" unicode="|" horiz-adv-x="655" 
d="M400 1970v-2450h-145v2450h145z" />
    <glyph glyph-name="braceright" unicode="}" horiz-adv-x="850" 
d="M711 637q-117 0 -190 19t-113.5 53.5t-55.5 81.5t-15 106v295q0 127 -46.5 186t-173.5 59v141q104 0 175.5 -22.5t115.5 -69.5t64 -119.5t20 -172.5v-243q0 -119 48 -169t171 -50v-95zM117 -282v140q127 0 173.5 59t46.5 187v294q0 57 15 105t55.5 83t113.5 54t190 19
v-95q-123 0 -171 -51t-48 -169v-242q0 -100 -20 -173t-64 -119.5t-115.5 -69t-175.5 -22.5zM711 564h-177v169l177 -1v-168z" />
    <glyph glyph-name="asciitilde" unicode="~" horiz-adv-x="1336" 
d="M163 444q-1 118 40 190t107.5 105t139.5 33q75 0 135.5 -31t137.5 -99q53 -44 85.5 -63.5t72.5 -19.5q63 0 100.5 45t38.5 131l153 -1q1 -117 -40.5 -189t-107.5 -105t-139 -33q-74 0 -135 32t-136 96q-53 46 -85.5 65t-73.5 19q-60 0 -100 -41.5t-40 -134.5z" />
    <glyph glyph-name="uni00A0" unicode="&#xa0;" horiz-adv-x="562" 
 />
    <glyph glyph-name="exclamdown" unicode="&#xa1;" horiz-adv-x="561" 
d="M331 462l11 -641h-123l12 641h100zM280 1129q53 0 90 -37t37 -90q0 -52 -37 -89.5t-90 -37.5q-52 0 -89.5 37.5t-37.5 89.5q0 53 37.5 90t89.5 37z" />
    <glyph glyph-name="cent" unicode="&#xa2;" horiz-adv-x="1145" 
d="M533 0v1490h117v-1490h-117zM601 172q-149 0 -262 72t-176.5 200.5t-63.5 298.5q0 171 63.5 300.5t176.5 201.5t262 72q84 0 156.5 -23t130.5 -65t99 -100t60 -128l-162 -37q-11 42 -35.5 78.5t-60 64.5t-83 44t-105.5 16q-110 0 -184 -58t-111 -153.5t-37 -212.5
q0 -116 37 -211.5t111 -152.5t184 -57q59 0 107 16t84 45t60.5 67t36.5 82l161 -38q-18 -71 -59 -129.5t-100 -102t-132.5 -67t-157.5 -23.5z" />
    <glyph glyph-name="sterling" unicode="&#xa3;" horiz-adv-x="1236" 
d="M106 109v47q88 0 129 51.5t37 153.5l-23 690q-5 132 49.5 235.5t156.5 163.5t242 60q116 0 208 -48t150 -134.5t71 -202.5l-162 -21q-15 115 -84 182.5t-182 67.5q-96 0 -160 -39t-95 -106t-28 -153l24 -689q2 -66 -21 -112t-61.5 -75t-84 -44t-89.5 -21t-77 -6zM105 0
v156h773q50 0 70.5 21t20.5 69v61h158v-47q0 -130 -61.5 -195t-192.5 -65h-768zM105 674v141h798v-141h-798z" />
    <glyph glyph-name="currency" unicode="&#xa4;" horiz-adv-x="1462" 
d="M727 -20q-123 0 -231 48t-189.5 133.5t-127 199.5t-45.5 247t45.5 247t127 199t189.5 132.5t231 47.5t231.5 -47.5t190 -132.5t128 -199t46.5 -247t-46.5 -247.5t-128 -200t-190 -133t-231.5 -47.5zM727 132q123 0 222.5 64.5t158 173t58.5 238.5q0 132 -58.5 240
t-158 172t-222.5 64q-121 0 -221.5 -64t-160 -172t-59.5 -240q0 -130 59.5 -238.5t160 -173t221.5 -64.5zM1150 932l-110 116l198 204l114 -116zM1238 -14l-198 204l110 115l202 -202zM222 -14l-110 117l198 202l114 -115zM310 932l-198 204l110 116l202 -204z" />
    <glyph glyph-name="yen" unicode="&#xa5;" horiz-adv-x="1107" 
d="M219 1490l383 -827l-135 -59l-443 886h195zM505 663l384 827h195l-442 -886zM642 775v-775h-176v775h176zM968 737v-128h-830v128h830zM968 458v-127h-830v127h830z" />
    <glyph glyph-name="brokenbar" unicode="&#xa6;" horiz-adv-x="524" 
d="M183 401h157v-681h-157v681zM340 1490v-678h-157v678h157z" />
    <glyph glyph-name="section" unicode="&#xa7;" horiz-adv-x="1115" 
d="M919 1142h-162q-2 94 -51 155.5t-151 61.5q-66 0 -109 -24.5t-64.5 -62t-21.5 -77.5q0 -45 25.5 -83t63.5 -68t74 -52l268 -156q31 -18 70.5 -46.5t75.5 -68.5t58 -94t19 -125q-2 -53 -31 -103.5t-75 -88.5t-101 -54v-2q58 -48 85 -108t27 -132q0 -108 -52 -177.5
t-137 -104t-183 -34.5q-114 0 -203 45t-140 128.5t-52 197.5h164q1 -105 65.5 -162.5t165.5 -57.5q83 0 146 41t63 124q0 54 -23.5 90.5t-61 63t-77.5 49.5l-269 154q-42 25 -82 55.5t-72.5 70t-51.5 89.5t-19 111q0 55 27 108.5t73.5 94.5t105.5 55v6q-48 47 -78 104.5
t-30 129.5q0 91 46 162t126.5 112t184.5 41q111 0 192 -47t126 -130t46 -191zM859 512q0 43 -21 79t-55 65.5t-73 51.5l-273 156q-35 16 -77 -0.5t-72 -58.5t-33 -102q-2 -73 44 -120t109 -84l257 -147q36 -17 81 0.5t79 59.5t34 100z" />
    <glyph glyph-name="dieresis" unicode="&#xa8;" horiz-adv-x="1191" 
d="M804 1299q-46 0 -79 33t-33 80q0 46 33 78.5t79 32.5t79 -32.5t33 -78.5q0 -47 -33 -80t-79 -33zM386 1299q-47 0 -80 33t-33 80q0 46 33 78.5t80 32.5q46 0 78.5 -32.5t32.5 -78.5q0 -47 -32.5 -80t-78.5 -33z" />
    <glyph glyph-name="copyright" unicode="&#xa9;" horiz-adv-x="1860" 
d="M506 744q0 120 58 218t156.5 156t217.5 58q103 0 189 -43.5t143 -117.5t72 -169h-165q-17 75 -85 123.5t-154 48.5q-74 0 -136.5 -37t-100 -99t-37.5 -138q0 -75 37.5 -136.5t100 -98.5t136.5 -37q86 0 146.5 48t77.5 124h166q-14 -95 -68 -170t-136.5 -118.5
t-185.5 -43.5q-119 0 -217.5 58.5t-156.5 156.5t-58 217zM929 -24q-158 0 -297 60t-245 165.5t-166 244.5t-60 298t60 298.5t166 245t245 165t297 59.5q160 0 299 -59.5t244.5 -165t165 -245t59.5 -298.5t-59.5 -298t-165 -244.5t-244.5 -165.5t-299 -60zM929 140
q127 0 237 46.5t193 129.5t130 193t47 235q0 126 -47 236t-130.5 193.5t-193.5 130t-236 46.5q-124 0 -233.5 -47t-193 -130t-130.5 -193.5t-47 -235.5q-1 -124 46 -234t130.5 -193t193 -130t234.5 -47z" />
    <glyph glyph-name="ordfeminine" unicode="&#xaa;" horiz-adv-x="892" 
d="M574 862v340q0 67 -30 101.5t-92 34.5q-69 0 -107.5 -27t-38.5 -80l-162 15q1 101 84.5 166.5t223.5 65.5q130 0 208 -69.5t78 -206.5v-314q0 -49 5.5 -93.5t19.5 -88.5h-165q-11 35 -17.5 75.5t-6.5 80.5zM615 1150v-110h-148q-89 0 -131 -34t-42 -82q0 -45 29 -69.5
t91 -24.5q41 0 83 17.5t71 44t32 52.5l18 -111q-26 -49 -84.5 -95t-159.5 -46q-118 0 -182.5 62t-64.5 165q0 111 85 171t255 60h148z" />
    <glyph glyph-name="guillemotleft" unicode="&#xab;" horiz-adv-x="1145" 
d="M487 144l-395 466l395 466h192l-388 -466l388 -466h-192zM879 144l-395 466l395 466h192l-388 -466l388 -466h-192z" />
    <glyph glyph-name="logicalnot" unicode="&#xac;" horiz-adv-x="1087" 
d="M962 806v-162h-835v162h835zM962 733v-357h-190v357h190z" />
    <glyph glyph-name="uni00AD" unicode="&#xad;" horiz-adv-x="925" 
d="M785 708v-155h-645v155h645z" />
    <glyph glyph-name="registered" unicode="&#xae;" horiz-adv-x="1360" 
d="M476 666v536h269q35 0 74 -18.5t66 -56t27 -94.5q0 -58 -28 -99t-68 -62t-79 -21h-196v85h163q28 0 56 24t28 73t-28.5 67.5t-53.5 18.5h-116v-453h-114zM801 919l133 -253h-125l-131 253h123zM679 346q-120 0 -225.5 45.5t-185.5 125.5t-125.5 185.5t-45.5 225.5
t45.5 225.5t125.5 185.5t185.5 125.5t225.5 45.5q121 0 226.5 -45.5t185.5 -125.5t125 -185.5t45 -225.5t-45 -225.5t-125 -185.5t-185.5 -125.5t-226.5 -45.5zM679 479q125 0 226.5 60.5t162 162.5t60.5 226t-60.5 226t-162 162.5t-226.5 60.5q-123 0 -225.5 -60.5
t-163 -162.5t-60.5 -226t60.5 -226t163 -162.5t225.5 -60.5z" />
    <glyph glyph-name="macron" unicode="&#xaf;" horiz-adv-x="936" 
d="M741 1473v-134h-546v134h546z" />
    <glyph glyph-name="degree" unicode="&#xb0;" horiz-adv-x="919" 
d="M461 836q-92 0 -168 44.5t-121.5 120.5t-45.5 167q0 92 45.5 168t121.5 121.5t168 45.5q91 0 166.5 -45.5t120.5 -121.5t45 -168q0 -91 -45 -167t-120.5 -120.5t-166.5 -44.5zM461 977q53 0 96 25.5t69 69t26 96.5q0 54 -26 97.5t-69 69.5t-96 26q-54 0 -98 -26
t-70 -69.5t-26 -97.5q0 -53 26 -96.5t70 -69t98 -25.5z" />
    <glyph glyph-name="plusminus" unicode="&#xb1;" horiz-adv-x="1336" 
d="M201 75v157h935v-157h-935zM201 661v157h935v-157h-935zM590 360v760h158v-760h-158z" />
    <glyph glyph-name="two.sups" unicode="&#xb2;" horiz-adv-x="850" 
d="M98 744v110l339 304q79 71 117 120t38 106q0 66 -50.5 105t-126.5 39q-79 0 -127 -42.5t-48 -110.5h-147q0 123 91 199t233 76q96 0 168.5 -34.5t113 -94.5t40.5 -135q0 -58 -23.5 -108.5t-73.5 -105t-132 -126.5l-194 -172v-6h450v-124h-668z" />
    <glyph glyph-name="three.sups" unicode="&#xb3;" horiz-adv-x="869" 
d="M433 734q-98 0 -177 33t-125 91.5t-47 134.5h154q2 -61 58 -97t137 -36q87 0 142.5 40t55.5 103q0 62 -59.5 102.5t-159.5 40.5h-71v113h71q82 0 137.5 37t55.5 99q0 58 -47 95.5t-123 37.5q-75 0 -129 -37t-57 -100h-145q2 78 46 136t118.5 90.5t166.5 32.5
q94 0 166 -32t112 -88t40 -127q0 -79 -53 -129t-132 -64v-6q104 -15 162.5 -72.5t58.5 -139.5q0 -74 -46 -132.5t-126 -92t-184 -33.5z" />
    <glyph glyph-name="acute" unicode="&#xb4;" horiz-adv-x="622" 
d="M154 1251l141 294h187l-190 -294h-138z" />
    <glyph glyph-name="uni00B5" unicode="&#xb5;" horiz-adv-x="1186" 
d="M155 -418v1524h167v-672q0 -104 37 -171t99.5 -99t140.5 -32t139 32.5t96.5 99t35.5 170.5v672h167v-858q0 -58 24.5 -80.5t86.5 -22.5h28v-145h-34q-135 0 -202 62.5t-67 183.5v107h42q0 -111 -31.5 -182.5t-81 -112.5t-104 -57.5t-100.5 -16.5q-47 0 -101.5 16.5
t-103 57.5t-80 112.5t-31.5 182.5h40v-771h-167z" />
    <glyph glyph-name="paragraph" unicode="&#xb6;" horiz-adv-x="1209" 
d="M1022 1335h-342v-783h-84q-159 0 -269 61t-167 167.5t-57 241.5q0 134 57 239.5t167 167t269 61.5h426v-155zM857 0v1490h174v-1490h-174z" />
    <glyph glyph-name="periodcentered" unicode="&#xb7;" horiz-adv-x="559" 
d="M279 581q-52 0 -89 37t-37 89q0 53 37 89.5t89 36.5q53 0 89.5 -36.5t36.5 -89.5q0 -52 -36.5 -89t-89.5 -37z" />
    <glyph glyph-name="cedilla" unicode="&#xb8;" horiz-adv-x="524" 
d="M147 -418v100h116q55 0 78.5 16t23.5 54q0 37 -23.5 53t-78.5 16h-80l31 225h90v-46l-2 -87q95 -4 142 -44t47 -118q0 -87 -56.5 -128t-170.5 -41h-117z" />
    <glyph glyph-name="one.sups" unicode="&#xb9;" horiz-adv-x="624" 
d="M310 744v743h-7l-227 -152v148l233 155h147v-894h-146z" />
    <glyph glyph-name="ordmasculine" unicode="&#xba;" horiz-adv-x="898" 
d="M105 1044v79q0 104 41.5 184.5t119.5 125.5t183 45q160 0 252 -100t92 -255v-79q0 -155 -91.5 -253.5t-250.5 -98.5q-162 0 -254.5 98.5t-91.5 253.5zM268 1123v-79q0 -93 46 -153.5t137 -60.5q89 0 133.5 60.5t44.5 153.5v79q-1 93 -45.5 154.5t-134.5 61.5
q-89 0 -135 -62t-46 -154z" />
    <glyph glyph-name="guillemotright" unicode="&#xbb;" horiz-adv-x="1145" 
d="M74 144l388 466l-388 466h192l395 -466l-395 -466h-192zM466 144l388 466l-388 466h192l395 -466l-395 -466h-192z" />
    <glyph glyph-name="onequarter" unicode="&#xbc;" horiz-adv-x="1527" 
d="M319 698v640h-8l-195 -129v147l202 134h147v-792h-146zM179 0l1023 1490h161l-1024 -1490h-160zM796 144v116l383 532h100v-161h-62l-268 -365v-4h523v-118h-676zM1221 0v181l2 50v561h138v-792h-140z" />
    <glyph glyph-name="onehalf" unicode="&#xbd;" horiz-adv-x="1699" 
d="M319 698v640h-8l-195 -129v147l202 134h147v-792h-146zM179 0l1023 1490h161l-1024 -1490h-160zM987 0v106l309 264q73 62 104.5 103t31.5 87q0 58 -44.5 93t-111.5 35t-112 -37t-45 -97h-140q0 111 83 179.5t216 68.5q134 0 214 -68.5t80 -169.5q0 -52 -21 -97
t-66.5 -94t-121.5 -112l-164 -138v-5h402v-118h-614z" />
    <glyph glyph-name="threequarters" unicode="&#xbe;" horiz-adv-x="1658" 
d="M402 686q-137 0 -228.5 67.5t-91.5 171.5h148q0 -51 49.5 -84.5t121.5 -33.5q75 0 122.5 35.5t47.5 86.5q0 54 -52 87.5t-138 33.5h-62v103h62q74 0 122.5 32.5t48.5 83.5q0 50 -41.5 83.5t-108.5 33.5t-113.5 -33.5t-46.5 -84.5h-142q1 68 40.5 120.5t107.5 82t154 29.5
q129 0 211.5 -62t82.5 -158q0 -66 -47.5 -111.5t-126.5 -56.5v-6q99 -13 151 -64.5t52 -122.5q0 -67 -41.5 -119.5t-114 -83t-167.5 -30.5zM310 0l1023 1490h161l-1024 -1490h-160zM927 144v116l383 532h100v-161h-62l-268 -365v-4h523v-118h-676zM1352 0v181l2 50v561h138
v-792h-140z" />
    <glyph glyph-name="questiondown" unicode="&#xbf;" horiz-adv-x="1045" 
d="M652 660v-31q0 -125 -26.5 -195.5t-76.5 -113t-119 -86.5q-73 -47 -116 -109.5t-43 -144.5q0 -72 33.5 -124.5t92 -81.5t130.5 -29q69 0 127 28t95 85.5t41 143.5h176q-4 -126 -62.5 -217.5t-156.5 -140.5t-220 -49q-127 0 -223.5 50.5t-149.5 138.5t-53 201
q0 116 53 202t153 150q65 42 104 78t56 86t17 131v28h168zM566 1119q53 0 90 -36.5t37 -88.5q0 -53 -37 -90t-90 -37q-52 0 -88.5 37t-36.5 90q0 52 36.5 88.5t88.5 36.5z" />
    <glyph glyph-name="Agrave" unicode="&#xc0;" horiz-adv-x="1389" 
d="M47 0l544 1490h204l548 -1490h-186l-325 909q-30 83 -67.5 200.5t-91.5 297.5h38q-53 -181 -91.5 -300t-66.5 -198l-320 -909h-186zM316 423v155h757v-155h-757zM629 1635l-190 294h188l140 -294h-138z" />
    <glyph glyph-name="Aacute" unicode="&#xc1;" horiz-adv-x="1389" 
d="M47 0l544 1490h204l548 -1490h-186l-325 909q-30 83 -67.5 200.5t-91.5 297.5h38q-53 -181 -91.5 -300t-66.5 -198l-320 -909h-186zM316 423v155h757v-155h-757zM621 1635l141 294h187l-190 -294h-138z" />
    <glyph glyph-name="Acircumflex" unicode="&#xc2;" horiz-adv-x="1389" 
d="M47 0l544 1490h204l548 -1490h-186l-325 909q-30 83 -67.5 200.5t-91.5 297.5h38q-53 -181 -91.5 -300t-66.5 -198l-320 -909h-186zM316 423v155h757v-155h-757zM545 1654h-165v7l236 268h157l238 -268v-7h-167l-149 179z" />
    <glyph glyph-name="Atilde" unicode="&#xc3;" horiz-adv-x="1389" 
d="M47 0l544 1490h204l548 -1490h-186l-325 909q-30 83 -67.5 200.5t-91.5 297.5h38q-53 -181 -91.5 -300t-66.5 -198l-320 -909h-186zM316 423v155h757v-155h-757zM826 1689q-37 0 -72 12.5t-66 29.5t-57.5 30t-47.5 13q-28 0 -41.5 -25.5t-16.5 -55.5h-118
q3 88 42.5 145.5t117.5 57.5q40 0 73 -13.5t61.5 -30.5t55 -30.5t51.5 -13.5q27 0 41 19.5t20 63.5h116q-4 -92 -45.5 -147t-113.5 -55z" />
    <glyph glyph-name="Adieresis" unicode="&#xc4;" horiz-adv-x="1389" 
d="M47 0l544 1490h204l548 -1490h-186l-325 909q-30 83 -67.5 200.5t-91.5 297.5h38q-53 -181 -91.5 -300t-66.5 -198l-320 -909h-186zM316 423v155h757v-155h-757zM903 1683q-46 0 -79 33t-33 80q0 46 33 78.5t79 32.5t79 -32.5t33 -78.5q0 -47 -33 -80t-79 -33zM485 1683
q-47 0 -80 33t-33 80q0 46 33 78.5t80 32.5q46 0 78.5 -32.5t32.5 -78.5q0 -47 -32.5 -80t-78.5 -33z" />
    <glyph glyph-name="Aring" unicode="&#xc5;" horiz-adv-x="1389" 
d="M47 0l544 1490h204l548 -1490h-186l-325 909q-30 83 -67.5 200.5t-91.5 297.5h38q-53 -181 -91.5 -300t-66.5 -198l-320 -909h-186zM316 423v155h757v-155h-757zM695 1556q-69 0 -126 32.5t-91 87t-34 120.5q0 67 34 121t91 86t126 32q70 0 127 -32t90.5 -86t33.5 -121
q0 -66 -33.5 -120.5t-90.5 -87t-127 -32.5zM695 1674q51 0 86.5 35.5t35.5 86.5t-35 86.5t-87 35.5q-50 0 -86 -35.5t-36 -86.5t36 -86.5t86 -35.5z" />
    <glyph glyph-name="AE" unicode="&#xc6;" horiz-adv-x="2017" 
d="M47 0l712 1490h1126v-156h-732v-509h684v-156h-684v-513h742v-156h-912v1367h-106l-638 -1367h-192zM383 429v149h684v-149h-684z" />
    <glyph glyph-name="Ccedilla" unicode="&#xc7;" horiz-adv-x="1490" 
d="M780 -21q-193 0 -343 94t-235 266t-85 405q0 234 85 406t235 266.5t343 94.5q115 0 216 -34.5t180.5 -99.5t132 -155.5t72.5 -202.5h-177q-17 78 -55.5 138.5t-95 103t-126 64.5t-147.5 22q-140 0 -251 -71t-175 -205.5t-64 -326.5q0 -191 64.5 -325.5t175.5 -205
t250 -70.5q78 0 147.5 22.5t126 64.5t95 103t55.5 138h177q-19 -112 -72 -202t-132.5 -155t-180 -100t-216.5 -35zM666 -426v100h116q55 0 78.5 16t23.5 54q0 37 -23.5 53t-78.5 16h-80l31 225h90v-46l-2 -87q95 -4 142 -44t47 -118q0 -87 -56.5 -128t-170.5 -41h-117z" />
    <glyph glyph-name="Egrave" unicode="&#xc8;" horiz-adv-x="1219" 
d="M178 0v1490h911v-156h-735v-502h684v-157h-684v-519h743v-156h-919zM571 1635l-190 294h188l140 -294h-138z" />
    <glyph glyph-name="Eacute" unicode="&#xc9;" horiz-adv-x="1219" 
d="M178 0v1490h911v-156h-735v-502h684v-157h-684v-519h743v-156h-919zM564 1635l141 294h187l-190 -294h-138z" />
    <glyph glyph-name="Ecircumflex" unicode="&#xca;" horiz-adv-x="1219" 
d="M178 0v1490h911v-156h-735v-502h684v-157h-684v-519h743v-156h-919zM487 1654h-165v7l236 268h157l238 -268v-7h-167l-149 179z" />
    <glyph glyph-name="Edieresis" unicode="&#xcb;" horiz-adv-x="1219" 
d="M178 0v1490h911v-156h-735v-502h684v-157h-684v-519h743v-156h-919zM846 1683q-46 0 -79 33t-33 80q0 46 33 78.5t79 32.5t79 -32.5t33 -78.5q0 -47 -33 -80t-79 -33zM428 1683q-47 0 -80 33t-33 80q0 46 33 78.5t80 32.5q46 0 78.5 -32.5t32.5 -78.5q0 -47 -32.5 -80
t-78.5 -33z" />
    <glyph glyph-name="Igrave" unicode="&#xcc;" horiz-adv-x="531" 
d="M354 1490v-1490h-176v1490h176zM200 1635l-190 294h188l140 -294h-138z" />
    <glyph glyph-name="Iacute" unicode="&#xcd;" horiz-adv-x="531" 
d="M354 1490v-1490h-176v1490h176zM192 1635l141 294h187l-190 -294h-138z" />
    <glyph glyph-name="Icircumflex" unicode="&#xce;" horiz-adv-x="531" 
d="M354 1490v-1490h-176v1490h176zM115 1654h-165v7l236 268h157l238 -268v-7h-167l-149 179z" />
    <glyph glyph-name="Idieresis" unicode="&#xcf;" horiz-adv-x="531" 
d="M354 1490v-1490h-176v1490h176zM474 1683q-46 0 -79 33t-33 80q0 46 33 78.5t79 32.5t79 -32.5t33 -78.5q0 -47 -33 -80t-79 -33zM56 1683q-47 0 -80 33t-33 80q0 46 33 78.5t80 32.5q46 0 78.5 -32.5t32.5 -78.5q0 -47 -32.5 -80t-78.5 -33z" />
    <glyph glyph-name="Eth" unicode="&#xd0;" horiz-adv-x="1495" 
d="M668 0h-360v156h349q185 0 307 71t182.5 204t60.5 317q0 183 -60 314t-177 201.5t-293 70.5h-376v156h388q217 0 371 -89t236 -255.5t82 -397.5q0 -233 -83 -400.5t-241.5 -257.5t-385.5 -90zM387 1490v-1490h-176v1490h176zM19 672v146h804v-146h-804z" />
    <glyph glyph-name="Ntilde" unicode="&#xd1;" horiz-adv-x="1528" 
d="M178 0v1490h205l626 -971q24 -37 58 -93.5t72.5 -125t74.5 -144.5l-24 -6q-7 77 -10.5 152t-4.5 139t-1 108v941h176v-1490h-207l-565 874q-34 54 -71.5 115.5t-85 143.5t-113.5 197l31 9q4 -107 7.5 -197t5.5 -158t2 -108v-876h-176zM895 1689q-37 0 -72 12.5t-66 29.5
t-57.5 30t-47.5 13q-28 0 -41.5 -25.5t-16.5 -55.5h-118q3 88 42.5 145.5t117.5 57.5q40 0 73 -13.5t61.5 -30.5t55 -30.5t51.5 -13.5q27 0 41 19.5t20 63.5h116q-4 -92 -45.5 -147t-113.5 -55z" />
    <glyph glyph-name="Ograve" unicode="&#xd2;" horiz-adv-x="1555" 
d="M778 -21q-191 0 -340.5 94t-235 266t-85.5 405q0 234 85.5 406t235 266.5t340.5 94.5q192 0 341 -94.5t234 -266.5t85 -406q0 -233 -85 -405t-234 -266t-341 -94zM778 143q137 0 247 70t175 204.5t65 326.5q0 194 -65 328.5t-175 204.5t-247 70t-247.5 -70t-175.5 -204.5
t-65 -328.5q0 -192 65 -326.5t175.5 -204.5t247.5 -70zM712 1635l-190 294h188l140 -294h-138z" />
    <glyph glyph-name="Oacute" unicode="&#xd3;" horiz-adv-x="1555" 
d="M778 -21q-191 0 -340.5 94t-235 266t-85.5 405q0 234 85.5 406t235 266.5t340.5 94.5q192 0 341 -94.5t234 -266.5t85 -406q0 -233 -85 -405t-234 -266t-341 -94zM778 143q137 0 247 70t175 204.5t65 326.5q0 194 -65 328.5t-175 204.5t-247 70t-247.5 -70t-175.5 -204.5
t-65 -328.5q0 -192 65 -326.5t175.5 -204.5t247.5 -70zM705 1635l141 294h187l-190 -294h-138z" />
    <glyph glyph-name="Ocircumflex" unicode="&#xd4;" horiz-adv-x="1555" 
d="M778 -21q-191 0 -340.5 94t-235 266t-85.5 405q0 234 85.5 406t235 266.5t340.5 94.5q192 0 341 -94.5t234 -266.5t85 -406q0 -233 -85 -405t-234 -266t-341 -94zM778 143q137 0 247 70t175 204.5t65 326.5q0 194 -65 328.5t-175 204.5t-247 70t-247.5 -70t-175.5 -204.5
t-65 -328.5q0 -192 65 -326.5t175.5 -204.5t247.5 -70zM628 1654h-165v7l236 268h157l238 -268v-7h-167l-149 179z" />
    <glyph glyph-name="Otilde" unicode="&#xd5;" horiz-adv-x="1555" 
d="M778 -21q-191 0 -340.5 94t-235 266t-85.5 405q0 234 85.5 406t235 266.5t340.5 94.5q192 0 341 -94.5t234 -266.5t85 -406q0 -233 -85 -405t-234 -266t-341 -94zM778 143q137 0 247 70t175 204.5t65 326.5q0 194 -65 328.5t-175 204.5t-247 70t-247.5 -70t-175.5 -204.5
t-65 -328.5q0 -192 65 -326.5t175.5 -204.5t247.5 -70zM909 1689q-37 0 -72 12.5t-66 29.5t-57.5 30t-47.5 13q-28 0 -41.5 -25.5t-16.5 -55.5h-118q3 88 42.5 145.5t117.5 57.5q40 0 73 -13.5t61.5 -30.5t55 -30.5t51.5 -13.5q27 0 41 19.5t20 63.5h116q-4 -92 -45.5 -147
t-113.5 -55z" />
    <glyph glyph-name="Odieresis" unicode="&#xd6;" horiz-adv-x="1555" 
d="M778 -21q-191 0 -340.5 94t-235 266t-85.5 405q0 234 85.5 406t235 266.5t340.5 94.5q192 0 341 -94.5t234 -266.5t85 -406q0 -233 -85 -405t-234 -266t-341 -94zM778 143q137 0 247 70t175 204.5t65 326.5q0 194 -65 328.5t-175 204.5t-247 70t-247.5 -70t-175.5 -204.5
t-65 -328.5q0 -192 65 -326.5t175.5 -204.5t247.5 -70zM987 1683q-46 0 -79 33t-33 80q0 46 33 78.5t79 32.5t79 -32.5t33 -78.5q0 -47 -33 -80t-79 -33zM569 1683q-47 0 -80 33t-33 80q0 46 33 78.5t80 32.5q46 0 78.5 -32.5t32.5 -78.5q0 -47 -32.5 -80t-78.5 -33z" />
    <glyph glyph-name="multiply" unicode="&#xd7;" horiz-adv-x="1336" 
d="M1028 116l-824 823l109 110l822 -825zM313 116l-109 108l824 825l107 -110z" />
    <glyph glyph-name="Oslash" unicode="&#xd8;" horiz-adv-x="1555" 
d="M778 -21q-191 0 -340.5 94t-235 266t-85.5 405q0 234 85.5 406t235 266.5t340.5 94.5q192 0 341 -94.5t234 -266.5t85 -406q0 -233 -85 -405t-234 -266t-341 -94zM778 143q137 0 247 70t175 204.5t65 326.5q0 194 -65 328.5t-175 204.5t-247 70t-247.5 -70t-175.5 -204.5
t-65 -328.5q0 -192 65 -326.5t175.5 -204.5t247.5 -70zM304 -45l-122 88l1070 1492l123 -88z" />
    <glyph glyph-name="Ugrave" unicode="&#xd9;" horiz-adv-x="1503" 
d="M752 -24q-174 0 -304.5 69t-202.5 189t-72 273v983h177v-970q0 -110 49 -195.5t139 -135t214 -49.5t214 49.5t138.5 135t48.5 195.5v970h176v-983q0 -153 -72 -273t-201.5 -189t-303.5 -69zM686 1635l-190 294h188l140 -294h-138z" />
    <glyph glyph-name="Uacute" unicode="&#xda;" horiz-adv-x="1503" 
d="M752 -24q-174 0 -304.5 69t-202.5 189t-72 273v983h177v-970q0 -110 49 -195.5t139 -135t214 -49.5t214 49.5t138.5 135t48.5 195.5v970h176v-983q0 -153 -72 -273t-201.5 -189t-303.5 -69zM678 1635l141 294h187l-190 -294h-138z" />
    <glyph glyph-name="Ucircumflex" unicode="&#xdb;" horiz-adv-x="1503" 
d="M752 -24q-174 0 -304.5 69t-202.5 189t-72 273v983h177v-970q0 -110 49 -195.5t139 -135t214 -49.5t214 49.5t138.5 135t48.5 195.5v970h176v-983q0 -153 -72 -273t-201.5 -189t-303.5 -69zM602 1654h-165v7l236 268h157l238 -268v-7h-167l-149 179z" />
    <glyph glyph-name="Udieresis" unicode="&#xdc;" horiz-adv-x="1503" 
d="M752 -24q-174 0 -304.5 69t-202.5 189t-72 273v983h177v-970q0 -110 49 -195.5t139 -135t214 -49.5t214 49.5t138.5 135t48.5 195.5v970h176v-983q0 -153 -72 -273t-201.5 -189t-303.5 -69zM960 1683q-46 0 -79 33t-33 80q0 46 33 78.5t79 32.5t79 -32.5t33 -78.5
q0 -47 -33 -80t-79 -33zM542 1683q-47 0 -80 33t-33 80q0 46 33 78.5t80 32.5q46 0 78.5 -32.5t32.5 -78.5q0 -47 -32.5 -80t-78.5 -33z" />
    <glyph glyph-name="Yacute" unicode="&#xdd;" horiz-adv-x="1369" 
d="M596 0v619l-549 871h204l301 -483q49 -78 88.5 -150t81.5 -173h-72q42 102 82 175t87 148l300 483h203l-549 -871v-619h-177zM611 1635l141 294h187l-190 -294h-138z" />
    <glyph glyph-name="Thorn" unicode="&#xde;" horiz-adv-x="1279" 
d="M165 1490h178v-1490h-178v1490zM249 1180l384 -1q157 0 266 -57.5t166 -153.5t57 -214q0 -119 -57 -215.5t-165.5 -153.5t-266.5 -57h-384v155h384q104 0 176 32t109 91.5t37 143.5q0 85 -37 146.5t-109 94.5t-176 33h-384v156z" />
    <glyph glyph-name="germandbls" unicode="&#xdf;" horiz-adv-x="1238" 
d="M178 0v1111q0 124 54 213.5t151 137.5t223 48q125 0 222.5 -46.5t154 -132t56.5 -204.5q0 -126 -64.5 -214t-173.5 -125v-14q146 -14 235.5 -113t89.5 -253q0 -118 -54 -210.5t-152 -145t-230 -52.5h-159v156h160q121 0 193.5 71t72.5 182q0 118 -81 193.5t-219 75.5
h-120v158h85q77 0 132.5 37.5t85.5 98t30 130.5q0 107 -69.5 179.5t-189.5 72.5q-116 0 -190.5 -68t-74.5 -177v-1109h-168z" />
    <glyph glyph-name="agrave" unicode="&#xe0;" horiz-adv-x="1126" 
d="M465 -24q-105 0 -190 39t-135.5 114.5t-50.5 184.5q0 92 36 150.5t97.5 93t138.5 52.5t160 28q98 13 161 20.5t93 25t30 58.5v11q0 69 -27.5 118t-81 76t-132.5 27t-137 -25t-94 -64.5t-51 -82.5l-163 43q35 99 103 159.5t156.5 88.5t181.5 28q65 0 137 -16.5t134.5 -58
t101.5 -116t39 -190.5v-740h-165v158h-10q-20 -42 -62 -84t-109 -70t-161 -28zM492 124q101 0 171 40.5t106 105.5t36 139v152q-11 -13 -45.5 -23t-79.5 -18t-89.5 -14t-75.5 -10q-72 -8 -130.5 -29t-92.5 -59.5t-34 -102.5q0 -58 30 -98.5t83 -61.5t121 -21zM482 1251
l-190 294h188l140 -294h-138z" />
    <glyph glyph-name="aacute" unicode="&#xe1;" horiz-adv-x="1126" 
d="M465 -24q-105 0 -190 39t-135.5 114.5t-50.5 184.5q0 92 36 150.5t97.5 93t138.5 52.5t160 28q98 13 161 20.5t93 25t30 58.5v11q0 69 -27.5 118t-81 76t-132.5 27t-137 -25t-94 -64.5t-51 -82.5l-163 43q35 99 103 159.5t156.5 88.5t181.5 28q65 0 137 -16.5t134.5 -58
t101.5 -116t39 -190.5v-740h-165v158h-10q-20 -42 -62 -84t-109 -70t-161 -28zM492 124q101 0 171 40.5t106 105.5t36 139v152q-11 -13 -45.5 -23t-79.5 -18t-89.5 -14t-75.5 -10q-72 -8 -130.5 -29t-92.5 -59.5t-34 -102.5q0 -58 30 -98.5t83 -61.5t121 -21zM475 1251
l141 294h187l-190 -294h-138z" />
    <glyph glyph-name="acircumflex" unicode="&#xe2;" horiz-adv-x="1126" 
d="M465 -24q-105 0 -190 39t-135.5 114.5t-50.5 184.5q0 92 36 150.5t97.5 93t138.5 52.5t160 28q98 13 161 20.5t93 25t30 58.5v11q0 69 -27.5 118t-81 76t-132.5 27t-137 -25t-94 -64.5t-51 -82.5l-163 43q35 99 103 159.5t156.5 88.5t181.5 28q65 0 137 -16.5t134.5 -58
t101.5 -116t39 -190.5v-740h-165v158h-10q-20 -42 -62 -84t-109 -70t-161 -28zM492 124q101 0 171 40.5t106 105.5t36 139v152q-11 -13 -45.5 -23t-79.5 -18t-89.5 -14t-75.5 -10q-72 -8 -130.5 -29t-92.5 -59.5t-34 -102.5q0 -58 30 -98.5t83 -61.5t121 -21zM398 1270h-165
v7l236 268h157l238 -268v-7h-167l-149 179z" />
    <glyph glyph-name="atilde" unicode="&#xe3;" horiz-adv-x="1126" 
d="M465 -24q-105 0 -190 39t-135.5 114.5t-50.5 184.5q0 92 36 150.5t97.5 93t138.5 52.5t160 28q98 13 161 20.5t93 25t30 58.5v11q0 69 -27.5 118t-81 76t-132.5 27t-137 -25t-94 -64.5t-51 -82.5l-163 43q35 99 103 159.5t156.5 88.5t181.5 28q65 0 137 -16.5t134.5 -58
t101.5 -116t39 -190.5v-740h-165v158h-10q-20 -42 -62 -84t-109 -70t-161 -28zM492 124q101 0 171 40.5t106 105.5t36 139v152q-11 -13 -45.5 -23t-79.5 -18t-89.5 -14t-75.5 -10q-72 -8 -130.5 -29t-92.5 -59.5t-34 -102.5q0 -58 30 -98.5t83 -61.5t121 -21zM679 1305
q-37 0 -72 12.5t-66 29.5t-57.5 30t-47.5 13q-28 0 -41.5 -25.5t-16.5 -55.5h-118q3 88 42.5 145.5t117.5 57.5q40 0 73 -13.5t61.5 -30.5t55 -30.5t51.5 -13.5q27 0 41 19.5t20 63.5h116q-4 -92 -45.5 -147t-113.5 -55z" />
    <glyph glyph-name="adieresis" unicode="&#xe4;" horiz-adv-x="1126" 
d="M465 -24q-105 0 -190 39t-135.5 114.5t-50.5 184.5q0 92 36 150.5t97.5 93t138.5 52.5t160 28q98 13 161 20.5t93 25t30 58.5v11q0 69 -27.5 118t-81 76t-132.5 27t-137 -25t-94 -64.5t-51 -82.5l-163 43q35 99 103 159.5t156.5 88.5t181.5 28q65 0 137 -16.5t134.5 -58
t101.5 -116t39 -190.5v-740h-165v158h-10q-20 -42 -62 -84t-109 -70t-161 -28zM492 124q101 0 171 40.5t106 105.5t36 139v152q-11 -13 -45.5 -23t-79.5 -18t-89.5 -14t-75.5 -10q-72 -8 -130.5 -29t-92.5 -59.5t-34 -102.5q0 -58 30 -98.5t83 -61.5t121 -21zM757 1299
q-46 0 -79 33t-33 80q0 46 33 78.5t79 32.5t79 -32.5t33 -78.5q0 -47 -33 -80t-79 -33zM339 1299q-47 0 -80 33t-33 80q0 46 33 78.5t80 32.5q46 0 78.5 -32.5t32.5 -78.5q0 -47 -32.5 -80t-78.5 -33z" />
    <glyph glyph-name="aring" unicode="&#xe5;" horiz-adv-x="1126" 
d="M465 -24q-105 0 -190 39t-135.5 114.5t-50.5 184.5q0 92 36 150.5t97.5 93t138.5 52.5t160 28q98 13 161 20.5t93 25t30 58.5v11q0 69 -27.5 118t-81 76t-132.5 27t-137 -25t-94 -64.5t-51 -82.5l-163 43q35 99 103 159.5t156.5 88.5t181.5 28q65 0 137 -16.5t134.5 -58
t101.5 -116t39 -190.5v-740h-165v158h-10q-20 -42 -62 -84t-109 -70t-161 -28zM492 124q101 0 171 40.5t106 105.5t36 139v152q-11 -13 -45.5 -23t-79.5 -18t-89.5 -14t-75.5 -10q-72 -8 -130.5 -29t-92.5 -59.5t-34 -102.5q0 -58 30 -98.5t83 -61.5t121 -21zM548 1186
q-69 0 -126 32.5t-91 87t-34 121.5t34 121t91 86.5t126 32.5q70 0 127 -32.5t90.5 -86.5t33.5 -121t-33.5 -121.5t-90.5 -87t-127 -32.5zM548 1305q52 0 87.5 36t35.5 86q0 51 -35.5 86.5t-87.5 35.5q-50 0 -86 -35.5t-36 -86.5q0 -50 36 -86t86 -36z" />
    <glyph glyph-name="ae" unicode="&#xe6;" horiz-adv-x="1860" 
d="M470 -24q-108 0 -194.5 40t-136.5 115.5t-50 181.5q0 91 40.5 154t108 101t153 55.5t175.5 17.5h1102l-76 -57q10 111 -25.5 199t-108.5 139t-174 51t-175 -50t-114.5 -132.5t-40.5 -181.5v-88q0 -123 42.5 -211.5t120.5 -136t182 -47.5q72 0 128 21t95.5 61t59.5 96
l163 -35q-25 -85 -86.5 -151t-152.5 -104t-207 -38q-122 0 -218 43t-158 120t-84 178l22 505q35 91 94.5 158.5t142.5 104.5t186 37q94 0 180 -32.5t154 -100t107.5 -173t39.5 -251.5v-66h-1198q-88 0 -157.5 -21t-110.5 -64t-41 -108q0 -89 65.5 -135t168.5 -46
q102 0 171 39.5t104.5 105t35.5 139.5v344q0 68 -27 117.5t-80 76.5t-132 27t-137 -25t-94 -64.5t-51 -82.5l-163 43q35 99 103 159.5t156.5 88.5t181.5 28q79 0 157 -24.5t138 -84t83 -165.5l-30 -617l-18 -1q-16 -55 -55 -101t-95.5 -80t-125.5 -53t-144 -19z" />
    <glyph glyph-name="ccedilla" unicode="&#xe7;" horiz-adv-x="1145" 
d="M601 -23q-149 0 -262 71.5t-176.5 200.5t-63.5 298q0 172 63.5 301.5t176.5 201.5t262 72q84 0 156.5 -23t130.5 -65t99 -100t60 -128l-162 -37q-11 41 -35.5 78t-60 65t-83 44t-105.5 16q-110 0 -184 -58t-111 -154t-37 -213q0 -115 37 -210.5t111 -152.5t184 -57
q59 0 107 16t84 44.5t60.5 67t36.5 81.5l161 -37q-18 -71 -59 -130t-100 -102t-132.5 -66.5t-157.5 -23.5zM492 -418v100h116q55 0 78.5 16t23.5 54q0 37 -23.5 53t-78.5 16h-80l31 225h90v-46l-2 -87q95 -4 142 -44t47 -118q0 -87 -56.5 -128t-170.5 -41h-117z" />
    <glyph glyph-name="egrave" unicode="&#xe8;" horiz-adv-x="1173" 
d="M614 -24q-160 0 -275 72t-177.5 200.5t-62.5 297.5t62 299t173.5 203.5t260.5 73.5q93 0 179.5 -32.5t155 -100t108.5 -173t40 -251.5v-66h-871v142h780l-77 -52q0 112 -36.5 199t-107 136t-171.5 49t-174.5 -50t-113 -132.5t-39.5 -181.5v-88q0 -123 42.5 -212
t120.5 -136t183 -47q71 0 127 21t95.5 61t59.5 96l162 -37q-25 -85 -86.5 -150.5t-152.5 -103t-205 -37.5zM525 1251l-190 294h188l140 -294h-138z" />
    <glyph glyph-name="eacute" unicode="&#xe9;" horiz-adv-x="1173" 
d="M614 -24q-160 0 -275 72t-177.5 200.5t-62.5 297.5t62 299t173.5 203.5t260.5 73.5q93 0 179.5 -32.5t155 -100t108.5 -173t40 -251.5v-66h-871v142h780l-77 -52q0 112 -36.5 199t-107 136t-171.5 49t-174.5 -50t-113 -132.5t-39.5 -181.5v-88q0 -123 42.5 -212
t120.5 -136t183 -47q71 0 127 21t95.5 61t59.5 96l162 -37q-25 -85 -86.5 -150.5t-152.5 -103t-205 -37.5zM518 1251l141 294h187l-190 -294h-138z" />
    <glyph glyph-name="ecircumflex" unicode="&#xea;" horiz-adv-x="1173" 
d="M614 -24q-160 0 -275 72t-177.5 200.5t-62.5 297.5t62 299t173.5 203.5t260.5 73.5q93 0 179.5 -32.5t155 -100t108.5 -173t40 -251.5v-66h-871v142h780l-77 -52q0 112 -36.5 199t-107 136t-171.5 49t-174.5 -50t-113 -132.5t-39.5 -181.5v-88q0 -123 42.5 -212
t120.5 -136t183 -47q71 0 127 21t95.5 61t59.5 96l162 -37q-25 -85 -86.5 -150.5t-152.5 -103t-205 -37.5zM441 1270h-165v7l236 268h157l238 -268v-7h-167l-149 179z" />
    <glyph glyph-name="edieresis" unicode="&#xeb;" horiz-adv-x="1173" 
d="M614 -24q-160 0 -275 72t-177.5 200.5t-62.5 297.5t62 299t173.5 203.5t260.5 73.5q93 0 179.5 -32.5t155 -100t108.5 -173t40 -251.5v-66h-871v142h780l-77 -52q0 112 -36.5 199t-107 136t-171.5 49t-174.5 -50t-113 -132.5t-39.5 -181.5v-88q0 -123 42.5 -212
t120.5 -136t183 -47q71 0 127 21t95.5 61t59.5 96l162 -37q-25 -85 -86.5 -150.5t-152.5 -103t-205 -37.5zM800 1299q-46 0 -79 33t-33 80q0 46 33 78.5t79 32.5t79 -32.5t33 -78.5q0 -47 -33 -80t-79 -33zM382 1299q-47 0 -80 33t-33 80q0 46 33 78.5t80 32.5
q46 0 78.5 -32.5t32.5 -78.5q0 -47 -32.5 -80t-78.5 -33z" />
    <glyph glyph-name="igrave" unicode="&#xec;" horiz-adv-x="476" 
d="M155 0v1106h167v-1106h-167zM173 1251l-190 294h188l140 -294h-138z" />
    <glyph glyph-name="iacute" unicode="&#xed;" horiz-adv-x="476" 
d="M155 0v1106h167v-1106h-167zM165 1251l141 294h187l-190 -294h-138z" />
    <glyph glyph-name="icircumflex" unicode="&#xee;" horiz-adv-x="476" 
d="M155 0v1106h167v-1106h-167zM88 1270h-165v7l236 268h157l238 -268v-7h-167l-149 179z" />
    <glyph glyph-name="idieresis" unicode="&#xef;" horiz-adv-x="476" 
d="M155 0v1106h167v-1106h-167zM447 1299q-46 0 -79 33t-33 80q0 46 33 78.5t79 32.5t79 -32.5t33 -78.5q0 -47 -33 -80t-79 -33zM29 1299q-47 0 -80 33t-33 80q0 46 33 78.5t80 32.5q46 0 78.5 -32.5t32.5 -78.5q0 -47 -32.5 -80t-78.5 -33z" />
    <glyph glyph-name="eth" unicode="&#xf0;" horiz-adv-x="1180" 
d="M961 1419l-599 -289l-45 105l599 288zM591 -24q-149 0 -259.5 69.5t-171.5 190.5t-61 277q0 157 60.5 278t162.5 189t227 68q84 0 147.5 -28.5t107.5 -72.5t70 -90h16q-34 97 -101.5 204.5t-179 212t-280.5 189.5l69 118q126 -63 247.5 -161.5t220 -229.5t156.5 -292.5
t59 -349.5q0 -180 -62 -308t-172 -196t-256 -68zM591 126q106 0 178.5 50.5t110.5 136t38 190.5q0 98 -34.5 191t-106.5 154.5t-186 61.5q-106 0 -178 -55t-108.5 -145t-36.5 -197q0 -101 34 -189.5t106 -143t183 -54.5z" />
    <glyph glyph-name="ntilde" unicode="&#xf1;" horiz-adv-x="1191" 
d="M322 666v-666h-167v1106h161v-266h-28q50 151 145.5 216t221.5 65q112 0 198.5 -46.5t135 -139.5t48.5 -232v-703h-168v689q0 133 -69.5 207t-189.5 74q-82 0 -147.5 -35t-103 -103t-37.5 -166zM726 1305q-37 0 -72 12.5t-66 29.5t-57.5 30t-47.5 13q-28 0 -41.5 -25.5
t-16.5 -55.5h-118q3 88 42.5 145.5t117.5 57.5q40 0 73 -13.5t61.5 -30.5t55 -30.5t51.5 -13.5q27 0 41 19.5t20 63.5h116q-4 -92 -45.5 -147t-113.5 -55z" />
    <glyph glyph-name="ograve" unicode="&#xf2;" horiz-adv-x="1204" 
d="M601 -24q-149 0 -262 72t-176.5 201t-63.5 298q0 172 63.5 301.5t176.5 201.5t262 72q150 0 263.5 -72t176.5 -201.5t63 -301.5q0 -169 -63 -298t-176.5 -201t-263.5 -72zM601 126q111 0 185.5 57.5t111.5 153t37 210.5q0 116 -37 212.5t-111.5 154.5t-185.5 58
q-110 0 -184 -58t-111 -154t-37 -213q0 -115 37 -210.5t111 -153t184 -57.5zM535 1251l-190 294h188l140 -294h-138z" />
    <glyph glyph-name="oacute" unicode="&#xf3;" horiz-adv-x="1204" 
d="M601 -24q-149 0 -262 72t-176.5 201t-63.5 298q0 172 63.5 301.5t176.5 201.5t262 72q150 0 263.5 -72t176.5 -201.5t63 -301.5q0 -169 -63 -298t-176.5 -201t-263.5 -72zM601 126q111 0 185.5 57.5t111.5 153t37 210.5q0 116 -37 212.5t-111.5 154.5t-185.5 58
q-110 0 -184 -58t-111 -154t-37 -213q0 -115 37 -210.5t111 -153t184 -57.5zM527 1251l141 294h187l-190 -294h-138z" />
    <glyph glyph-name="ocircumflex" unicode="&#xf4;" horiz-adv-x="1204" 
d="M601 -24q-149 0 -262 72t-176.5 201t-63.5 298q0 172 63.5 301.5t176.5 201.5t262 72q150 0 263.5 -72t176.5 -201.5t63 -301.5q0 -169 -63 -298t-176.5 -201t-263.5 -72zM601 126q111 0 185.5 57.5t111.5 153t37 210.5q0 116 -37 212.5t-111.5 154.5t-185.5 58
q-110 0 -184 -58t-111 -154t-37 -213q0 -115 37 -210.5t111 -153t184 -57.5zM451 1270h-165v7l236 268h157l238 -268v-7h-167l-149 179z" />
    <glyph glyph-name="otilde" unicode="&#xf5;" horiz-adv-x="1204" 
d="M601 -24q-149 0 -262 72t-176.5 201t-63.5 298q0 172 63.5 301.5t176.5 201.5t262 72q150 0 263.5 -72t176.5 -201.5t63 -301.5q0 -169 -63 -298t-176.5 -201t-263.5 -72zM601 126q111 0 185.5 57.5t111.5 153t37 210.5q0 116 -37 212.5t-111.5 154.5t-185.5 58
q-110 0 -184 -58t-111 -154t-37 -213q0 -115 37 -210.5t111 -153t184 -57.5zM732 1305q-37 0 -72 12.5t-66 29.5t-57.5 30t-47.5 13q-28 0 -41.5 -25.5t-16.5 -55.5h-118q3 88 42.5 145.5t117.5 57.5q40 0 73 -13.5t61.5 -30.5t55 -30.5t51.5 -13.5q27 0 41 19.5t20 63.5
h116q-4 -92 -45.5 -147t-113.5 -55z" />
    <glyph glyph-name="odieresis" unicode="&#xf6;" horiz-adv-x="1204" 
d="M601 -24q-149 0 -262 72t-176.5 201t-63.5 298q0 172 63.5 301.5t176.5 201.5t262 72q150 0 263.5 -72t176.5 -201.5t63 -301.5q0 -169 -63 -298t-176.5 -201t-263.5 -72zM601 126q111 0 185.5 57.5t111.5 153t37 210.5q0 116 -37 212.5t-111.5 154.5t-185.5 58
q-110 0 -184 -58t-111 -154t-37 -213q0 -115 37 -210.5t111 -153t184 -57.5zM809 1299q-46 0 -79 33t-33 80q0 46 33 78.5t79 32.5t79 -32.5t33 -78.5q0 -47 -33 -80t-79 -33zM391 1299q-47 0 -80 33t-33 80q0 46 33 78.5t80 32.5q46 0 78.5 -32.5t32.5 -78.5
q0 -47 -32.5 -80t-78.5 -33z" />
    <glyph glyph-name="divide" unicode="&#xf7;" horiz-adv-x="1336" 
d="M1133 662v-159h-928v159h928zM668 83q-53 0 -89.5 37t-36.5 89q0 51 36.5 87.5t89.5 36.5q51 0 87.5 -36.5t36.5 -87.5q0 -52 -36.5 -89t-87.5 -37zM668 833q-53 -1 -89.5 35.5t-36.5 89.5q0 52 36.5 88.5t89.5 36.5q51 0 87.5 -36.5t36.5 -88.5q0 -53 -36.5 -89.5
t-87.5 -35.5z" />
    <glyph glyph-name="oslash" unicode="&#xf8;" horiz-adv-x="1204" 
d="M601 -24q-149 0 -262 72t-176.5 201t-63.5 298q0 172 63.5 301.5t176.5 201.5t262 72q150 0 263.5 -72t176.5 -201.5t63 -301.5q0 -169 -63 -298t-176.5 -201t-263.5 -72zM601 126q111 0 185.5 57.5t111.5 153t37 210.5q0 116 -37 212.5t-111.5 154.5t-185.5 58
q-110 0 -184 -58t-111 -154t-37 -213q0 -115 37 -210.5t111 -153t184 -57.5zM181 -43l-101 86l943 1105l100 -85z" />
    <glyph glyph-name="ugrave" unicode="&#xf9;" horiz-adv-x="1191" 
d="M536 -15q-112 0 -198 46.5t-134.5 140t-48.5 231.5v703h167v-690q0 -132 70 -206t190 -74q81 0 146 35t103 103t38 166v666h168v-1106h-162v266h27q-50 -152 -146 -216.5t-220 -64.5zM529 1251l-190 294h188l140 -294h-138z" />
    <glyph glyph-name="uacute" unicode="&#xfa;" horiz-adv-x="1191" 
d="M536 -15q-112 0 -198 46.5t-134.5 140t-48.5 231.5v703h167v-690q0 -132 70 -206t190 -74q81 0 146 35t103 103t38 166v666h168v-1106h-162v266h27q-50 -152 -146 -216.5t-220 -64.5zM521 1251l141 294h187l-190 -294h-138z" />
    <glyph glyph-name="ucircumflex" unicode="&#xfb;" horiz-adv-x="1191" 
d="M536 -15q-112 0 -198 46.5t-134.5 140t-48.5 231.5v703h167v-690q0 -132 70 -206t190 -74q81 0 146 35t103 103t38 166v666h168v-1106h-162v266h27q-50 -152 -146 -216.5t-220 -64.5zM445 1270h-165v7l236 268h157l238 -268v-7h-167l-149 179z" />
    <glyph glyph-name="udieresis" unicode="&#xfc;" horiz-adv-x="1191" 
d="M536 -15q-112 0 -198 46.5t-134.5 140t-48.5 231.5v703h167v-690q0 -132 70 -206t190 -74q81 0 146 35t103 103t38 166v666h168v-1106h-162v266h27q-50 -152 -146 -216.5t-220 -64.5zM803 1299q-46 0 -79 33t-33 80q0 46 33 78.5t79 32.5t79 -32.5t33 -78.5
q0 -47 -33 -80t-79 -33zM385 1299q-47 0 -80 33t-33 80q0 46 33 78.5t80 32.5q46 0 78.5 -32.5t32.5 -78.5q0 -47 -32.5 -80t-78.5 -33z" />
    <glyph glyph-name="yacute" unicode="&#xfd;" horiz-adv-x="1127" 
d="M138 -407l35 145l35 -4q52 -12 94 -4t75.5 45t59.5 110l40 111l-425 1110h183l241 -662q36 -97 62.5 -192.5t54.5 -186.5h-58q28 91 55 187t62 192l242 662h181l-492 -1282q-32 -84 -78 -139.5t-106 -82t-135 -26.5q-43 0 -75.5 5.5t-50.5 11.5zM490 1251l141 294h187
l-190 -294h-138z" />
    <glyph glyph-name="thorn" unicode="&#xfe;" horiz-adv-x="1230" 
d="M664 -23q-98 0 -163.5 33.5t-105 80.5t-62.5 89h-11v-598h-167v1908h167v-568h11q22 40 61 86.5t104 79.5t165 33q139 0 244 -70t164.5 -198.5t59.5 -301.5q0 -175 -59 -303.5t-164 -199.5t-244 -71zM639 127q104 0 175.5 55.5t109 151.5t37.5 218q0 121 -37 216
t-109 149t-176 54q-103 0 -175 -52.5t-109 -146.5t-37 -220q0 -125 37.5 -221t109.5 -150t174 -54z" />
    <glyph glyph-name="ydieresis" unicode="&#xff;" horiz-adv-x="1127" 
d="M138 -407l35 145l35 -4q52 -12 94 -4t75.5 45t59.5 110l40 111l-425 1110h183l241 -662q36 -97 62.5 -192.5t54.5 -186.5h-58q28 91 55 187t62 192l242 662h181l-492 -1282q-32 -84 -78 -139.5t-106 -82t-135 -26.5q-43 0 -75.5 5.5t-50.5 11.5zM772 1299q-46 0 -79 33
t-33 80q0 46 33 78.5t79 32.5t79 -32.5t33 -78.5q0 -47 -33 -80t-79 -33zM354 1299q-47 0 -80 33t-33 80q0 46 33 78.5t80 32.5q46 0 78.5 -32.5t32.5 -78.5q0 -47 -32.5 -80t-78.5 -33z" />
    <glyph glyph-name="Amacron" unicode="&#x100;" horiz-adv-x="1389" 
d="M47 0l544 1490h204l548 -1490h-186l-325 909q-30 83 -67.5 200.5t-91.5 297.5h38q-53 -181 -91.5 -300t-66.5 -198l-320 -909h-186zM316 423v155h757v-155h-757zM968 1857v-134h-546v134h546z" />
    <glyph glyph-name="amacron" unicode="&#x101;" horiz-adv-x="1126" 
d="M465 -24q-105 0 -190 39t-135.5 114.5t-50.5 184.5q0 92 36 150.5t97.5 93t138.5 52.5t160 28q98 13 161 20.5t93 25t30 58.5v11q0 69 -27.5 118t-81 76t-132.5 27t-137 -25t-94 -64.5t-51 -82.5l-163 43q35 99 103 159.5t156.5 88.5t181.5 28q65 0 137 -16.5t134.5 -58
t101.5 -116t39 -190.5v-740h-165v158h-10q-20 -42 -62 -84t-109 -70t-161 -28zM492 124q101 0 171 40.5t106 105.5t36 139v152q-11 -13 -45.5 -23t-79.5 -18t-89.5 -14t-75.5 -10q-72 -8 -130.5 -29t-92.5 -59.5t-34 -102.5q0 -58 30 -98.5t83 -61.5t121 -21zM821 1473v-134
h-546v134h546z" />
    <glyph glyph-name="Abreve" unicode="&#x102;" horiz-adv-x="1389" 
d="M47 0l544 1490h204l548 -1490h-186l-325 909q-30 83 -67.5 200.5t-91.5 297.5h38q-53 -181 -91.5 -300t-66.5 -198l-320 -909h-186zM316 423v155h757v-155h-757zM695 1646q-80 0 -145 37.5t-103.5 101.5t-38.5 142h124q0 -70 46 -115t117 -45t117 45t46 115h124
q0 -78 -38.5 -141.5t-103 -101.5t-145.5 -38z" />
    <glyph glyph-name="abreve" unicode="&#x103;" horiz-adv-x="1126" 
d="M465 -24q-105 0 -190 39t-135.5 114.5t-50.5 184.5q0 92 36 150.5t97.5 93t138.5 52.5t160 28q98 13 161 20.5t93 25t30 58.5v11q0 69 -27.5 118t-81 76t-132.5 27t-137 -25t-94 -64.5t-51 -82.5l-163 43q35 99 103 159.5t156.5 88.5t181.5 28q65 0 137 -16.5t134.5 -58
t101.5 -116t39 -190.5v-740h-165v158h-10q-20 -42 -62 -84t-109 -70t-161 -28zM492 124q101 0 171 40.5t106 105.5t36 139v152q-11 -13 -45.5 -23t-79.5 -18t-89.5 -14t-75.5 -10q-72 -8 -130.5 -29t-92.5 -59.5t-34 -102.5q0 -58 30 -98.5t83 -61.5t121 -21zM549 1262
q-80 0 -145 37.5t-103.5 101.5t-38.5 142h124q0 -70 46 -115t117 -45t117 45t46 115h124q0 -78 -38.5 -141.5t-103 -101.5t-145.5 -38z" />
    <glyph glyph-name="Aogonek" unicode="&#x104;" horiz-adv-x="1389" 
d="M47 0l544 1490h204l548 -1490h-186l-325 909q-30 83 -67.5 200.5t-91.5 297.5h38q-53 -181 -91.5 -300t-66.5 -198l-320 -909h-186zM316 423v155h757v-155h-757zM1233 -432q-93 0 -159 48.5t-66 141.5q0 76 46.5 141t123.5 120l165 -19q-72 -56 -119 -104t-47 -107
q0 -38 22 -58.5t66 -20.5q24 0 45 6t38 15l46 -125q-29 -13 -69 -25.5t-92 -12.5z" />
    <glyph glyph-name="aogonek" unicode="&#x105;" horiz-adv-x="1126" 
d="M465 -24q-105 0 -190 39t-135.5 114.5t-50.5 184.5q0 92 36 150.5t97.5 93t138.5 52.5t160 28q98 13 161 20.5t93 25t30 58.5v11q0 69 -27.5 118t-81 76t-132.5 27t-137 -25t-94 -64.5t-51 -82.5l-163 43q35 99 103 159.5t156.5 88.5t181.5 28q65 0 137 -16.5t134.5 -58
t101.5 -116t39 -190.5v-740h-165v158h-10q-20 -42 -62 -84t-109 -70t-161 -28zM492 124q101 0 171 40.5t106 105.5t36 139v152q-11 -13 -45.5 -23t-79.5 -18t-89.5 -14t-75.5 -10q-72 -8 -130.5 -29t-92.5 -59.5t-34 -102.5q0 -58 30 -98.5t83 -61.5t121 -21zM862 -424
q-94 0 -159 48.5t-65 140.5q0 73 44.5 133.5t124.5 117.5l165 -16q-71 -56 -118.5 -100.5t-47.5 -103.5q0 -37 22 -58t65 -21q26 0 47.5 7t37.5 14l44 -125q-28 -13 -68 -25t-92 -12z" />
    <glyph glyph-name="Cacute" unicode="&#x106;" horiz-adv-x="1490" 
d="M780 -21q-193 0 -343 94t-235 266t-85 405q0 234 85 406t235 266.5t343 94.5q115 0 216 -34.5t180.5 -99.5t132 -155.5t72.5 -202.5h-177q-17 78 -55.5 138.5t-95 103t-126 64.5t-147.5 22q-140 0 -251 -71t-175 -205.5t-64 -326.5q0 -191 64.5 -325.5t175.5 -205
t250 -70.5q78 0 147.5 22.5t126 64.5t95 103t55.5 138h177q-19 -112 -72 -202t-132.5 -155t-180 -100t-216.5 -35zM702 1635l141 294h187l-190 -294h-138z" />
    <glyph glyph-name="cacute" unicode="&#x107;" horiz-adv-x="1145" 
d="M601 -23q-149 0 -262 71.5t-176.5 200.5t-63.5 298q0 172 63.5 301.5t176.5 201.5t262 72q84 0 156.5 -23t130.5 -65t99 -100t60 -128l-162 -37q-11 41 -35.5 78t-60 65t-83 44t-105.5 16q-110 0 -184 -58t-111 -154t-37 -213q0 -115 37 -210.5t111 -152.5t184 -57
q59 0 107 16t84 44.5t60.5 67t36.5 81.5l161 -37q-18 -71 -59 -130t-100 -102t-132.5 -66.5t-157.5 -23.5zM527 1251l141 294h187l-190 -294h-138z" />
    <glyph glyph-name="Ccircumflex" unicode="&#x108;" horiz-adv-x="1490" 
d="M780 -21q-193 0 -343 94t-235 266t-85 405q0 234 85 406t235 266.5t343 94.5q115 0 216 -34.5t180.5 -99.5t132 -155.5t72.5 -202.5h-177q-17 78 -55.5 138.5t-95 103t-126 64.5t-147.5 22q-140 0 -251 -71t-175 -205.5t-64 -326.5q0 -191 64.5 -325.5t175.5 -205
t250 -70.5q78 0 147.5 22.5t126 64.5t95 103t55.5 138h177q-19 -112 -72 -202t-132.5 -155t-180 -100t-216.5 -35zM626 1654h-165v7l236 268h157l238 -268v-7h-167l-149 179z" />
    <glyph glyph-name="ccircumflex" unicode="&#x109;" horiz-adv-x="1145" 
d="M601 -23q-149 0 -262 71.5t-176.5 200.5t-63.5 298q0 172 63.5 301.5t176.5 201.5t262 72q84 0 156.5 -23t130.5 -65t99 -100t60 -128l-162 -37q-11 41 -35.5 78t-60 65t-83 44t-105.5 16q-110 0 -184 -58t-111 -154t-37 -213q0 -115 37 -210.5t111 -152.5t184 -57
q59 0 107 16t84 44.5t60.5 67t36.5 81.5l161 -37q-18 -71 -59 -130t-100 -102t-132.5 -66.5t-157.5 -23.5zM451 1270h-165v7l236 268h157l238 -268v-7h-167l-149 179z" />
    <glyph glyph-name="Cdotaccent" unicode="&#x10a;" horiz-adv-x="1490" 
d="M780 -21q-193 0 -343 94t-235 266t-85 405q0 234 85 406t235 266.5t343 94.5q115 0 216 -34.5t180.5 -99.5t132 -155.5t72.5 -202.5h-177q-17 78 -55.5 138.5t-95 103t-126 64.5t-147.5 22q-140 0 -251 -71t-175 -205.5t-64 -326.5q0 -191 64.5 -325.5t175.5 -205
t250 -70.5q78 0 147.5 22.5t126 64.5t95 103t55.5 138h177q-19 -112 -72 -202t-132.5 -155t-180 -100t-216.5 -35zM776 1683q-48 0 -82.5 33t-34.5 80t34.5 79.5t82.5 32.5t82.5 -32.5t34.5 -79.5t-34.5 -80t-82.5 -33z" />
    <glyph glyph-name="cdotaccent" unicode="&#x10b;" horiz-adv-x="1145" 
d="M601 -23q-149 0 -262 71.5t-176.5 200.5t-63.5 298q0 172 63.5 301.5t176.5 201.5t262 72q84 0 156.5 -23t130.5 -65t99 -100t60 -128l-162 -37q-11 41 -35.5 78t-60 65t-83 44t-105.5 16q-110 0 -184 -58t-111 -154t-37 -213q0 -115 37 -210.5t111 -152.5t184 -57
q59 0 107 16t84 44.5t60.5 67t36.5 81.5l161 -37q-18 -71 -59 -130t-100 -102t-132.5 -66.5t-157.5 -23.5zM602 1299q-48 0 -82.5 33t-34.5 80t34.5 79.5t82.5 32.5t82.5 -32.5t34.5 -79.5t-34.5 -80t-82.5 -33z" />
    <glyph glyph-name="Ccaron" unicode="&#x10c;" horiz-adv-x="1490" 
d="M780 -21q-193 0 -343 94t-235 266t-85 405q0 234 85 406t235 266.5t343 94.5q115 0 216 -34.5t180.5 -99.5t132 -155.5t72.5 -202.5h-177q-17 78 -55.5 138.5t-95 103t-126 64.5t-147.5 22q-140 0 -251 -71t-175 -205.5t-64 -326.5q0 -191 64.5 -325.5t175.5 -205
t250 -70.5q78 0 147.5 22.5t126 64.5t95 103t55.5 138h177q-19 -112 -72 -202t-132.5 -155t-180 -100t-216.5 -35zM626 1929l150 -179l149 179h167v-7l-238 -269h-157l-236 269v7h165z" />
    <glyph glyph-name="ccaron" unicode="&#x10d;" horiz-adv-x="1145" 
d="M601 -23q-149 0 -262 71.5t-176.5 200.5t-63.5 298q0 172 63.5 301.5t176.5 201.5t262 72q84 0 156.5 -23t130.5 -65t99 -100t60 -128l-162 -37q-11 41 -35.5 78t-60 65t-83 44t-105.5 16q-110 0 -184 -58t-111 -154t-37 -213q0 -115 37 -210.5t111 -152.5t184 -57
q59 0 107 16t84 44.5t60.5 67t36.5 81.5l161 -37q-18 -71 -59 -130t-100 -102t-132.5 -66.5t-157.5 -23.5zM451 1545l150 -179l149 179h167v-7l-238 -269h-157l-236 269v7h165z" />
    <glyph glyph-name="Dcaron" unicode="&#x10e;" horiz-adv-x="1463" 
d="M635 0h-360v156h349q185 0 307 71t182.5 204t60.5 317q0 183 -60 314t-177 201.5t-293 70.5h-376v156h388q217 0 371 -89t236 -255.5t82 -397.5q0 -233 -83 -400.5t-241.5 -257.5t-385.5 -90zM354 1490v-1490h-176v1490h176zM462 1929l150 -179l149 179h167v-7l-238 -269
h-157l-236 269v7h165z" />
    <glyph glyph-name="dcaron" unicode="&#x10f;" horiz-adv-x="1422" 
d="M567 -23q-138 0 -244 71t-165 199.5t-59 303.5q0 173 59.5 301.5t165 198.5t243.5 70q101 0 165.5 -33t104 -79.5t61.5 -86.5h11v568h167v-1490h-162v180h-16q-22 -42 -62 -89t-105 -80.5t-164 -33.5zM591 127q103 0 175 54t109.5 150t37.5 221q0 126 -37.5 220
t-109 146.5t-175.5 52.5t-176 -54t-109 -149t-37 -216q0 -122 37.5 -218t109.5 -151.5t175 -55.5zM1212 1182v378h169l-49 -378h-120z" />
    <glyph glyph-name="Dcroat" unicode="&#x110;" horiz-adv-x="1463" 
d="M635 0h-360v156h349q185 0 307 71t182.5 204t60.5 317q0 183 -60 314t-177 201.5t-293 70.5h-376v156h388q217 0 371 -89t236 -255.5t82 -397.5q0 -233 -83 -400.5t-241.5 -257.5t-385.5 -90zM354 1490v-1490h-176v1490h176zM69 678v134h866v-134h-866z" />
    <glyph glyph-name="dcroat" unicode="&#x111;" horiz-adv-x="1230" 
d="M567 -23q-138 0 -244 71t-165 199.5t-59 303.5q0 173 59.5 301.5t165 198.5t243.5 70q101 0 165.5 -33t104 -79.5t61.5 -86.5h11v568h167v-1490h-162v180h-16q-22 -42 -62 -89t-105 -80.5t-164 -33.5zM591 127q103 0 175 54t109.5 150t37.5 221q0 126 -37.5 220
t-109 146.5t-175.5 52.5t-176 -54t-109 -149t-37 -216q0 -122 37.5 -218t109.5 -151.5t175 -55.5zM593 1230v132h638v-132h-638z" />
    <glyph glyph-name="Emacron" unicode="&#x112;" horiz-adv-x="1219" 
d="M178 0v1490h911v-156h-735v-502h684v-157h-684v-519h743v-156h-919zM910 1857v-134h-546v134h546z" />
    <glyph glyph-name="emacron" unicode="&#x113;" horiz-adv-x="1173" 
d="M614 -24q-160 0 -275 72t-177.5 200.5t-62.5 297.5t62 299t173.5 203.5t260.5 73.5q93 0 179.5 -32.5t155 -100t108.5 -173t40 -251.5v-66h-871v142h780l-77 -52q0 112 -36.5 199t-107 136t-171.5 49t-174.5 -50t-113 -132.5t-39.5 -181.5v-88q0 -123 42.5 -212
t120.5 -136t183 -47q71 0 127 21t95.5 61t59.5 96l162 -37q-25 -85 -86.5 -150.5t-152.5 -103t-205 -37.5zM864 1473v-134h-546v134h546z" />
    <glyph glyph-name="Ebreve" unicode="&#x114;" horiz-adv-x="1219" 
d="M178 0v1490h911v-156h-735v-502h684v-157h-684v-519h743v-156h-919zM638 1646q-80 0 -145 37.5t-103.5 101.5t-38.5 142h124q0 -70 46 -115t117 -45t117 45t46 115h124q0 -78 -38.5 -141.5t-103 -101.5t-145.5 -38z" />
    <glyph glyph-name="ebreve" unicode="&#x115;" horiz-adv-x="1173" 
d="M614 -24q-160 0 -275 72t-177.5 200.5t-62.5 297.5t62 299t173.5 203.5t260.5 73.5q93 0 179.5 -32.5t155 -100t108.5 -173t40 -251.5v-66h-871v142h780l-77 -52q0 112 -36.5 199t-107 136t-171.5 49t-174.5 -50t-113 -132.5t-39.5 -181.5v-88q0 -123 42.5 -212
t120.5 -136t183 -47q71 0 127 21t95.5 61t59.5 96l162 -37q-25 -85 -86.5 -150.5t-152.5 -103t-205 -37.5zM591 1262q-80 0 -145 37.5t-103.5 101.5t-38.5 142h124q0 -70 46 -115t117 -45t117 45t46 115h124q0 -78 -38.5 -141.5t-103 -101.5t-145.5 -38z" />
    <glyph glyph-name="Edotaccent" unicode="&#x116;" horiz-adv-x="1219" 
d="M178 0v1490h911v-156h-735v-502h684v-157h-684v-519h743v-156h-919zM638 1683q-48 0 -82.5 33t-34.5 80t34.5 79.5t82.5 32.5t82.5 -32.5t34.5 -79.5t-34.5 -80t-82.5 -33z" />
    <glyph glyph-name="edotaccent" unicode="&#x117;" horiz-adv-x="1173" 
d="M614 -24q-160 0 -275 72t-177.5 200.5t-62.5 297.5t62 299t173.5 203.5t260.5 73.5q93 0 179.5 -32.5t155 -100t108.5 -173t40 -251.5v-66h-871v142h780l-77 -52q0 112 -36.5 199t-107 136t-171.5 49t-174.5 -50t-113 -132.5t-39.5 -181.5v-88q0 -123 42.5 -212
t120.5 -136t183 -47q71 0 127 21t95.5 61t59.5 96l162 -37q-25 -85 -86.5 -150.5t-152.5 -103t-205 -37.5zM592 1299q-48 0 -82.5 33t-34.5 80t34.5 79.5t82.5 32.5t82.5 -32.5t34.5 -79.5t-34.5 -80t-82.5 -33z" />
    <glyph glyph-name="Eogonek" unicode="&#x118;" horiz-adv-x="1219" 
d="M178 0v1490h911v-156h-735v-502h684v-157h-684v-519h743v-156h-919zM987 -432q-94 0 -159 48.5t-65 141.5q0 74 46.5 140.5t135.5 124.5l152 -23q-71 -54 -118.5 -102.5t-47.5 -108.5q0 -38 22 -58.5t65 -20.5q25 0 46 6t39 15l44 -125q-28 -13 -68 -25.5t-92 -12.5z" />
    <glyph glyph-name="eogonek" unicode="&#x119;" horiz-adv-x="1173" 
d="M614 -24q-160 0 -275 72t-177.5 200.5t-62.5 297.5t62 299t173.5 203.5t260.5 73.5q93 0 179.5 -32.5t155 -100t108.5 -173t40 -251.5v-66h-871v142h780l-77 -52q0 112 -36.5 199t-107 136t-171.5 49t-174.5 -50t-113 -132.5t-39.5 -181.5v-88q0 -123 42.5 -212
t120.5 -136t183 -47q71 0 127 21t95.5 61t59.5 96l162 -37q-25 -85 -86.5 -150.5t-152.5 -103t-205 -37.5zM867 -432q-96 0 -161 48.5t-65 140.5q0 37 11.5 73.5t31.5 73t46 73.5t56 77l272 213q-25 -83 -67 -151.5t-84 -125t-70.5 -106t-28.5 -95.5q0 -38 22.5 -58.5
t68.5 -20.5q25 0 46 6t39 15l44 -125q-29 -13 -68.5 -25.5t-92.5 -12.5z" />
    <glyph glyph-name="Ecaron" unicode="&#x11a;" horiz-adv-x="1219" 
d="M178 0v1490h911v-156h-735v-502h684v-157h-684v-519h743v-156h-919zM487 1929l150 -179l149 179h167v-7l-238 -269h-157l-236 269v7h165z" />
    <glyph glyph-name="ecaron" unicode="&#x11b;" horiz-adv-x="1173" 
d="M614 -24q-160 0 -275 72t-177.5 200.5t-62.5 297.5t62 299t173.5 203.5t260.5 73.5q93 0 179.5 -32.5t155 -100t108.5 -173t40 -251.5v-66h-871v142h780l-77 -52q0 112 -36.5 199t-107 136t-171.5 49t-174.5 -50t-113 -132.5t-39.5 -181.5v-88q0 -123 42.5 -212
t120.5 -136t183 -47q71 0 127 21t95.5 61t59.5 96l162 -37q-25 -85 -86.5 -150.5t-152.5 -103t-205 -37.5zM441 1545l150 -179l149 179h167v-7l-238 -269h-157l-236 269v7h165z" />
    <glyph glyph-name="Gcircumflex" unicode="&#x11c;" horiz-adv-x="1519" 
d="M783 -21q-198 0 -347.5 94.5t-234 266.5t-84.5 404q0 234 84.5 406t232.5 266.5t340 94.5q119 0 221.5 -36.5t183 -102.5t133.5 -155.5t72 -196.5h-181q-21 73 -59.5 132.5t-93.5 103.5t-124 67.5t-151 23.5q-138 0 -248 -71t-173.5 -206t-63.5 -326q0 -189 64 -323.5
t175.5 -206t253.5 -71.5q129 0 228 55.5t155 157.5t56 240l54 -9h-452v155h570v-153q0 -184 -79 -321t-216.5 -213t-315.5 -76zM620 1654h-165v7l236 268h157l238 -268v-7h-167l-149 179z" />
    <glyph glyph-name="gcircumflex" unicode="&#x11d;" horiz-adv-x="1232" 
d="M600 -440q-121 0 -212 32t-150.5 88t-89.5 126l142 70q22 -39 59.5 -78.5t98 -65t152.5 -25.5q138 0 224 68t86 209v219h-13q-23 -42 -62.5 -87t-104.5 -76t-164 -31q-134 0 -240 65.5t-166.5 188t-60.5 293.5t60 298t166 197t244 70q100 0 165 -32.5t105 -79.5t62 -89
h14v186h162v-1129q0 -145 -63.5 -237.5t-172 -136t-241.5 -43.5zM593 159q102 0 174 48t109.5 138t37.5 214q0 122 -37 214.5t-109 145t-175 52.5q-105 0 -177 -54t-109.5 -146.5t-37.5 -211.5q0 -120 38 -210.5t110 -140t176 -49.5zM444 1270h-165v7l236 268h157l238 -268
v-7h-167l-149 179z" />
    <glyph glyph-name="Gbreve" unicode="&#x11e;" horiz-adv-x="1519" 
d="M783 -21q-198 0 -347.5 94.5t-234 266.5t-84.5 404q0 234 84.5 406t232.5 266.5t340 94.5q119 0 221.5 -36.5t183 -102.5t133.5 -155.5t72 -196.5h-181q-21 73 -59.5 132.5t-93.5 103.5t-124 67.5t-151 23.5q-138 0 -248 -71t-173.5 -206t-63.5 -326q0 -189 64 -323.5
t175.5 -206t253.5 -71.5q129 0 228 55.5t155 157.5t56 240l54 -9h-452v155h570v-153q0 -184 -79 -321t-216.5 -213t-315.5 -76zM771 1646q-80 0 -145 37.5t-103.5 101.5t-38.5 142h124q0 -70 46 -115t117 -45t117 45t46 115h124q0 -78 -38.5 -141.5t-103 -101.5t-145.5 -38z
" />
    <glyph glyph-name="gbreve" unicode="&#x11f;" horiz-adv-x="1232" 
d="M600 -440q-121 0 -212 32t-150.5 88t-89.5 126l142 70q22 -39 59.5 -78.5t98 -65t152.5 -25.5q138 0 224 68t86 209v219h-13q-23 -42 -62.5 -87t-104.5 -76t-164 -31q-134 0 -240 65.5t-166.5 188t-60.5 293.5t60 298t166 197t244 70q100 0 165 -32.5t105 -79.5t62 -89
h14v186h162v-1129q0 -145 -63.5 -237.5t-172 -136t-241.5 -43.5zM593 159q102 0 174 48t109.5 138t37.5 214q0 122 -37 214.5t-109 145t-175 52.5q-105 0 -177 -54t-109.5 -146.5t-37.5 -211.5q0 -120 38 -210.5t110 -140t176 -49.5zM594 1262q-80 0 -145 37.5t-103.5 101.5
t-38.5 142h124q0 -70 46 -115t117 -45t117 45t46 115h124q0 -78 -38.5 -141.5t-103 -101.5t-145.5 -38z" />
    <glyph glyph-name="Gdotaccent" unicode="&#x120;" horiz-adv-x="1519" 
d="M783 -21q-198 0 -347.5 94.5t-234 266.5t-84.5 404q0 234 84.5 406t232.5 266.5t340 94.5q119 0 221.5 -36.5t183 -102.5t133.5 -155.5t72 -196.5h-181q-21 73 -59.5 132.5t-93.5 103.5t-124 67.5t-151 23.5q-138 0 -248 -71t-173.5 -206t-63.5 -326q0 -189 64 -323.5
t175.5 -206t253.5 -71.5q129 0 228 55.5t155 157.5t56 240l54 -9h-452v155h570v-153q0 -184 -79 -321t-216.5 -213t-315.5 -76zM771 1683q-48 0 -82.5 33t-34.5 80t34.5 79.5t82.5 32.5t82.5 -32.5t34.5 -79.5t-34.5 -80t-82.5 -33z" />
    <glyph glyph-name="gdotaccent" unicode="&#x121;" horiz-adv-x="1232" 
d="M600 -440q-121 0 -212 32t-150.5 88t-89.5 126l142 70q22 -39 59.5 -78.5t98 -65t152.5 -25.5q138 0 224 68t86 209v219h-13q-23 -42 -62.5 -87t-104.5 -76t-164 -31q-134 0 -240 65.5t-166.5 188t-60.5 293.5t60 298t166 197t244 70q100 0 165 -32.5t105 -79.5t62 -89
h14v186h162v-1129q0 -145 -63.5 -237.5t-172 -136t-241.5 -43.5zM593 159q102 0 174 48t109.5 138t37.5 214q0 122 -37 214.5t-109 145t-175 52.5q-105 0 -177 -54t-109.5 -146.5t-37.5 -211.5q0 -120 38 -210.5t110 -140t176 -49.5zM594 1299q-48 0 -82.5 33t-34.5 80
t34.5 79.5t82.5 32.5t82.5 -32.5t34.5 -79.5t-34.5 -80t-82.5 -33z" />
    <glyph glyph-name="uni0122" unicode="&#x122;" horiz-adv-x="1519" 
d="M783 -21q-198 0 -347.5 94.5t-234 266.5t-84.5 404q0 234 84.5 406t232.5 266.5t340 94.5q119 0 221.5 -36.5t183 -102.5t133.5 -155.5t72 -196.5h-181q-21 73 -59.5 132.5t-93.5 103.5t-124 67.5t-151 23.5q-138 0 -248 -71t-173.5 -206t-63.5 -326q0 -189 64 -323.5
t175.5 -206t253.5 -71.5q129 0 228 55.5t155 157.5t56 240l54 -9h-452v155h570v-153q0 -184 -79 -321t-216.5 -213t-315.5 -76zM598 -493l82 375h171l-124 -375h-129z" />
    <glyph glyph-name="uni0123" unicode="&#x123;" horiz-adv-x="1232" 
d="M600 -440q-121 0 -212 32t-150.5 88t-89.5 126l142 70q22 -39 59.5 -78.5t98 -65t152.5 -25.5q138 0 224 68t86 209v219h-13q-23 -42 -62.5 -87t-104.5 -76t-164 -31q-134 0 -240 65.5t-166.5 188t-60.5 293.5t60 298t166 197t244 70q100 0 165 -32.5t105 -79.5t62 -89
h14v186h162v-1129q0 -145 -63.5 -237.5t-172 -136t-241.5 -43.5zM593 159q102 0 174 48t109.5 138t37.5 214q0 122 -37 214.5t-109 145t-175 52.5q-105 0 -177 -54t-109.5 -146.5t-37.5 -211.5q0 -120 38 -210.5t110 -140t176 -49.5zM519 1229v124q0 66 22 122t52 99.5
t57 72.5l104 -70q-38 -59 -62 -111.5t-24 -120.5v-116h-149z" />
    <glyph glyph-name="Hcircumflex" unicode="&#x124;" horiz-adv-x="1505" 
d="M178 0v1490h176v-650h798v650h176v-1490h-176v684h-798v-684h-176zM602 1654h-165v7l236 268h157l238 -268v-7h-167l-149 179z" />
    <glyph glyph-name="hcircumflex" unicode="&#x125;" horiz-adv-x="1191" 
d="M322 666v-666h-167v1490h167v-650h-34q50 151 145.5 216t221.5 65q112 0 198.5 -46.5t135 -139.5t48.5 -232v-703h-168v689q0 133 -69.5 207t-189.5 74q-82 0 -147.5 -35t-103 -103t-37.5 -166zM88 1654h-165v7l236 268h157l238 -268v-7h-167l-149 179z" />
    <glyph glyph-name="Hbar" unicode="&#x126;" horiz-adv-x="1565" 
d="M1475 1168v-143h-1384v143h1384zM211 0v1490h176v-650h798v650h176v-1490h-176v684h-798v-684h-176z" />
    <glyph glyph-name="hbar" unicode="&#x127;" horiz-adv-x="1191" 
d="M322 666v-666h-167v1490h167v-650h-34q50 151 145.5 216t221.5 65q112 0 198.5 -46.5t135 -139.5t48.5 -232v-703h-168v689q0 133 -69.5 207t-189.5 74q-82 0 -147.5 -35t-103 -103t-37.5 -166zM-2 1230v132h638v-132h-638z" />
    <glyph glyph-name="Itilde" unicode="&#x128;" horiz-adv-x="531" 
d="M354 1490v-1490h-176v1490h176zM396 1689q-37 0 -72 12.5t-66 29.5t-57.5 30t-47.5 13q-28 0 -41.5 -25.5t-16.5 -55.5h-118q3 88 42.5 145.5t117.5 57.5q40 0 73 -13.5t61.5 -30.5t55 -30.5t51.5 -13.5q27 0 41 19.5t20 63.5h116q-4 -92 -45.5 -147t-113.5 -55z" />
    <glyph glyph-name="itilde" unicode="&#x129;" horiz-adv-x="476" 
d="M155 0v1106h167v-1106h-167zM369 1305q-37 0 -72 12.5t-66 29.5t-57.5 30t-47.5 13q-28 0 -41.5 -25.5t-16.5 -55.5h-118q3 88 42.5 145.5t117.5 57.5q40 0 73 -13.5t61.5 -30.5t55 -30.5t51.5 -13.5q27 0 41 19.5t20 63.5h116q-4 -92 -45.5 -147t-113.5 -55z" />
    <glyph glyph-name="Imacron" unicode="&#x12a;" horiz-adv-x="531" 
d="M354 1490v-1490h-176v1490h176zM538 1857v-134h-546v134h546z" />
    <glyph glyph-name="imacron" unicode="&#x12b;" horiz-adv-x="476" 
d="M155 0v1106h167v-1106h-167zM512 1473v-134h-546v134h546z" />
    <glyph glyph-name="Ibreve" unicode="&#x12c;" horiz-adv-x="531" 
d="M354 1490v-1490h-176v1490h176zM266 1646q-80 0 -145 37.5t-103.5 101.5t-38.5 142h124q0 -70 46 -115t117 -45t117 45t46 115h124q0 -78 -38.5 -141.5t-103 -101.5t-145.5 -38z" />
    <glyph glyph-name="ibreve" unicode="&#x12d;" horiz-adv-x="476" 
d="M155 0v1106h167v-1106h-167zM239 1262q-80 0 -145 37.5t-103.5 101.5t-38.5 142h124q0 -70 46 -115t117 -45t117 45t46 115h124q0 -78 -38.5 -141.5t-103 -101.5t-145.5 -38z" />
    <glyph glyph-name="Iogonek" unicode="&#x12e;" horiz-adv-x="531" 
d="M354 1490v-1490h-176v1490h176zM244 -432q-94 0 -159 48.5t-65 141.5q0 74 46.5 140.5t135.5 124.5l152 -23q-71 -54 -118.5 -102.5t-47.5 -108.5q0 -38 22 -58.5t65 -20.5q25 0 46 6t39 15l44 -125q-28 -13 -68 -25.5t-92 -12.5z" />
    <glyph glyph-name="iogonek" unicode="&#x12f;" horiz-adv-x="476" 
d="M155 0v1106h167v-1106h-167zM212 -432q-94 0 -159 48.5t-65 141.5q0 74 46.5 140.5t135.5 124.5l152 -23q-71 -54 -118.5 -102.5t-47.5 -108.5q0 -38 22 -58.5t65 -20.5q25 0 46 6t39 15l44 -125q-28 -13 -68 -25.5t-92 -12.5zM239 1299q-48 0 -82.5 33t-34.5 80
t34.5 79.5t82.5 32.5t82.5 -32.5t34.5 -79.5t-34.5 -80t-82.5 -33z" />
    <glyph glyph-name="Idotaccent" unicode="&#x130;" horiz-adv-x="531" 
d="M354 1490v-1490h-176v1490h176zM266 1683q-48 0 -82.5 33t-34.5 80t34.5 79.5t82.5 32.5t82.5 -32.5t34.5 -79.5t-34.5 -80t-82.5 -33z" />
    <glyph glyph-name="dotlessi" unicode="&#x131;" horiz-adv-x="476" 
d="M155 0v1106h167v-1106h-167z" />
    <glyph glyph-name="IJ" unicode="&#x132;" horiz-adv-x="1683" 
d="M354 1490v-1490h-176v1490h176zM1070 -20q-195 0 -317 115.5t-122 327.5v79h176v-79q0 -139 72 -213t191 -74t191 74t72 213v1067h176v-1067q0 -212 -122 -327.5t-317 -115.5z" />
    <glyph glyph-name="ij" unicode="&#x133;" horiz-adv-x="953" 
d="M155 0v1106h167v-1106h-167zM239 1299q-48 0 -82.5 33t-34.5 80t34.5 79.5t82.5 32.5t82.5 -32.5t34.5 -79.5t-34.5 -80t-82.5 -33zM630 1106h168v-1205q1 -98 -35 -170t-106 -110.5t-172 -38.5h-41v153h36q76 0 113 44t37 127v1200zM715 1299q-48 0 -82.5 33t-34.5 80
t34.5 79.5t82.5 32.5t82.5 -32.5t34.5 -79.5t-34.5 -80t-82.5 -33z" />
    <glyph glyph-name="Jcircumflex" unicode="&#x134;" horiz-adv-x="1152" 
d="M539 -20q-195 0 -317 115.5t-122 327.5v79h176v-79q0 -139 72 -213t191 -74t191 74t72 213v1067h176v-1067q0 -212 -122 -327.5t-317 -115.5zM740 1654h-165v7l236 268h157l238 -268v-7h-167l-149 179z" />
    <glyph glyph-name="jcircumflex" unicode="&#x135;" horiz-adv-x="477" 
d="M154 1106h168v-1205q1 -98 -35 -170t-106 -110.5t-172 -38.5h-41v153h36q76 0 113 44t37 127v1200zM88 1270h-165v7l236 268h157l238 -268v-7h-167l-149 179z" />
    <glyph glyph-name="uni0136" unicode="&#x136;" horiz-adv-x="1348" 
d="M299 435l-2 196q52 68 103.5 130t104.5 122.5t109 119.5l450 487h232l-634 -680h-10zM178 0v1490h176v-513l-2 -324l2 -87v-566h-176zM1088 0l-545 765l110 137l643 -902h-208zM522 -493l82 375h171l-124 -375h-129z" />
    <glyph glyph-name="uni0137" unicode="&#x137;" horiz-adv-x="1096" 
d="M310 402v207h29l489 497h209l-515 -522l-18 -1zM155 0v1490h167v-1490h-167zM857 0l-434 548l119 117l529 -665h-214zM400 -493l82 375h171l-124 -375h-129z" />
    <glyph glyph-name="kgreenlandic" unicode="&#x138;" horiz-adv-x="1055" 
d="M322 1106v-1106h-167v1106h167zM1030 1106l-536 -616h-237v125h160l409 491h204zM817 0l-422 495l91 120l539 -615h-208z" />
    <glyph glyph-name="Lacute" unicode="&#x139;" horiz-adv-x="1145" 
d="M178 0v1490h176v-1334h700v-156h-876zM192 1635l141 294h187l-190 -294h-138z" />
    <glyph glyph-name="lacute" unicode="&#x13a;" horiz-adv-x="476" 
d="M322 1490v-1490h-167v1490h167zM164 1635l141 294h187l-190 -294h-138z" />
    <glyph glyph-name="uni013B" unicode="&#x13b;" horiz-adv-x="1145" 
d="M178 0v1490h176v-1334h700v-156h-876zM443 -493l82 375h171l-124 -375h-129z" />
    <glyph glyph-name="uni013C" unicode="&#x13c;" horiz-adv-x="476" 
d="M322 1490v-1490h-167v1490h167zM67 -493l82 375h171l-124 -375h-129z" />
    <glyph glyph-name="Lcaron" unicode="&#x13d;" horiz-adv-x="1145" 
d="M178 0v1490h176v-1334h700v-156h-876zM614 1182v378h169l-49 -378h-120z" />
    <glyph glyph-name="lcaron" unicode="&#x13e;" horiz-adv-x="668" 
d="M322 1490v-1490h-167v1490h167zM464 1182v378h169l-49 -378h-120z" />
    <glyph glyph-name="Ldot" unicode="&#x13f;" horiz-adv-x="1136" 
d="M178 0v1490h176v-1334h700v-156h-876zM698 727q-48 0 -82.5 33t-34.5 80t34.5 79.5t82.5 32.5t82.5 -32.5t34.5 -79.5t-34.5 -80t-82.5 -33z" />
    <glyph glyph-name="ldot" unicode="&#x140;" horiz-adv-x="704" 
d="M322 1490v-1490h-167v1490h167zM574 622q-52 0 -89 37t-37 89q0 53 37 89.5t89 36.5q53 0 89.5 -36.5t36.5 -89.5q0 -52 -36.5 -89t-89.5 -37z" />
    <glyph glyph-name="Lslash" unicode="&#x141;" horiz-adv-x="1202" 
d="M236 0v1490h176v-1334h700v-156h-876zM45 514v176l740 428v-177z" />
    <glyph glyph-name="lslash" unicode="&#x142;" horiz-adv-x="476" 
d="M322 1490v-1490h-167v1490h167zM-16 670v151l506 293v-151z" />
    <glyph glyph-name="Nacute" unicode="&#x143;" horiz-adv-x="1528" 
d="M178 0v1490h205l626 -971q24 -37 58 -93.5t72.5 -125t74.5 -144.5l-24 -6q-7 77 -10.5 152t-4.5 139t-1 108v941h176v-1490h-207l-565 874q-34 54 -71.5 115.5t-85 143.5t-113.5 197l31 9q4 -107 7.5 -197t5.5 -158t2 -108v-876h-176zM691 1635l141 294h187l-190 -294
h-138z" />
    <glyph glyph-name="nacute" unicode="&#x144;" horiz-adv-x="1191" 
d="M322 666v-666h-167v1106h161v-266h-28q50 151 145.5 216t221.5 65q112 0 198.5 -46.5t135 -139.5t48.5 -232v-703h-168v689q0 133 -69.5 207t-189.5 74q-82 0 -147.5 -35t-103 -103t-37.5 -166zM522 1251l141 294h187l-190 -294h-138z" />
    <glyph glyph-name="uni0145" unicode="&#x145;" horiz-adv-x="1528" 
d="M178 0v1490h205l626 -971q24 -37 58 -93.5t72.5 -125t74.5 -144.5l-24 -6q-7 77 -10.5 152t-4.5 139t-1 108v941h176v-1490h-207l-565 874q-34 54 -71.5 115.5t-85 143.5t-113.5 197l31 9q4 -107 7.5 -197t5.5 -158t2 -108v-876h-176zM594 -493l82 375h171l-124 -375
h-129z" />
    <glyph glyph-name="uni0146" unicode="&#x146;" horiz-adv-x="1191" 
d="M322 666v-666h-167v1106h161v-266h-28q50 151 145.5 216t221.5 65q112 0 198.5 -46.5t135 -139.5t48.5 -232v-703h-168v689q0 133 -69.5 207t-189.5 74q-82 0 -147.5 -35t-103 -103t-37.5 -166zM425 -493l82 375h171l-124 -375h-129z" />
    <glyph glyph-name="Ncaron" unicode="&#x147;" horiz-adv-x="1528" 
d="M178 0v1490h205l626 -971q24 -37 58 -93.5t72.5 -125t74.5 -144.5l-24 -6q-7 77 -10.5 152t-4.5 139t-1 108v941h176v-1490h-207l-565 874q-34 54 -71.5 115.5t-85 143.5t-113.5 197l31 9q4 -107 7.5 -197t5.5 -158t2 -108v-876h-176zM614 1929l150 -179l149 179h167v-7
l-238 -269h-157l-236 269v7h165z" />
    <glyph glyph-name="ncaron" unicode="&#x148;" horiz-adv-x="1191" 
d="M322 666v-666h-167v1106h161v-266h-28q50 151 145.5 216t221.5 65q112 0 198.5 -46.5t135 -139.5t48.5 -232v-703h-168v689q0 133 -69.5 207t-189.5 74q-82 0 -147.5 -35t-103 -103t-37.5 -166zM445 1545l150 -179l149 179h167v-7l-238 -269h-157l-236 269v7h165z" />
    <glyph glyph-name="Eng" unicode="&#x14a;" horiz-adv-x="1528" 
d="M975 -418v149q17 -2 36.5 -3t31.5 -1q78 0 108.5 25.5t30.5 79.5v296h177v-303q0 -122 -71.5 -186t-209.5 -64q-31 0 -58.5 2t-44.5 5zM178 0v1490h205l626 -971q24 -37 58 -93.5t72.5 -125t74.5 -144.5l-24 -6q-7 77 -10.5 152t-4.5 139t-1 108v941h176v-1490h-207
l-565 874q-34 54 -71.5 115.5t-85 143.5t-113.5 197l31 9q4 -107 7.5 -197t5.5 -158t2 -108v-876h-176z" />
    <glyph glyph-name="eng" unicode="&#x14b;" horiz-adv-x="1191" 
d="M654 -418v149q16 -2 40 -3t35 -1q80 0 110 25.5t30 79.5v168h168v-175q0 -122 -71.5 -186t-209.5 -64q-31 0 -58.5 2t-43.5 5zM322 666v-666h-167v1106h161v-266h-28q50 151 145.5 216t221.5 65q112 0 198.5 -46.5t135 -139.5t48.5 -232v-703h-168v689q0 133 -69.5 207
t-189.5 74q-82 0 -147.5 -35t-103 -103t-37.5 -166z" />
    <glyph glyph-name="Omacron" unicode="&#x14c;" horiz-adv-x="1555" 
d="M778 -21q-191 0 -340.5 94t-235 266t-85.5 405q0 234 85.5 406t235 266.5t340.5 94.5q192 0 341 -94.5t234 -266.5t85 -406q0 -233 -85 -405t-234 -266t-341 -94zM778 143q137 0 247 70t175 204.5t65 326.5q0 194 -65 328.5t-175 204.5t-247 70t-247.5 -70t-175.5 -204.5
t-65 -328.5q0 -192 65 -326.5t175.5 -204.5t247.5 -70zM1051 1857v-134h-546v134h546z" />
    <glyph glyph-name="omacron" unicode="&#x14d;" horiz-adv-x="1204" 
d="M601 -24q-149 0 -262 72t-176.5 201t-63.5 298q0 172 63.5 301.5t176.5 201.5t262 72q150 0 263.5 -72t176.5 -201.5t63 -301.5q0 -169 -63 -298t-176.5 -201t-263.5 -72zM601 126q111 0 185.5 57.5t111.5 153t37 210.5q0 116 -37 212.5t-111.5 154.5t-185.5 58
q-110 0 -184 -58t-111 -154t-37 -213q0 -115 37 -210.5t111 -153t184 -57.5zM874 1473v-134h-546v134h546z" />
    <glyph glyph-name="Obreve" unicode="&#x14e;" horiz-adv-x="1555" 
d="M778 -21q-191 0 -340.5 94t-235 266t-85.5 405q0 234 85.5 406t235 266.5t340.5 94.5q192 0 341 -94.5t234 -266.5t85 -406q0 -233 -85 -405t-234 -266t-341 -94zM778 143q137 0 247 70t175 204.5t65 326.5q0 194 -65 328.5t-175 204.5t-247 70t-247.5 -70t-175.5 -204.5
t-65 -328.5q0 -192 65 -326.5t175.5 -204.5t247.5 -70zM778 1646q-80 0 -145 37.5t-103.5 101.5t-38.5 142h124q0 -70 46 -115t117 -45t117 45t46 115h124q0 -78 -38.5 -141.5t-103 -101.5t-145.5 -38z" />
    <glyph glyph-name="obreve" unicode="&#x14f;" horiz-adv-x="1204" 
d="M601 -24q-149 0 -262 72t-176.5 201t-63.5 298q0 172 63.5 301.5t176.5 201.5t262 72q150 0 263.5 -72t176.5 -201.5t63 -301.5q0 -169 -63 -298t-176.5 -201t-263.5 -72zM601 126q111 0 185.5 57.5t111.5 153t37 210.5q0 116 -37 212.5t-111.5 154.5t-185.5 58
q-110 0 -184 -58t-111 -154t-37 -213q0 -115 37 -210.5t111 -153t184 -57.5zM601 1262q-80 0 -145 37.5t-103.5 101.5t-38.5 142h124q0 -70 46 -115t117 -45t117 45t46 115h124q0 -78 -38.5 -141.5t-103 -101.5t-145.5 -38z" />
    <glyph glyph-name="Ohungarumlaut" unicode="&#x150;" horiz-adv-x="1555" 
d="M778 -21q-191 0 -340.5 94t-235 266t-85.5 405q0 234 85.5 406t235 266.5t340.5 94.5q192 0 341 -94.5t234 -266.5t85 -406q0 -233 -85 -405t-234 -266t-341 -94zM778 143q137 0 247 70t175 204.5t65 326.5q0 194 -65 328.5t-175 204.5t-247 70t-247.5 -70t-175.5 -204.5
t-65 -328.5q0 -192 65 -326.5t175.5 -204.5t247.5 -70zM689 1635h-138l119 294h187zM1004 1635h-139l168 294h188z" />
    <glyph glyph-name="ohungarumlaut" unicode="&#x151;" horiz-adv-x="1204" 
d="M601 -24q-149 0 -262 72t-176.5 201t-63.5 298q0 172 63.5 301.5t176.5 201.5t262 72q150 0 263.5 -72t176.5 -201.5t63 -301.5q0 -169 -63 -298t-176.5 -201t-263.5 -72zM601 126q111 0 185.5 57.5t111.5 153t37 210.5q0 116 -37 212.5t-111.5 154.5t-185.5 58
q-110 0 -184 -58t-111 -154t-37 -213q0 -115 37 -210.5t111 -153t184 -57.5zM512 1251h-138l119 294h187zM827 1251h-139l168 294h188z" />
    <glyph glyph-name="OE" unicode="&#x152;" horiz-adv-x="2037" 
d="M789 0q-200 0 -351.5 93t-236 260.5t-84.5 391.5q0 226 84.5 393t235 259.5t349.5 92.5h279v-157h-277q-152 1 -264 -71.5t-173.5 -204.5t-61.5 -312q0 -178 61.5 -310.5t174.5 -205.5t267 -73h272v-156h-275zM995 0v1490h911v-156h-735v-502h685v-157h-685v-519h743
v-156h-919z" />
    <glyph glyph-name="oe" unicode="&#x153;" horiz-adv-x="2021" 
d="M601 -24q-149 0 -262 72t-176.5 201t-63.5 298q0 172 63.5 301.5t176.5 201.5t262 72q150 0 263.5 -72t176.5 -201.5t63 -301.5q0 -169 -63 -298t-176.5 -201t-263.5 -72zM601 126q111 0 185.5 57.5t111.5 153t37 210.5q0 116 -37 212.5t-111.5 154.5t-185.5 58
q-110 0 -184 -58t-111 -154t-37 -213q0 -115 37 -210.5t111 -153t184 -57.5zM1462 -24q-160 0 -275 72t-177.5 200.5t-62.5 297.5t62 299t173.5 203.5t260.5 73.5q93 0 179.5 -32.5t155 -100t108.5 -173t40 -251.5v-66h-871v142h780l-77 -52q0 112 -36.5 199t-107 136
t-171.5 49t-174.5 -50t-113 -132.5t-39.5 -181.5v-88q0 -123 42.5 -212t120.5 -136t183 -47q71 0 127 21t95.5 61t59.5 96l162 -37q-25 -85 -86.5 -150.5t-152.5 -103t-205 -37.5z" />
    <glyph glyph-name="Racute" unicode="&#x154;" horiz-adv-x="1308" 
d="M178 0v1490h512q167 0 278 -58t167 -161t56 -237q0 -133 -56.5 -234.5t-168 -158t-278.5 -56.5h-412v157h407q115 0 188.5 35.5t109 101.5t35.5 155q0 92 -36 159t-109.5 104t-188.5 37h-328v-1334h-176zM1038 0l-361 671h199l366 -671h-204zM573 1635l141 294h187
l-190 -294h-138z" />
    <glyph glyph-name="racute" unicode="&#x155;" horiz-adv-x="740" 
d="M155 0v1106h161v-172h10q31 85 108.5 136.5t178.5 51.5q20 0 44 -1.5t38 -2.5v-168q-8 2 -37 6t-63 4q-78 0 -140 -33t-97.5 -93t-35.5 -140v-694h-167zM341 1251l141 294h187l-190 -294h-138z" />
    <glyph glyph-name="uni0156" unicode="&#x156;" horiz-adv-x="1308" 
d="M178 0v1490h512q167 0 278 -58t167 -161t56 -237q0 -133 -56.5 -234.5t-168 -158t-278.5 -56.5h-412v157h407q115 0 188.5 35.5t109 101.5t35.5 155q0 92 -36 159t-109.5 104t-188.5 37h-328v-1334h-176zM1038 0l-361 671h199l366 -671h-204zM499 -493l82 375h171
l-124 -375h-129z" />
    <glyph glyph-name="uni0157" unicode="&#x157;" horiz-adv-x="740" 
d="M155 0v1106h161v-172h10q31 85 108.5 136.5t178.5 51.5q20 0 44 -1.5t38 -2.5v-168q-8 2 -37 6t-63 4q-78 0 -140 -33t-97.5 -93t-35.5 -140v-694h-167zM67 -493l82 375h171l-124 -375h-129z" />
    <glyph glyph-name="Rcaron" unicode="&#x158;" horiz-adv-x="1308" 
d="M178 0v1490h512q167 0 278 -58t167 -161t56 -237q0 -133 -56.5 -234.5t-168 -158t-278.5 -56.5h-412v157h407q115 0 188.5 35.5t109 101.5t35.5 155q0 92 -36 159t-109.5 104t-188.5 37h-328v-1334h-176zM1038 0l-361 671h199l366 -671h-204zM497 1929l150 -179l149 179
h167v-7l-238 -269h-157l-236 269v7h165z" />
    <glyph glyph-name="rcaron" unicode="&#x159;" horiz-adv-x="740" 
d="M155 0v1106h161v-172h10q31 85 108.5 136.5t178.5 51.5q20 0 44 -1.5t38 -2.5v-168q-8 2 -37 6t-63 4q-78 0 -140 -33t-97.5 -93t-35.5 -140v-694h-167zM265 1545l150 -179l149 179h167v-7l-238 -269h-157l-236 269v7h165z" />
    <glyph glyph-name="Sacute" unicode="&#x15a;" horiz-adv-x="1297" 
d="M650 -25q-161 0 -279.5 53t-185 149.5t-73.5 225.5h180q7 -89 55.5 -149t127.5 -90.5t175 -30.5q105 0 186.5 34t129 95.5t47.5 142.5q0 71 -38 117.5t-105.5 78t-155.5 55.5l-177 49q-188 52 -287 146.5t-99 242.5q0 125 66 219t181 146t259 52q147 0 259 -53
t176.5 -145t68.5 -210h-173q-12 118 -104 184.5t-232 66.5q-98 0 -172 -33t-115.5 -89.5t-41.5 -129.5q0 -74 44 -122t110.5 -77t134.5 -48l154 -42q72 -19 146 -49.5t135.5 -78t99.5 -116t38 -165.5q0 -122 -64 -219.5t-183.5 -153.5t-287.5 -56zM573 1635l141 294h187
l-190 -294h-138z" />
    <glyph glyph-name="sacute" unicode="&#x15b;" horiz-adv-x="1054" 
d="M527 -24q-114 0 -203 34.5t-146 102t-74 166.5l160 31q21 -95 88 -141t172 -46q119 0 189 51t70 124q0 61 -42.5 100.5t-125.5 58.5l-182 43q-149 36 -223 110.5t-74 191.5q0 94 52.5 166t143.5 113t207 41q112 0 193 -35.5t131.5 -98.5t70.5 -148l-153 -32
q-20 69 -76.5 120t-164.5 51q-103 0 -169 -48t-66 -121q0 -64 45.5 -103t141.5 -61l170 -41q149 -35 221 -109.5t72 -187.5q0 -98 -54.5 -172.5t-151 -117t-222.5 -42.5zM463 1251l141 294h187l-190 -294h-138z" />
    <glyph glyph-name="Scircumflex" unicode="&#x15c;" horiz-adv-x="1297" 
d="M650 -25q-161 0 -279.5 53t-185 149.5t-73.5 225.5h180q7 -89 55.5 -149t127.5 -90.5t175 -30.5q105 0 186.5 34t129 95.5t47.5 142.5q0 71 -38 117.5t-105.5 78t-155.5 55.5l-177 49q-188 52 -287 146.5t-99 242.5q0 125 66 219t181 146t259 52q147 0 259 -53
t176.5 -145t68.5 -210h-173q-12 118 -104 184.5t-232 66.5q-98 0 -172 -33t-115.5 -89.5t-41.5 -129.5q0 -74 44 -122t110.5 -77t134.5 -48l154 -42q72 -19 146 -49.5t135.5 -78t99.5 -116t38 -165.5q0 -122 -64 -219.5t-183.5 -153.5t-287.5 -56zM497 1654h-165v7l236 268
h157l238 -268v-7h-167l-149 179z" />
    <glyph glyph-name="scircumflex" unicode="&#x15d;" horiz-adv-x="1054" 
d="M527 -24q-114 0 -203 34.5t-146 102t-74 166.5l160 31q21 -95 88 -141t172 -46q119 0 189 51t70 124q0 61 -42.5 100.5t-125.5 58.5l-182 43q-149 36 -223 110.5t-74 191.5q0 94 52.5 166t143.5 113t207 41q112 0 193 -35.5t131.5 -98.5t70.5 -148l-153 -32
q-20 69 -76.5 120t-164.5 51q-103 0 -169 -48t-66 -121q0 -64 45.5 -103t141.5 -61l170 -41q149 -35 221 -109.5t72 -187.5q0 -98 -54.5 -172.5t-151 -117t-222.5 -42.5zM387 1270h-165v7l236 268h157l238 -268v-7h-167l-149 179z" />
    <glyph glyph-name="Scedilla" unicode="&#x15e;" horiz-adv-x="1297" 
d="M650 -25q-161 0 -279.5 53t-185 149.5t-73.5 225.5h180q7 -89 55.5 -149t127.5 -90.5t175 -30.5q105 0 186.5 34t129 95.5t47.5 142.5q0 71 -38 117.5t-105.5 78t-155.5 55.5l-177 49q-188 52 -287 146.5t-99 242.5q0 125 66 219t181 146t259 52q147 0 259 -53
t176.5 -145t68.5 -210h-173q-12 118 -104 184.5t-232 66.5q-98 0 -172 -33t-115.5 -89.5t-41.5 -129.5q0 -74 44 -122t110.5 -77t134.5 -48l154 -42q72 -19 146 -49.5t135.5 -78t99.5 -116t38 -165.5q0 -122 -64 -219.5t-183.5 -153.5t-287.5 -56zM540 -418v100h116
q55 0 78.5 16t23.5 54q0 37 -23.5 53t-78.5 16h-80l31 225h90v-46l-2 -87q95 -4 142 -44t47 -118q0 -87 -56.5 -128t-170.5 -41h-117z" />
    <glyph glyph-name="scedilla" unicode="&#x15f;" horiz-adv-x="1054" 
d="M527 -24q-114 0 -203 34.5t-146 102t-74 166.5l160 31q21 -95 88 -141t172 -46q119 0 189 51t70 124q0 61 -42.5 100.5t-125.5 58.5l-182 43q-149 36 -223 110.5t-74 191.5q0 94 52.5 166t143.5 113t207 41q112 0 193 -35.5t131.5 -98.5t70.5 -148l-153 -32
q-20 69 -76.5 120t-164.5 51q-103 0 -169 -48t-66 -121q0 -64 45.5 -103t141.5 -61l170 -41q149 -35 221 -109.5t72 -187.5q0 -98 -54.5 -172.5t-151 -117t-222.5 -42.5zM427 -418v100h116q55 0 78.5 16t23.5 54q0 37 -23.5 53t-78.5 16h-80l31 225h90v-46l-2 -87
q95 -4 142 -44t47 -118q0 -87 -56.5 -128t-170.5 -41h-117z" />
    <glyph glyph-name="Scaron" unicode="&#x160;" horiz-adv-x="1297" 
d="M650 -25q-161 0 -279.5 53t-185 149.5t-73.5 225.5h180q7 -89 55.5 -149t127.5 -90.5t175 -30.5q105 0 186.5 34t129 95.5t47.5 142.5q0 71 -38 117.5t-105.5 78t-155.5 55.5l-177 49q-188 52 -287 146.5t-99 242.5q0 125 66 219t181 146t259 52q147 0 259 -53
t176.5 -145t68.5 -210h-173q-12 118 -104 184.5t-232 66.5q-98 0 -172 -33t-115.5 -89.5t-41.5 -129.5q0 -74 44 -122t110.5 -77t134.5 -48l154 -42q72 -19 146 -49.5t135.5 -78t99.5 -116t38 -165.5q0 -122 -64 -219.5t-183.5 -153.5t-287.5 -56zM497 1929l150 -179
l149 179h167v-7l-238 -269h-157l-236 269v7h165z" />
    <glyph glyph-name="scaron" unicode="&#x161;" horiz-adv-x="1054" 
d="M527 -24q-114 0 -203 34.5t-146 102t-74 166.5l160 31q21 -95 88 -141t172 -46q119 0 189 51t70 124q0 61 -42.5 100.5t-125.5 58.5l-182 43q-149 36 -223 110.5t-74 191.5q0 94 52.5 166t143.5 113t207 41q112 0 193 -35.5t131.5 -98.5t70.5 -148l-153 -32
q-20 69 -76.5 120t-164.5 51q-103 0 -169 -48t-66 -121q0 -64 45.5 -103t141.5 -61l170 -41q149 -35 221 -109.5t72 -187.5q0 -98 -54.5 -172.5t-151 -117t-222.5 -42.5zM387 1545l150 -179l149 179h167v-7l-238 -269h-157l-236 269v7h165z" />
    <glyph glyph-name="uni021A" unicode="&#x162;" horiz-adv-x="1303" 
d="M91 1334v156h1121v-156h-471v-1334h-177v1334h-473zM544 -418v100h116q55 0 78.5 16t23.5 54q0 37 -23.5 53t-78.5 16h-80l31 225h90v-46l-2 -87q95 -4 142 -44t47 -118q0 -87 -56.5 -128t-170.5 -41h-117z" />
    <glyph glyph-name="uni0163" unicode="&#x163;" horiz-adv-x="649" 
d="M584 1106v-144h-566v144h566zM189 1376h167v-1099q0 -74 31.5 -107.5t102.5 -32.5q17 0 42.5 3.5t46.5 6.5l28 -142q-27 -8 -59.5 -12t-63.5 -4q-141 -1 -218 71t-77 204v1112zM306 -418v100h116q55 0 78.5 16t23.5 54q0 37 -23.5 53t-78.5 16h-80l31 225h90v-46l-2 -87
q95 -4 142 -44t47 -118q0 -87 -56.5 -128t-170.5 -41h-117z" />
    <glyph glyph-name="Tcaron" unicode="&#x164;" horiz-adv-x="1303" 
d="M91 1334v156h1121v-156h-471v-1334h-177v1334h-473zM502 1929l150 -179l149 179h167v-7l-238 -269h-157l-236 269v7h165z" />
    <glyph glyph-name="tcaron" unicode="&#x165;" horiz-adv-x="741" 
d="M584 1106v-144h-566v144h566zM189 1376h167v-1099q0 -74 31.5 -107.5t102.5 -32.5q17 0 42.5 3.5t46.5 6.5l28 -142q-27 -8 -59.5 -12t-63.5 -4q-141 -1 -218 71t-77 204v1112zM460 1237v378h169l-49 -378h-120z" />
    <glyph glyph-name="Tbar" unicode="&#x166;" horiz-adv-x="1303" 
d="M91 1334v156h1121v-156h-471v-1334h-177v1334h-473zM251 691v146h804v-146h-804z" />
    <glyph glyph-name="tbar" unicode="&#x167;" horiz-adv-x="649" 
d="M584 751v-144h-566v144h566zM189 1376h167v-1099q0 -74 31.5 -107.5t102.5 -32.5q17 0 42.5 3.5t46.5 6.5l28 -142q-27 -8 -59.5 -12t-63.5 -4q-141 -1 -218 71t-77 204v1112zM584 1106v-144h-566v144h566z" />
    <glyph glyph-name="Utilde" unicode="&#x168;" horiz-adv-x="1503" 
d="M752 -24q-174 0 -304.5 69t-202.5 189t-72 273v983h177v-970q0 -110 49 -195.5t139 -135t214 -49.5t214 49.5t138.5 135t48.5 195.5v970h176v-983q0 -153 -72 -273t-201.5 -189t-303.5 -69zM883 1689q-37 0 -72 12.5t-66 29.5t-57.5 30t-47.5 13q-28 0 -41.5 -25.5
t-16.5 -55.5h-118q3 88 42.5 145.5t117.5 57.5q40 0 73 -13.5t61.5 -30.5t55 -30.5t51.5 -13.5q27 0 41 19.5t20 63.5h116q-4 -92 -45.5 -147t-113.5 -55z" />
    <glyph glyph-name="utilde" unicode="&#x169;" horiz-adv-x="1191" 
d="M536 -15q-112 0 -198 46.5t-134.5 140t-48.5 231.5v703h167v-690q0 -132 70 -206t190 -74q81 0 146 35t103 103t38 166v666h168v-1106h-162v266h27q-50 -152 -146 -216.5t-220 -64.5zM726 1305q-37 0 -72 12.5t-66 29.5t-57.5 30t-47.5 13q-28 0 -41.5 -25.5t-16.5 -55.5
h-118q3 88 42.5 145.5t117.5 57.5q40 0 73 -13.5t61.5 -30.5t55 -30.5t51.5 -13.5q27 0 41 19.5t20 63.5h116q-4 -92 -45.5 -147t-113.5 -55z" />
    <glyph glyph-name="Umacron" unicode="&#x16a;" horiz-adv-x="1503" 
d="M752 -24q-174 0 -304.5 69t-202.5 189t-72 273v983h177v-970q0 -110 49 -195.5t139 -135t214 -49.5t214 49.5t138.5 135t48.5 195.5v970h176v-983q0 -153 -72 -273t-201.5 -189t-303.5 -69zM1025 1857v-134h-546v134h546z" />
    <glyph glyph-name="umacron" unicode="&#x16b;" horiz-adv-x="1191" 
d="M536 -15q-112 0 -198 46.5t-134.5 140t-48.5 231.5v703h167v-690q0 -132 70 -206t190 -74q81 0 146 35t103 103t38 166v666h168v-1106h-162v266h27q-50 -152 -146 -216.5t-220 -64.5zM868 1473v-134h-546v134h546z" />
    <glyph glyph-name="Ubreve" unicode="&#x16c;" horiz-adv-x="1503" 
d="M752 -24q-174 0 -304.5 69t-202.5 189t-72 273v983h177v-970q0 -110 49 -195.5t139 -135t214 -49.5t214 49.5t138.5 135t48.5 195.5v970h176v-983q0 -153 -72 -273t-201.5 -189t-303.5 -69zM752 1646q-80 0 -145 37.5t-103.5 101.5t-38.5 142h124q0 -70 46 -115t117 -45
t117 45t46 115h124q0 -78 -38.5 -141.5t-103 -101.5t-145.5 -38z" />
    <glyph glyph-name="ubreve" unicode="&#x16d;" horiz-adv-x="1191" 
d="M536 -15q-112 0 -198 46.5t-134.5 140t-48.5 231.5v703h167v-690q0 -132 70 -206t190 -74q81 0 146 35t103 103t38 166v666h168v-1106h-162v266h27q-50 -152 -146 -216.5t-220 -64.5zM595 1262q-80 0 -145 37.5t-103.5 101.5t-38.5 142h124q0 -70 46 -115t117 -45t117 45
t46 115h124q0 -78 -38.5 -141.5t-103 -101.5t-145.5 -38z" />
    <glyph glyph-name="Uring" unicode="&#x16e;" horiz-adv-x="1503" 
d="M752 -24q-174 0 -304.5 69t-202.5 189t-72 273v983h177v-970q0 -110 49 -195.5t139 -135t214 -49.5t214 49.5t138.5 135t48.5 195.5v970h176v-983q0 -153 -72 -273t-201.5 -189t-303.5 -69zM752 1556q-69 0 -126 32.5t-91 87t-34 120.5q0 67 34 121t91 86t126 32
q70 0 127 -32t90.5 -86t33.5 -121q0 -66 -33.5 -120.5t-90.5 -87t-127 -32.5zM752 1674q51 0 86.5 35.5t35.5 86.5t-35 86.5t-87 35.5q-50 0 -86 -35.5t-36 -86.5t36 -86.5t86 -35.5z" />
    <glyph glyph-name="uring" unicode="&#x16f;" horiz-adv-x="1191" 
d="M536 -15q-112 0 -198 46.5t-134.5 140t-48.5 231.5v703h167v-690q0 -132 70 -206t190 -74q81 0 146 35t103 103t38 166v666h168v-1106h-162v266h27q-50 -152 -146 -216.5t-220 -64.5zM595 1186q-69 0 -126 32.5t-91 87t-34 121.5t34 121t91 86.5t126 32.5q70 0 127 -32.5
t90.5 -86.5t33.5 -121t-33.5 -121.5t-90.5 -87t-127 -32.5zM595 1305q52 0 87.5 36t35.5 86q0 51 -35.5 86.5t-87.5 35.5q-50 0 -86 -35.5t-36 -86.5q0 -50 36 -86t86 -36z" />
    <glyph glyph-name="Uhungarumlaut" unicode="&#x170;" horiz-adv-x="1503" 
d="M752 -24q-174 0 -304.5 69t-202.5 189t-72 273v983h177v-970q0 -110 49 -195.5t139 -135t214 -49.5t214 49.5t138.5 135t48.5 195.5v970h176v-983q0 -153 -72 -273t-201.5 -189t-303.5 -69zM662 1635h-138l119 294h187zM977 1635h-139l168 294h188z" />
    <glyph glyph-name="uhungarumlaut" unicode="&#x171;" horiz-adv-x="1191" 
d="M536 -15q-112 0 -198 46.5t-134.5 140t-48.5 231.5v703h167v-690q0 -132 70 -206t190 -74q81 0 146 35t103 103t38 166v666h168v-1106h-162v266h27q-50 -152 -146 -216.5t-220 -64.5zM506 1251h-138l119 294h187zM821 1251h-139l168 294h188z" />
    <glyph glyph-name="Uogonek" unicode="&#x172;" horiz-adv-x="1503" 
d="M752 -24q-174 0 -304.5 69t-202.5 189t-72 273v983h177v-970q0 -110 49 -195.5t139 -135t214 -49.5t214 49.5t138.5 135t48.5 195.5v970h176v-983q0 -153 -72 -273t-201.5 -189t-303.5 -69zM816 -432q-94 0 -160 48.5t-66 141.5q0 64 36.5 110.5t96 83.5t130.5 72.5
t142.5 77t130.5 96t95.5 129.5t36.5 180h71q0 -130 -41 -220t-106 -151.5t-137.5 -104.5t-137.5 -78.5t-106.5 -73.5t-41.5 -90q0 -38 22 -58.5t66 -20.5q24 0 45.5 6t38.5 15l45 -125q-29 -13 -68.5 -25.5t-91.5 -12.5z" />
    <glyph glyph-name="uogonek" unicode="&#x173;" horiz-adv-x="1191" 
d="M536 -15q-112 0 -198 46.5t-134.5 140t-48.5 231.5v703h167v-690q0 -132 70 -206t190 -74q81 0 146 35t103 103t38 166v666h168v-1106h-162v266h27q-50 -152 -146 -216.5t-220 -64.5zM927 -432q-94 0 -159 48.5t-65 141.5q0 74 46.5 140.5t135.5 124.5l152 -23
q-71 -54 -118.5 -102.5t-47.5 -108.5q0 -38 22 -58.5t65 -20.5q25 0 46 6t39 15l44 -125q-28 -13 -68 -25.5t-92 -12.5z" />
    <glyph glyph-name="Wcircumflex" unicode="&#x174;" horiz-adv-x="1994" 
d="M454 0l-407 1490h179l244 -936q19 -71 36 -144t33 -148t30 -153h-22q15 78 31 153t33.5 148t36.5 144l248 936h202l246 -936q19 -71 36.5 -144t34 -148t31.5 -153h-24q15 78 31 153t33.5 148t35.5 144l243 936h182l-409 -1490h-207l-260 960q-26 94 -49 199.5t-45 235.5
h37q-21 -124 -42.5 -227.5t-50.5 -207.5l-259 -960h-208zM846 1654h-165v7l236 268h157l238 -268v-7h-167l-149 179z" />
    <glyph glyph-name="wcircumflex" unicode="&#x175;" horiz-adv-x="1647" 
d="M399 0l-336 1106h177l144 -511q28 -99 58 -217.5t60 -261.5h-28q29 137 59 256.5t58 222.5l146 511h176l144 -511q28 -101 57 -220t58 -259h-29q31 139 61 257.5t58 221.5l145 511h176l-335 -1106h-170l-155 531q-21 73 -41 148.5t-39 153.5t-39 159h39
q-19 -80 -38.5 -158.5t-39.5 -154.5t-41 -148l-156 -531h-169zM673 1270h-165v7l236 268h157l238 -268v-7h-167l-149 179z" />
    <glyph glyph-name="Ycircumflex" unicode="&#x176;" horiz-adv-x="1369" 
d="M596 0v619l-549 871h204l301 -483q49 -78 88.5 -150t81.5 -173h-72q42 102 82 175t87 148l300 483h203l-549 -871v-619h-177zM534 1654h-165v7l236 268h157l238 -268v-7h-167l-149 179z" />
    <glyph glyph-name="ycircumflex" unicode="&#x177;" horiz-adv-x="1127" 
d="M138 -407l35 145l35 -4q52 -12 94 -4t75.5 45t59.5 110l40 111l-425 1110h183l241 -662q36 -97 62.5 -192.5t54.5 -186.5h-58q28 91 55 187t62 192l242 662h181l-492 -1282q-32 -84 -78 -139.5t-106 -82t-135 -26.5q-43 0 -75.5 5.5t-50.5 11.5zM414 1270h-165v7l236 268
h157l238 -268v-7h-167l-149 179z" />
    <glyph glyph-name="Ydieresis" unicode="&#x178;" horiz-adv-x="1369" 
d="M596 0v619l-549 871h204l301 -483q49 -78 88.5 -150t81.5 -173h-72q42 102 82 175t87 148l300 483h203l-549 -871v-619h-177zM893 1683q-46 0 -79 33t-33 80q0 46 33 78.5t79 32.5t79 -32.5t33 -78.5q0 -47 -33 -80t-79 -33zM475 1683q-47 0 -80 33t-33 80q0 46 33 78.5
t80 32.5q46 0 78.5 -32.5t32.5 -78.5q0 -47 -32.5 -80t-78.5 -33z" />
    <glyph glyph-name="Zacute" unicode="&#x179;" horiz-adv-x="1278" 
d="M118 0v130l694 1008q45 65 94.5 130.5t99.5 130.5l20 -59q-90 -4 -180 -5.5t-180 -1.5h-547v157h1040v-132l-684 -992q-48 -70 -100 -138.5t-104 -136.5l-21 59q89 4 178 5t178 1h560v-156h-1048zM565 1635l141 294h187l-190 -294h-138z" />
    <glyph glyph-name="zacute" unicode="&#x17a;" horiz-adv-x="1096" 
d="M122 0v126l622 816v10h-605v154h818v-134l-608 -809v-9h626v-154h-853zM465 1251l141 294h187l-190 -294h-138z" />
    <glyph glyph-name="Zdotaccent" unicode="&#x17b;" horiz-adv-x="1278" 
d="M118 0v130l694 1008q45 65 94.5 130.5t99.5 130.5l20 -59q-90 -4 -180 -5.5t-180 -1.5h-547v157h1040v-132l-684 -992q-48 -70 -100 -138.5t-104 -136.5l-21 59q89 4 178 5t178 1h560v-156h-1048zM639 1683q-48 0 -82.5 33t-34.5 80t34.5 79.5t82.5 32.5t82.5 -32.5
t34.5 -79.5t-34.5 -80t-82.5 -33z" />
    <glyph glyph-name="zdotaccent" unicode="&#x17c;" horiz-adv-x="1096" 
d="M122 0v126l622 816v10h-605v154h818v-134l-608 -809v-9h626v-154h-853zM539 1299q-48 0 -82.5 33t-34.5 80t34.5 79.5t82.5 32.5t82.5 -32.5t34.5 -79.5t-34.5 -80t-82.5 -33z" />
    <glyph glyph-name="Zcaron" unicode="&#x17d;" horiz-adv-x="1278" 
d="M118 0v130l694 1008q45 65 94.5 130.5t99.5 130.5l20 -59q-90 -4 -180 -5.5t-180 -1.5h-547v157h1040v-132l-684 -992q-48 -70 -100 -138.5t-104 -136.5l-21 59q89 4 178 5t178 1h560v-156h-1048zM489 1929l150 -179l149 179h167v-7l-238 -269h-157l-236 269v7h165z" />
    <glyph glyph-name="zcaron" unicode="&#x17e;" horiz-adv-x="1096" 
d="M122 0v126l622 816v10h-605v154h818v-134l-608 -809v-9h626v-154h-853zM389 1545l150 -179l149 179h167v-7l-238 -269h-157l-236 269v7h165z" />
    <glyph glyph-name="longs" unicode="&#x17f;" horiz-adv-x="609" 
d="M154 0v1265q0 92 42.5 154.5t111.5 94.5t150 32q56 0 94.5 -8t56.5 -15l-38 -144q-13 5 -37 9.5t-58 4.5q-80 0 -117.5 -41t-37.5 -121v-1231h-167z" />
    <glyph glyph-name="bbar" unicode="&#x180;" horiz-adv-x="1230" 
d="M664 -23q-98 0 -163.5 33.5t-105.5 80.5t-63 89h-16v-180h-161v1490h167v-568h11q22 40 61 86.5t104 79.5t165 33q139 0 244 -70t164.5 -198.5t59.5 -301.5q0 -175 -59 -303.5t-164 -199.5t-244 -71zM639 127q104 0 175.5 55.5t109 151.5t37.5 218q0 121 -37 216
t-109 149t-176 54q-103 0 -175 -52.5t-109 -146.5t-37 -220q0 -125 37.5 -221t109.5 -150t174 -54zM-1 1230v132h638v-132h-638z" />
    <glyph glyph-name="uni0181" unicode="&#x181;" horiz-adv-x="1600" 
d="M58 1103v101q0 144 73.5 215t220.5 71h95v-156h-93q-68 0 -99.5 -31.5t-31.5 -100.5v-99h-165zM448 0v1490h524q152 0 254 -52t153 -141t51 -201q0 -93 -33 -156.5t-87.5 -102.5t-122.5 -59v-11q73 -6 142 -50t114 -123.5t45 -193.5q0 -115 -52.5 -205.5t-162.5 -142.5
t-283 -52h-542zM624 156h362q173 0 252 69t79 175q0 79 -39.5 142.5t-111 101t-170.5 37.5h-372v-525zM624 831h346q84 0 149.5 32.5t103 91t37.5 136.5q0 105 -72 174t-218 69h-346v-503z" />
    <glyph glyph-name="uni0182" unicode="&#x182;" horiz-adv-x="1329" 
d="M178 0v1490h897v-156h-721v-473h382q159 0 269 -52t167 -146.5t57 -223.5q0 -130 -57 -229t-167 -154.5t-269 -55.5h-558zM354 154h382q102 0 173.5 40.5t108.5 106.5t37 140q0 110 -83 187t-236 77h-382v-551z" />
    <glyph glyph-name="uni0183" unicode="&#x183;" horiz-adv-x="1230" 
d="M241 1346l-86 144h821v-144h-735zM664 -23q-98 0 -163.5 33.5t-105.5 80.5t-63 89h-16v-180h-161v1490h167v-568h11q22 40 61 86.5t104 79.5t165 33q139 0 244 -70t164.5 -198.5t59.5 -301.5q0 -175 -59 -303.5t-164 -199.5t-244 -71zM639 127q104 0 175.5 55.5
t109 151.5t37.5 218q0 121 -37 216t-109 149t-176 54q-103 0 -175 -52.5t-109 -146.5t-37 -220q0 -125 37.5 -221t109.5 -150t174 -54z" />
    <glyph glyph-name="uni0184" unicode="&#x184;" horiz-adv-x="1440" 
d="M536 1490v-156h-523v156h523zM491 861h430q158 0 267.5 -52t166.5 -146.5t57 -223.5q0 -130 -57 -229t-166.5 -154.5t-267.5 -55.5h-558v1490h176v-1336h382q102 0 173 40.5t108 106t37 140.5q0 110 -83 187t-235 77h-430v156z" />
    <glyph glyph-name="uni0185" unicode="&#x185;" horiz-adv-x="1267" 
d="M228 1536h47v-488h-47l-159 203v80zM341 934h84q21 36 56.5 82.5t99.5 81t168 34.5q140 0 246 -70.5t166.5 -200t60.5 -305.5q0 -177 -60 -307.5t-166 -201.5t-243 -71q-105 0 -169.5 35t-101 82.5t-57.5 84.5h-84v756zM1053 558q0 120 -36.5 216t-109 152t-180.5 56
q-105 0 -176.5 -53.5t-107.5 -149t-36 -221.5q0 -127 37 -224.5t108 -152.5t175 -55q107 0 180 58t109.5 156t36.5 218zM243 1490h167v-636l-57 -286l52 -351v-217h-162v1490z" />
    <glyph glyph-name="uni0186" unicode="&#x186;" horiz-adv-x="1490" 
d="M710 1511q193 0 342.5 -94t234.5 -266t85 -405t-85 -405.5t-234.5 -267t-342.5 -94.5q-116 0 -216.5 34.5t-180 99.5t-132 155.5t-72.5 202.5h177q16 -77 55 -138t95 -103.5t126 -64.5t148 -22q139 0 250 71t175.5 205.5t64.5 326.5t-64.5 326t-175.5 204.5t-250 70.5
q-78 0 -147.5 -22.5t-126 -64.5t-95.5 -103t-55 -138h-177q19 112 71.5 202t132 155t180.5 100t217 35z" />
    <glyph glyph-name="uni0187" unicode="&#x187;" horiz-adv-x="1490" 
d="M1219 1019v415q0 121 71 185t209 64q31 0 58 -2t43 -5v-140q-16 1 -35 2t-32 1q-80 0 -116 -25.5t-36 -79.5v-415h-162zM780 -21q-193 0 -343 94t-235 266t-85 405q0 234 85 406t235 266.5t343 94.5q115 0 216 -34.5t180.5 -99.5t132 -155.5t72.5 -202.5h-177
q-17 78 -55.5 138.5t-95 103t-126 64.5t-147.5 22q-140 0 -251 -71t-175 -205.5t-64 -326.5q0 -191 64.5 -325.5t175.5 -205t250 -70.5q78 0 147.5 22.5t126 64.5t95 103t55.5 138h177q-19 -112 -72 -202t-132.5 -155t-180 -100t-216.5 -35z" />
    <glyph glyph-name="uni0188" unicode="&#x188;" horiz-adv-x="1191" 
d="M904 786l-62 210q-52 157 8.5 230.5t204.5 73.5q32 0 55.5 -1.5t37.5 -4.5v-139q-19 2 -43.5 3t-41.5 1q-56 0 -77 -31.5t-1 -97.5l62 -224zM601 -23q-149 0 -262 71.5t-176.5 200.5t-63.5 298q0 172 63.5 301.5t176.5 201.5t262 72q84 0 156.5 -23t130.5 -65t99 -100
t60 -128l-162 -37q-11 41 -35.5 78t-60 65t-83 44t-105.5 16q-110 0 -184 -58t-111 -154t-37 -213q0 -115 37 -210.5t111 -152.5t184 -57q59 0 107 16t84 44.5t60.5 67t36.5 81.5l161 -37q-18 -71 -59 -130t-100 -102t-132.5 -66.5t-157.5 -23.5z" />
    <glyph glyph-name="Dbar1" unicode="&#x189;" horiz-adv-x="1495" 
d="M668 0h-360v156h349q185 0 307 71t182.5 204t60.5 317q0 183 -60 314t-177 201.5t-293 70.5h-376v156h388q217 0 371 -89t236 -255.5t82 -397.5q0 -233 -83 -400.5t-241.5 -257.5t-385.5 -90zM387 1490v-1490h-176v1490h176zM19 672v146h804v-146h-804z" />
    <glyph glyph-name="uni018A" unicode="&#x18a;" horiz-adv-x="1733" 
d="M58 1103v101q0 144 73.5 215t221.5 71h95v-156h-94q-68 0 -99.5 -31.5t-31.5 -100.5v-99h-165zM905 0h-360v156h349q185 0 307 71t182.5 204t60.5 317q0 183 -60 314t-177 201.5t-293 70.5h-376v156h388q217 0 371 -89t236 -255.5t82 -397.5q0 -233 -83 -400.5
t-241.5 -257.5t-385.5 -90zM624 1490v-1490h-176v1490h176z" />
    <glyph glyph-name="uni018B" unicode="&#x18b;" horiz-adv-x="1276" 
d="M1163 0h-556q-157 0 -268 55.5t-168.5 154.5t-57.5 229q0 129 57.5 224.5t168 149t268.5 53.5h357v431h-695v165h894v-1462zM964 161v543h-357q-155 -1 -224.5 -77t-69.5 -186q0 -74 30.5 -138.5t95 -103t168.5 -38.5h357z" />
    <glyph glyph-name="uni018C" unicode="&#x18c;" horiz-adv-x="1230" 
d="M989 1346h-734v144h821zM567 -23q-138 0 -244 71t-165 199.5t-59 303.5q0 173 59.5 301.5t165 198.5t243.5 70q101 0 165.5 -33t104 -79.5t61.5 -86.5h11v568h167v-1490h-162v180h-16q-22 -42 -62 -89t-105 -80.5t-164 -33.5zM591 127q103 0 175 54t109.5 150t37.5 221
q0 126 -37.5 220t-109 146.5t-175.5 52.5t-176 -54t-109 -149t-37 -216q0 -122 37.5 -218t109.5 -151.5t175 -55.5z" />
    <glyph glyph-name="deltaturn" unicode="&#x18d;" horiz-adv-x="1084" 
d="M886 -376h-705v150h448q-16 22 -53.5 58.5t-80.5 76.5t-79 71q-159 136 -257 272t-98 301v19q0 167 57 292.5t164.5 196.5t258.5 71q152 0 260.5 -70.5t166 -196t57.5 -290.5v-19q0 -124 -53.5 -226.5t-152.5 -169t-237 -82.5q-17 -2 -25 -2.5t-22 -0.5q44 -39 90 -81
t92.5 -84.5t89 -85t79.5 -85.5v-115zM833 553v19q0 117 -31 208.5t-95 144t-166 52.5q-99 0 -162.5 -52t-95 -143.5t-31.5 -209.5v-19q0 -116 54 -204.5t128 -140.5q22 -7 44 -10t49 -3q104 0 171.5 49.5t101 131.5t33.5 177z" />
    <glyph glyph-name="Eturn" unicode="&#x18e;" horiz-adv-x="1219" 
d="M1042 1490v-1490h-911v156h735v502h-685v157h685v519h-744v156h920z" />
    <glyph glyph-name="uni018F" unicode="&#x18f;" horiz-adv-x="1519" 
d="M750 -21q-133 0 -247 43.5t-199 124t-132.5 192.5t-47.5 250v153h1174v-155h-1055l54 9q0 -138 59.5 -240t162.5 -157.5t231 -55.5q142 0 250 71t168.5 206t60.5 324q0 191 -63.5 325.5t-173 206t-248.5 71.5q-82 0 -151 -23t-124 -66.5t-94 -103.5t-60 -134h-181
q20 107 72.5 196.5t133 155.5t183 102.5t221.5 36.5q193 0 341 -94.5t232 -266.5t84 -406q0 -232 -80 -404t-227 -266.5t-344 -94.5z" />
    <glyph glyph-name="Epsilon1" unicode="&#x190;" horiz-adv-x="1292" 
d="M641 -21q-145 0 -259 55.5t-179.5 152t-65.5 219.5q0 93 36.5 168t105 124t163.5 65v10q-117 35 -185 123.5t-68 212.5q0 109 55.5 200t156.5 146.5t238 55.5q132 0 239 -51.5t171 -143t67 -211.5h-170q-2 79 -44 135t-110 86.5t-150 30.5q-85 0 -148 -32t-97.5 -90
t-34.5 -135q0 -79 39 -137t108 -90t160 -32h113v-154h-113q-111 0 -191.5 -35.5t-123.5 -98t-43 -145.5q0 -81 43 -143t118 -96t172 -34q91 0 163.5 31t115.5 89t47 137h178q-4 -122 -69.5 -215t-178.5 -145.5t-259 -52.5z" />
    <glyph glyph-name="uni0191" unicode="&#x191;" horiz-adv-x="1193" 
d="M-30 -418v149q17 -2 36.5 -3t31.5 -1q79 0 109.5 25.5t30.5 79.5v296h176v-303q0 -122 -71.5 -186t-209.5 -64q-31 0 -58.5 2t-44.5 5zM178 0v1490h899v-156h-723v-520h656v-156h-656v-658h-176z" />
    <glyph glyph-name="florin" unicode="&#x192;" horiz-adv-x="767" 
d="M652 1081v-143h-205v-1015q0 -166 -82.5 -253.5t-232.5 -87.5q-31 0 -58 2.5t-55 11.5l14 151q16 -6 49.5 -8t46.5 -2q61 0 102 49t41 137v1015h-183v143h183v119q0 173 88 264.5t223 91.5q41 0 89 -7t76 -18l-41 -151q-15 5 -35 8t-46 3q-86 0 -132.5 -47.5
t-46.5 -143.5v-119h205z" />
    <glyph glyph-name="uni0193" unicode="&#x193;" horiz-adv-x="1519" 
d="M1222 1020v413q0 122 71.5 185.5t208.5 63.5q32 0 58.5 -2t42.5 -5v-140q-16 1 -35 2t-32 1q-79 0 -115.5 -25t-36.5 -80v-413h-162zM783 -21q-198 0 -347.5 94.5t-234 266.5t-84.5 404q0 234 84.5 406t232.5 266.5t340 94.5q119 0 221.5 -36.5t183 -102.5t133.5 -155.5
t72 -196.5h-181q-21 73 -59.5 132.5t-93.5 103.5t-124 67.5t-151 23.5q-138 0 -248 -71t-173.5 -206t-63.5 -326q0 -189 64 -323.5t175.5 -206t253.5 -71.5q129 0 228 55.5t155 157.5t56 240l54 -9h-452v155h570v-153q0 -184 -79 -321t-216.5 -213t-315.5 -76z" />
    <glyph glyph-name="Gamma1" unicode="&#x194;" horiz-adv-x="1266" 
d="M8 1490h193l509 -1212q57 -135 99.5 -225.5t66.5 -151t24 -105.5q0 -75 -32 -128.5t-91.5 -81.5t-143.5 -28q-124 0 -195.5 62t-71.5 177q0 28 8 59.5t23.5 70t38 88.5t51.5 114.5t64 146.5l515 1214h193l-595 -1376q-38 -89 -64.5 -149t-41 -100t-14.5 -68
q0 -35 24.5 -59.5t64.5 -24.5t65 25t25 59q0 29 -13.5 68.5t-40 100t-65.5 149.5z" />
    <glyph glyph-name="uni0195" unicode="&#x195;" horiz-adv-x="1927" 
d="M1249 -20q-106 0 -190 49t-133 151t-49 261v248q0 134 -70.5 207.5t-192.5 73.5q-84 0 -150 -35t-104 -103t-38 -166v-666h-167v1490h167v-561h12q39 88 119 140t208 52q113 0 199.5 -46.5t136 -139t49.5 -232.5v-262q0 -128 33.5 -196t83.5 -92.5t97 -24.5q94 0 172 83
t124.5 268.5t46.5 493.5v133h169v-134q0 -349 -67.5 -568t-185.5 -321.5t-270 -102.5z" />
    <glyph glyph-name="Iota" unicode="&#x196;" horiz-adv-x="538" 
d="M406 -6q-127 -1 -189 62t-62 184v1250h167v-1213q0 -77 21 -106.5t81 -27.5q23 0 36 1.5t25 4.5l27 -142q-20 -5 -48.5 -9t-57.5 -4z" />
    <glyph glyph-name="uni0197" unicode="&#x197;" horiz-adv-x="664" 
d="M420 1490v-1490h-176v1490h176zM20 705v128h623v-128h-623z" />
    <glyph glyph-name="uni0198" unicode="&#x198;" horiz-adv-x="1369" 
d="M178 0v1490h176v-751h17l600 662q57 63 124.5 88t135.5 15t127 -53l-70 -130q-50 33 -100 23.5t-103 -66.5l-432 -465l632 -813h-214l-528 690l-189 -213v-477h-176z" />
    <glyph glyph-name="uni0199" unicode="&#x199;" horiz-adv-x="1096" 
d="M155 886v364q0 122 73.5 185.5t211.5 63.5q31 0 57.5 -1.5t42.5 -4.5v-141q-15 2 -34.5 2.5t-31.5 0.5q-80 0 -116 -25t-36 -80v-364h-167zM310 402v207h29l489 497h209l-515 -522l-18 -1zM155 0v1106h167v-1106h-167zM857 0l-434 548l119 117l529 -665h-214z" />
    <glyph glyph-name="uni019A" unicode="&#x19a;" horiz-adv-x="476" 
d="M322 1490v-1490h-167v1490h167zM-82 702v132h638v-132h-638z" />
    <glyph glyph-name="lambdabar" unicode="&#x19b;" horiz-adv-x="1287" 
d="M263 1083l-8 141l496 193l9 -144zM52 0l426 1113l-33 87q-28 73 -61 108.5t-74 44t-94 -3.5l-34 -3l-35 145q20 7 54 12.5t71 5.5q75 0 135 -26.5t106.5 -81.5t78.5 -141l371 -969q28 -72 61 -108.5t74 -45t94 2.5l34 3l35 -144q-19 -7 -52 -12.5t-74 -5.5
q-72 0 -132 26.5t-106.5 81.5t-78.5 141l-163 432q-37 99 -64 192t-56 187h58q-28 -91 -54.5 -186.5t-62.5 -192.5l-241 -662h-183z" />
    <glyph glyph-name="mcapturn" unicode="&#x19c;" horiz-adv-x="1831" 
d="M1480 216v1274h191v-1490h-181zM1495 493l87 1q1 -147 -41 -263.5t-131.5 -183.5t-233.5 -67q-107 0 -187 43.5t-124.5 143t-44.5 268.5v1055h191v-1055q0 -114 28 -178.5t73.5 -90t96.5 -25.5q109 0 171.5 50t88.5 130.5t26 171.5zM837 493l87 1q2 -147 -41 -263.5
t-134 -183.5t-235 -67q-108 0 -188 44t-123 144t-43 267v1055h193v-1055q0 -114 27.5 -178.5t71.5 -90t95 -25.5q90 0 147 33.5t88.5 86.5t43 114.5t11.5 117.5z" />
    <glyph glyph-name="Nhook" unicode="&#x19d;" horiz-adv-x="1528" 
d="M-30 -418v149q17 -2 36.5 -3t31.5 -1q79 0 109.5 25.5t30.5 79.5v296h176v-303q0 -122 -71.5 -186t-209.5 -64q-31 0 -58.5 2t-44.5 5zM178 0v1490h205l626 -971q24 -37 58 -93.5t72.5 -125t74.5 -144.5l-24 -6q-7 77 -10.5 152t-4.5 139t-1 108v941h176v-1490h-207
l-565 874q-34 54 -71.5 115.5t-85 143.5t-113.5 197l31 9q4 -107 7.5 -197t5.5 -158t2 -108v-876h-176z" />
    <glyph glyph-name="uni019E" unicode="&#x19e;" horiz-adv-x="1191" 
d="M322 666v-666h-167v1106h161v-266h-28q50 151 145.5 216t221.5 65q112 0 198.5 -46.5t135 -139.5t48.5 -232v-1121h-168v1107q0 133 -69.5 207t-189.5 74q-82 0 -147.5 -35t-103 -103t-37.5 -166z" />
    <glyph glyph-name="Obar" unicode="&#x19f;" horiz-adv-x="1555" 
d="M1290 819v-150h-1036v150h1036zM778 -21q-191 0 -340.5 94t-235 266t-85.5 405q0 234 85.5 406t235 266.5t340.5 94.5q192 0 341 -94.5t234 -266.5t85 -406q0 -233 -85 -405t-234 -266t-341 -94zM778 143q137 0 247 70t175 204.5t65 326.5q0 194 -65 328.5t-175 204.5
t-247 70t-247.5 -70t-175.5 -204.5t-65 -328.5q0 -192 65 -326.5t175.5 -204.5t247.5 -70z" />
    <glyph glyph-name="Ohorn" unicode="&#x1a0;" horiz-adv-x="1551" 
d="M775 1390v121q60 0 96.5 -3t77 -7.5t109.5 -7.5t193 -3q23 0 23 23v191h159v-183q0 -83 -41 -124.5t-125 -41.5q-41 0 -77 5t-85.5 12t-127 12t-202.5 6zM778 -21q-191 0 -340.5 94t-235 266t-85.5 405q0 234 85.5 406t235 266.5t340.5 94.5q192 0 341 -94.5t234 -266.5
t85 -406q0 -233 -85 -405t-234 -266t-341 -94zM778 143q137 0 247 70t175 204.5t65 326.5q0 194 -65 328.5t-175 204.5t-247 70t-247.5 -70t-175.5 -204.5t-65 -328.5q0 -192 65 -326.5t175.5 -204.5t247.5 -70z" />
    <glyph glyph-name="ohorn" unicode="&#x1a1;" horiz-adv-x="1199" 
d="M600 1010v112q44 0 83 -2.5t78 -5.5t81.5 -5t92.5 -2q38 0 38 37v206h156v-192q0 -75 -41 -112.5t-125 -37.5q-88 0 -181.5 1t-181.5 1zM601 -24q-149 0 -262 72t-176.5 201t-63.5 298q0 172 63.5 301.5t176.5 201.5t262 72q150 0 263.5 -72t176.5 -201.5t63 -301.5
q0 -169 -63 -298t-176.5 -201t-263.5 -72zM601 126q111 0 185.5 57.5t111.5 153t37 210.5q0 116 -37 212.5t-111.5 154.5t-185.5 58q-110 0 -184 -58t-111 -154t-37 -213q0 -115 37 -210.5t111 -153t184 -57.5z" />
    <glyph glyph-name="OI" unicode="&#x1a2;" horiz-adv-x="1751" 
d="M1234 769v-574q-44 -67 -119.5 -115.5t-171.5 -74t-204 -25.5q-145 0 -260 48.5t-196 140t-123.5 220.5t-42.5 289v116l200 4v-120q0 -168 49 -288.5t145.5 -185t238.5 -64.5q92 0 169 28t124 79v522h191zM1234 1296v-567h-191v510q-44 52 -122 80.5t-168 28.5
q-142 0 -239 -62.5t-147 -182.5t-50 -294v-113h-200v113q0 163 43.5 293t126.5 221t201 139t266 48q104 0 197 -26.5t166.5 -75t116.5 -112.5zM1573 1490v-1908h-193v1714l-237 -95v168l279 121h151z" />
    <glyph glyph-name="uni01A3" unicode="&#x1a3;" horiz-adv-x="1270" 
d="M546 135q47 0 82.5 12t67.5 33v385h193v-432q-40 -47 -93 -81t-117 -53t-141 -19q-155 0 -261 74.5t-160.5 198.5t-54.5 269v38q0 161 53.5 290.5t161.5 205.5t269 76q74 0 137 -18.5t115.5 -52.5t90.5 -81v-473l-193 2v421q-30 22 -68 34.5t-87 12.5
q-108 0 -170.5 -58.5t-89 -153t-26.5 -205.5v-38q1 -120 36 -207t100.5 -133.5t154.5 -46.5zM1208 1118v-1536h-191v1290l-219 -128v239l258 135h152z" />
    <glyph glyph-name="uni01A4" unicode="&#x1a4;" horiz-adv-x="1561" 
d="M58 1103v101q0 144 73.5 215t221.5 71h95v-156h-94q-68 0 -99.5 -31.5t-31.5 -100.5v-99h-165zM448 0v1490h509q166 0 277.5 -61.5t167 -166.5t55.5 -239q0 -133 -56 -239t-167 -168t-278 -62h-380v156h374q115 0 188.5 40.5t108.5 111.5t35 161q0 91 -35 161t-109 110
t-190 40h-324v-1334h-176z" />
    <glyph glyph-name="uni01A5" unicode="&#x1a5;" horiz-adv-x="1230" 
d="M155 886v364q0 122 73.5 185.5t211.5 63.5q31 0 57.5 -1.5t42.5 -4.5v-141q-15 2 -34.5 2.5t-31.5 0.5q-80 0 -116 -25t-36 -80v-364h-167zM155 -418v1524h161v-184h16q22 40 61 86.5t104.5 79.5t165.5 33q139 0 244 -70t164.5 -198.5t59.5 -301.5q0 -175 -59 -303.5
t-164 -199.5t-244 -71q-98 0 -163.5 33.5t-105 80.5t-62.5 89h-11v-598h-167zM639 127q104 0 175.5 55.5t109 151.5t37.5 218q0 121 -37 216t-109 149t-176 54q-103 0 -175 -52.5t-109 -146.5t-37 -220q0 -125 37.5 -221t109.5 -150t174 -54z" />
    <glyph glyph-name="YR" unicode="&#x1a6;" horiz-adv-x="1460" 
d="M103 1390v202h202v-202h-202zM103 1490h486q164 0 277 -50.5t172 -148t59 -238.5q0 -102 -40 -184.5t-115 -140.5t-181 -87l-53 -21h-450v159h336q99 1 167 36.5t102.5 97t34.5 139.5q0 83 -32 144.5t-100.5 96t-176.5 34.5h-284v-1327h-202v1490zM1141 -360l-545 1023
h211l548 -1014v-9h-214z" />
    <glyph glyph-name="uni01A7" unicode="&#x1a7;" horiz-adv-x="1297" 
d="M647 -25q-168 0 -288 56t-183.5 153.5t-63.5 219.5q0 97 37.5 165.5t99.5 116t136 78t145 49.5l155 42q69 19 135 48t110 77t44 122q0 73 -41.5 129.5t-115.5 89.5t-172 33q-140 0 -232.5 -66.5t-104.5 -184.5h-172q5 118 69 210t176 145t259 53q144 0 258.5 -52
t181 -146t66.5 -219q0 -148 -99 -242.5t-287 -146.5l-177 -49q-88 -24 -155.5 -55.5t-105.5 -78t-38 -117.5q0 -81 47 -142.5t129 -95.5t187 -34q97 0 175.5 30.5t127.5 90.5t55 149h180q-6 -129 -73 -225.5t-185.5 -149.5t-279.5 -53z" />
    <glyph glyph-name="uni01A8" unicode="&#x1a8;" horiz-adv-x="1054" 
d="M118 839q32 127 130 204.5t265 77.5q118 0 209 -40.5t143 -112.5t52 -166q0 -117 -73.5 -192t-222.5 -111l-183 -43q-82 -19 -125 -58t-43 -100q0 -74 70.5 -124t187.5 -50q109 0 175 46t85 138l162 -28q-17 -99 -73 -166.5t-145 -102t-205 -34.5q-126 0 -223 42
t-151 117t-54 172q0 111 70.5 186t222.5 111l170 40q95 23 141.5 62t46.5 103q0 73 -67 120t-170 47q-107 0 -163.5 -49.5t-76.5 -119.5z" />
    <glyph glyph-name="uni01A9" unicode="&#x1a9;" horiz-adv-x="1271" 
d="M109 0v137l449 471q37 39 75.5 75t72 67t58.5 54v-74q-25 24 -58.5 53.5t-71 65t-76.5 74.5l-415 430v137h1095v-156h-621q-83 0 -151.5 1.5t-129.5 4.5l-11 32q31 -27 66 -57.5t75 -68t87 -87.5l346 -360v-63l-346 -366q-53 -56 -100 -102t-88 -83.5t-74 -66.5l11 32
q70 3 145.5 4.5t169.5 1.5h631v-156h-1139z" />
    <glyph glyph-name="eshlooprev" unicode="&#x1aa;" horiz-adv-x="1086" 
d="M589 1137l193 84v-1296q0 -102 34 -143.5t99 -41.5q32 0 66 10v-153q-21 -8 -54 -12t-60 -4q-139 0 -208.5 87.5t-69.5 256.5v1212zM106 1220q0 94 45 171t122 122t171 45q93 0 169.5 -45t122.5 -122t46 -171q0 -92 -46 -168.5t-122.5 -123t-169.5 -46.5q-94 0 -171 46
t-122.5 123t-44.5 169zM444 1059q64 0 110.5 41.5t46.5 123.5q0 79 -46.5 121.5t-110.5 42.5q-67 0 -113.5 -42.5t-46.5 -121.5q0 -82 46.5 -123.5t113.5 -41.5z" />
    <glyph glyph-name="uni01AB" unicode="&#x1ab;" horiz-adv-x="649" 
d="M225 -418v141q16 -2 36 -2.5t33 -0.5q101 0 140.5 39t24.5 123l-16 127h164l16 -126q23 -135 -53 -221.5t-244 -86.5q-31 0 -58 2t-43 5zM189 1376h167v-1099q0 -74 31.5 -107.5t102.5 -32.5q17 0 42.5 3.5t46.5 6.5l28 -142q-27 -8 -59.5 -12t-63.5 -4q-141 -1 -218 71
t-77 204v1112zM584 1106v-144h-566v144h566z" />
    <glyph glyph-name="uni01AC" unicode="&#x1ac;" horiz-adv-x="1360" 
d="M122 1103v101q0 144 74 215t221 71h95v-156h-94q-68 0 -99.5 -31.5t-31.5 -100.5v-99h-165zM512 1334v156h757v-156h-468v-1334h-176v1334h-113z" />
    <glyph glyph-name="uni01AD" unicode="&#x1ad;" horiz-adv-x="637" 
d="M183 1106h160v-804q0 -84 35.5 -123t112.5 -37q17 0 36 1.5t40 4.5l27 -143q-23 -7 -54.5 -11.5t-62.5 -4.5q-132 -1 -213 75t-81 200v842zM578 1106v-138h-560v138h560zM183 887v364q0 122 74 185.5t211 63.5q32 0 58.5 -1.5t42.5 -4.5v-141q-15 2 -34.5 2.5t-32.5 0.5
q-79 0 -115.5 -25t-36.5 -80v-364h-167z" />
    <glyph glyph-name="Trthook" unicode="&#x1ae;" horiz-adv-x="1303" 
d="M844 -425q-137 0 -208.5 64t-71.5 186v336h177v-336q0 -55 34 -78.5t113 -23.5q11 0 31 0.5t35 2.5v-144q-16 -3 -45 -5t-65 -2zM91 1334v156h1121v-156h-471v-1334h-177v1334h-473z" />
    <glyph glyph-name="Uhorn" unicode="&#x1af;" horiz-adv-x="1502" 
d="M1158 1355v135h174q22 0 22 23v191h160v-183q0 -83 -41 -124.5t-125 -41.5h-190zM752 -24q-174 0 -304.5 69t-202.5 189t-72 273v983h177v-970q0 -110 49 -195.5t139 -135t214 -49.5t214 49.5t138.5 135t48.5 195.5v970h176v-983q0 -153 -72 -273t-201.5 -189t-303.5 -69
z" />
    <glyph glyph-name="uhorn" unicode="&#x1b0;" horiz-adv-x="1256" 
d="M941 992v114h84q38 0 38 37v209h150v-194q0 -83 -41 -124.5t-125 -41.5h-106zM536 -15q-112 0 -198 46.5t-134.5 140t-48.5 231.5v703h167v-690q0 -132 70 -206t190 -74q81 0 146 35t103 103t38 166v666h168v-1106h-162v266h27q-50 -152 -146 -216.5t-220 -64.5z" />
    <glyph glyph-name="Upsilon2" unicode="&#x1b1;" horiz-adv-x="1549" 
d="M118 705q0 214 85.5 368.5t233.5 248.5v12h-319v156h528v-199q-97 -42 -178 -126t-130 -201t-49 -258q0 -157 62 -284.5t171.5 -202.5t251.5 -75t251 75t171 202.5t62 284.5q0 141 -48.5 258t-129 201t-178.5 126v199h529v-156h-320v-12q149 -92 234.5 -247.5
t85.5 -369.5q0 -213 -84.5 -376.5t-233 -256t-339.5 -92.5q-143 0 -263 53t-208.5 150t-136.5 229.5t-48 292.5z" />
    <glyph glyph-name="Vcursive" unicode="&#x1b2;" horiz-adv-x="1277" 
d="M638 -20q-150 0 -269.5 55t-189 164.5t-69.5 274.5v1016h198v-1016q1 -171 90.5 -252.5t239.5 -81.5t239.5 81.5t89.5 252.5v691q0 99 -41.5 138.5t-119.5 39.5q-14 0 -35 -1t-36 -5v155q25 8 57.5 13t65.5 5q134 0 222.5 -89t88.5 -256v-691q0 -164 -73 -274t-194 -165
t-264 -55z" />
    <glyph glyph-name="uni01B3" unicode="&#x1b3;" horiz-adv-x="1428" 
d="M657 760v34h36v-34h-36zM47 1490h201l427 -709l342 566q47 79 110 119t133.5 42.5t139.5 -30.5l-48 -142q-52 23 -99.5 10.5t-86.5 -75.5l-403 -652v-619h-176v619z" />
    <glyph glyph-name="uni01B4" unicode="&#x1b4;" horiz-adv-x="1381" 
d="M893 1106l55 150q29 77 61 133t84.5 86t140.5 30q33 0 63 -2t51 -6l-1 -136q-15 2 -33.5 3t-32.5 1q-51 0 -80.5 -12.5t-46.5 -38t-32 -64.5l-55 -144h-174zM138 -407l35 145l35 -4q52 -12 94 -4t75.5 45t59.5 110l40 111l-425 1110h183l241 -662q36 -97 62.5 -192.5
t54.5 -186.5h-58q28 91 55 187t62 192l242 662h181l-492 -1282q-32 -84 -78 -139.5t-106 -82t-135 -26.5q-43 0 -75.5 5.5t-50.5 11.5z" />
    <glyph glyph-name="Zbar" unicode="&#x1b5;" horiz-adv-x="1278" 
d="M118 0v130l694 1008q45 65 94.5 130.5t99.5 130.5l20 -59q-90 -4 -180 -5.5t-180 -1.5h-547v157h1040v-132l-684 -992q-48 -70 -100 -138.5t-104 -136.5l-21 59q89 4 178 5t178 1h560v-156h-1048zM237 672v146h804v-146h-804z" />
    <glyph glyph-name="zbar" unicode="&#x1b6;" horiz-adv-x="1096" 
d="M122 0v126l622 816v10h-605v154h818v-134l-608 -809v-9h626v-154h-853zM232 494v128h623v-128h-623z" />
    <glyph glyph-name="uni01B7" unicode="&#x1b7;" horiz-adv-x="1385" 
d="M91 67h180q6 -103 63.5 -182t148.5 -123t199 -44q128 0 221 60.5t144 164.5t51 234q0 145 -63.5 252t-176.5 166t-260 60h-111v145l506 522v9h-817v159h1058v-129l-532 -556v-13q169 -7 297.5 -87.5t201 -215.5t72.5 -311q0 -133 -42.5 -246t-120.5 -196.5t-187.5 -129.5
t-243.5 -46q-160 0 -290.5 64.5t-210 178.5t-87.5 264z" />
    <glyph glyph-name="uni01B8" unicode="&#x1b8;" horiz-adv-x="1385" 
d="M1295 67q-8 -150 -88 -264.5t-210 -178.5t-291 -64q-134 0 -243 46t-187.5 129.5t-121 196.5t-42.5 246q0 176 73 311.5t202 215.5t296 87v13l-532 556v129h1060v-159h-819v-9l506 -522v-145h-109q-147 -1 -260.5 -60t-177.5 -166t-64 -252q0 -130 51.5 -234t145 -164.5
t219.5 -60.5q109 0 200.5 44t148 123t63.5 182h180z" />
    <glyph glyph-name="uni01B9" unicode="&#x1b9;" horiz-adv-x="1296" 
d="M646 -404q-149 0 -264 57t-180 156.5t-65 226.5q0 124 61 222t166 156.5t238 64.5v9l-409 490v129h881v-156h-643v-9l380 -456v-142h-116q-131 0 -216.5 -40.5t-126 -110t-40.5 -155.5q0 -91 43 -155t118 -98t171 -34q92 0 164 30.5t115.5 88.5t48.5 139h180
q-6 -127 -74.5 -219.5t-180.5 -143t-251 -50.5z" />
    <glyph glyph-name="uni01BA" unicode="&#x1ba;" horiz-adv-x="1086" 
d="M135 1118h870v-121l-570 -500h-100v122l389 344h-588zM275 -134q0 -74 59 -115t160 -41q65 0 123 19t97 64t43 121h191q-1 -91 -52.5 -173t-150 -133.5t-241.5 -51.5q-128 0 -221.5 40.5t-145 112.5t-51.5 168q0 129 99 208t300 121q89 20 139.5 40.5t72 50t21.5 75.5
q0 59 -51 92t-166 33h-76l11 153h65q126 0 218 -35.5t142.5 -99.5t50.5 -149q0 -91 -47 -151.5t-135 -98.5t-212 -66q-98 -21 -151 -50t-72.5 -63t-19.5 -71z" />
    <glyph glyph-name="uni01BB" unicode="&#x1bb;" horiz-adv-x="1229" 
d="M143 0v131l499 530q88 93 144.5 162.5t84 131.5t27.5 133q0 83 -37.5 143t-103 93t-150.5 33q-88 0 -153.5 -37.5t-101 -104t-35.5 -155.5h-169q0 133 60.5 235t164.5 159t238 57q133 0 235.5 -55.5t160.5 -150.5t58 -214q0 -84 -30 -162t-102 -172.5t-198 -226.5
l-350 -365v-9h707v-156h-949zM289 555v146h804v-146h-804z" />
    <glyph glyph-name="uni01BC" unicode="&#x1bc;" horiz-adv-x="1261" 
d="M402 1490v-151h-315v151h315zM651 -20q-132 0 -236.5 53t-166.5 144.5t-67 208.5h172q9 -109 93.5 -179.5t204.5 -70.5q94 0 166.5 43.5t113.5 120.5t41 175q0 100 -42.5 178t-116 122.5t-168.5 44.5q-81 0 -155.5 -28.5t-117.5 -75.5l-167 17l80 757h789v-156h-638
l-50 -459h7q51 46 124.5 73.5t157.5 27.5q101 0 186.5 -37t149 -104t98.5 -158t35 -200q0 -143 -63.5 -255.5t-174.5 -177t-255 -64.5z" />
    <glyph glyph-name="uni01BD" unicode="&#x1bd;" horiz-adv-x="1076" 
d="M366 476l-168 13l70 593h673v-165h-511l-31 -249q35 25 95.5 44t118.5 21q121 3 206 -41t130 -129t45 -204q0 -106 -43.5 -191.5t-137.5 -135.5t-245 -50q-70 0 -143.5 20t-134 60t-98 101t-37.5 142l186 16q0 -83 64.5 -131.5t162.5 -48.5q122 0 178.5 61.5t56.5 157.5
q0 99 -57.5 159.5t-169.5 60.5q-82 0 -132 -30.5t-78 -73.5zM381 1082v-165h-298v165h298z" />
    <glyph glyph-name="glottalstopbarinv" unicode="&#x1be;" horiz-adv-x="1091" 
d="M787 289q0 50 -26.5 83.5t-68.5 60.5t-88.5 55t-88 66t-68.5 94t-27 139v555h195v-550q0 -64 26.5 -104.5t68 -69t88.5 -53.5t88.5 -57t68 -80t26.5 -123q0 -96 -53 -169t-148 -114.5t-221 -41.5q-145 0 -244 52t-150 134t-51 174h192q3 -75 41 -120.5t95 -65.5t117 -20
q109 0 168.5 44t59.5 111zM817 1081v-143h-593v143h593z" />
    <glyph glyph-name="uni01BF" unicode="&#x1bf;" horiz-adv-x="1270" 
d="M367 913v-1329h-193v1534h176zM319 697l-91 -68q14 118 48 211t88.5 158.5t130.5 99.5t175 34q137 0 231.5 -68.5t143 -192.5t48.5 -288v-48q0 -154 -53.5 -266.5t-156 -194t-248.5 -142t-332 -111.5l-1 155q177 43 311.5 112t210.5 177.5t76 269.5v48q0 107 -31 195
t-94.5 141t-162.5 53q-85 0 -143.5 -38t-95 -100t-54.5 -137z" />
    <glyph glyph-name="pipe" unicode="&#x1c0;" horiz-adv-x="518" 
d="M335 1491v-1491h-152v1491h152z" />
    <glyph glyph-name="pipedbl" unicode="&#x1c1;" horiz-adv-x="714" 
d="M277 1491v-1491h-152v1491h152zM549 1491v-1491h-152v1491h152z" />
    <glyph glyph-name="pipedblbar" unicode="&#x1c2;" horiz-adv-x="476" 
d="M312 1491v-1491h-152v1491h152zM-82 957v132h638v-132h-638zM-82 460v132h638v-132h-638z" />
    <glyph glyph-name="exclam1" unicode="&#x1c3;" horiz-adv-x="559" 
d="M196 460l-11 1030h188l-12 -1030h-165zM280 -13q-53 0 -90 37t-37 88q0 53 37 90t90 37q52 0 88.5 -37t36.5 -90q0 -51 -36.5 -88t-88.5 -37z" />
    <glyph glyph-name="Dzcaron_" unicode="&#x1c5;" horiz-adv-x="2559" 
d="M635 0h-360v156h349q185 0 307 71t182.5 204t60.5 317q0 183 -60 314t-177 201.5t-293 70.5h-376v156h388q217 0 371 -89t236 -255.5t82 -397.5q0 -233 -83 -400.5t-241.5 -257.5t-385.5 -90zM354 1490v-1490h-176v1490h176zM1585 0v126l622 816v10h-605v154h818v-134
l-608 -809v-9h626v-154h-853zM1851 1545l150 -179l149 179h167v-7l-238 -269h-157l-236 269v7h165z" />
    <glyph glyph-name="uni01C6" unicode="&#x1c6;" horiz-adv-x="2327" 
d="M567 -23q-138 0 -244 71t-165 199.5t-59 303.5q0 173 59.5 301.5t165 198.5t243.5 70q101 0 165.5 -33t104 -79.5t61.5 -86.5h11v568h167v-1490h-162v180h-16q-22 -42 -62 -89t-105 -80.5t-164 -33.5zM591 127q103 0 175 54t109.5 150t37.5 221q0 126 -37.5 220
t-109 146.5t-175.5 52.5t-176 -54t-109 -149t-37 -216q0 -122 37.5 -218t109.5 -151.5t175 -55.5zM1352 0v126l622 816v10h-605v154h818v-134l-608 -809v-9h626v-154h-853zM1619 1545l150 -179l149 179h167v-7l-238 -269h-157l-236 269v7h165z" />
    <glyph glyph-name="uni01C7" unicode="&#x1c7;" horiz-adv-x="2296" 
d="M178 0v1490h176v-1334h700v-156h-876zM1684 -20q-195 0 -317 115.5t-122 327.5v79h176v-79q0 -139 72 -213t191 -74t191 74t72 213v1067h176v-1067q0 -212 -122 -327.5t-317 -115.5z" />
    <glyph glyph-name="uni01C8" unicode="&#x1c8;" horiz-adv-x="1621" 
d="M178 0v1490h176v-1334h700v-156h-876zM1299 1106h168v-1205q1 -98 -35 -170t-106 -110.5t-172 -38.5h-41v153h36q76 0 113 44t37 127v1200zM1384 1299q-48 0 -82.5 33t-34.5 80t34.5 79.5t82.5 32.5t82.5 -32.5t34.5 -79.5t-34.5 -80t-82.5 -33z" />
    <glyph glyph-name="uni01C9" unicode="&#x1c9;" horiz-adv-x="953" 
d="M322 1490v-1490h-167v1490h167zM630 1106h168v-1205q1 -98 -35 -170t-106 -110.5t-172 -38.5h-41v153h36q76 0 113 44t37 127v1200zM715 1299q-48 0 -82.5 33t-34.5 80t34.5 79.5t82.5 32.5t82.5 -32.5t34.5 -79.5t-34.5 -80t-82.5 -33z" />
    <glyph glyph-name="uni01CA" unicode="&#x1ca;" horiz-adv-x="2680" 
d="M178 0v1490h205l626 -971q24 -37 58 -93.5t72.5 -125t74.5 -144.5l-24 -6q-7 77 -10.5 152t-4.5 139t-1 108v941h176v-1490h-207l-565 874q-34 54 -71.5 115.5t-85 143.5t-113.5 197l31 9q4 -107 7.5 -197t5.5 -158t2 -108v-876h-176zM2067 -20q-195 0 -317 115.5
t-122 327.5v79h176v-79q0 -139 72 -213t191 -74t191 74t72 213v1067h176v-1067q0 -212 -122 -327.5t-317 -115.5z" />
    <glyph glyph-name="uni01CB" unicode="&#x1cb;" horiz-adv-x="2005" 
d="M178 0v1490h205l626 -971q24 -37 58 -93.5t72.5 -125t74.5 -144.5l-24 -6q-7 77 -10.5 152t-4.5 139t-1 108v941h176v-1490h-207l-565 874q-34 54 -71.5 115.5t-85 143.5t-113.5 197l31 9q4 -107 7.5 -197t5.5 -158t2 -108v-876h-176zM1682 1106h168v-1205
q1 -98 -35 -170t-106 -110.5t-172 -38.5h-41v153h36q76 0 113 44t37 127v1200zM1767 1299q-48 0 -82.5 33t-34.5 80t34.5 79.5t82.5 32.5t82.5 -32.5t34.5 -79.5t-34.5 -80t-82.5 -33z" />
    <glyph glyph-name="uni01CC" unicode="&#x1cc;" horiz-adv-x="1668" 
d="M322 666v-666h-167v1106h161v-266h-28q50 151 145.5 216t221.5 65q112 0 198.5 -46.5t135 -139.5t48.5 -232v-703h-168v689q0 133 -69.5 207t-189.5 74q-82 0 -147.5 -35t-103 -103t-37.5 -166zM1345 1106h168v-1205q1 -98 -35 -170t-106 -110.5t-172 -38.5h-41v153h36
q76 0 113 44t37 127v1200zM1430 1299q-48 0 -82.5 33t-34.5 80t34.5 79.5t82.5 32.5t82.5 -32.5t34.5 -79.5t-34.5 -80t-82.5 -33z" />
    <glyph glyph-name="uni01CD" unicode="&#x1cd;" horiz-adv-x="1389" 
d="M47 0l544 1490h204l548 -1490h-186l-325 909q-30 83 -67.5 200.5t-91.5 297.5h38q-53 -181 -91.5 -300t-66.5 -198l-320 -909h-186zM316 423v155h757v-155h-757zM545 1929l150 -179l149 179h167v-7l-238 -269h-157l-236 269v7h165z" />
    <glyph glyph-name="uni01CE" unicode="&#x1ce;" horiz-adv-x="1126" 
d="M465 -24q-105 0 -190 39t-135.5 114.5t-50.5 184.5q0 92 36 150.5t97.5 93t138.5 52.5t160 28q98 13 161 20.5t93 25t30 58.5v11q0 69 -27.5 118t-81 76t-132.5 27t-137 -25t-94 -64.5t-51 -82.5l-163 43q35 99 103 159.5t156.5 88.5t181.5 28q65 0 137 -16.5t134.5 -58
t101.5 -116t39 -190.5v-740h-165v158h-10q-20 -42 -62 -84t-109 -70t-161 -28zM492 124q101 0 171 40.5t106 105.5t36 139v152q-11 -13 -45.5 -23t-79.5 -18t-89.5 -14t-75.5 -10q-72 -8 -130.5 -29t-92.5 -59.5t-34 -102.5q0 -58 30 -98.5t83 -61.5t121 -21zM398 1545
l150 -179l149 179h167v-7l-238 -269h-157l-236 269v7h165z" />
    <glyph glyph-name="uni01CF" unicode="&#x1cf;" horiz-adv-x="531" 
d="M354 1490v-1490h-176v1490h176zM115 1929l150 -179l149 179h167v-7l-238 -269h-157l-236 269v7h165z" />
    <glyph glyph-name="uni01D0" unicode="&#x1d0;" horiz-adv-x="476" 
d="M155 0v1106h167v-1106h-167zM88 1545l150 -179l149 179h167v-7l-238 -269h-157l-236 269v7h165z" />
    <glyph glyph-name="uni01D1" unicode="&#x1d1;" horiz-adv-x="1555" 
d="M778 -21q-191 0 -340.5 94t-235 266t-85.5 405q0 234 85.5 406t235 266.5t340.5 94.5q192 0 341 -94.5t234 -266.5t85 -406q0 -233 -85 -405t-234 -266t-341 -94zM778 143q137 0 247 70t175 204.5t65 326.5q0 194 -65 328.5t-175 204.5t-247 70t-247.5 -70t-175.5 -204.5
t-65 -328.5q0 -192 65 -326.5t175.5 -204.5t247.5 -70zM628 1929l150 -179l149 179h167v-7l-238 -269h-157l-236 269v7h165z" />
    <glyph glyph-name="uni01D2" unicode="&#x1d2;" horiz-adv-x="1204" 
d="M601 -24q-149 0 -262 72t-176.5 201t-63.5 298q0 172 63.5 301.5t176.5 201.5t262 72q150 0 263.5 -72t176.5 -201.5t63 -301.5q0 -169 -63 -298t-176.5 -201t-263.5 -72zM601 126q111 0 185.5 57.5t111.5 153t37 210.5q0 116 -37 212.5t-111.5 154.5t-185.5 58
q-110 0 -184 -58t-111 -154t-37 -213q0 -115 37 -210.5t111 -153t184 -57.5zM451 1545l150 -179l149 179h167v-7l-238 -269h-157l-236 269v7h165z" />
    <glyph glyph-name="uni01D3" unicode="&#x1d3;" horiz-adv-x="1503" 
d="M752 -24q-174 0 -304.5 69t-202.5 189t-72 273v983h177v-970q0 -110 49 -195.5t139 -135t214 -49.5t214 49.5t138.5 135t48.5 195.5v970h176v-983q0 -153 -72 -273t-201.5 -189t-303.5 -69zM602 1929l150 -179l149 179h167v-7l-238 -269h-157l-236 269v7h165z" />
    <glyph glyph-name="uni01D4" unicode="&#x1d4;" horiz-adv-x="1191" 
d="M536 -15q-112 0 -198 46.5t-134.5 140t-48.5 231.5v703h167v-690q0 -132 70 -206t190 -74q81 0 146 35t103 103t38 166v666h168v-1106h-162v266h27q-50 -152 -146 -216.5t-220 -64.5zM445 1545l150 -179l149 179h167v-7l-238 -269h-157l-236 269v7h165z" />
    <glyph glyph-name="uni01D5" unicode="&#x1d5;" horiz-adv-x="1503" 
d="M752 -24q-174 0 -304.5 69t-202.5 189t-72 273v983h177v-970q0 -110 49 -195.5t139 -135t214 -49.5t214 49.5t138.5 135t48.5 195.5v970h176v-983q0 -153 -72 -273t-201.5 -189t-303.5 -69zM964 1651q-46 0 -79 33t-33 79q0 47 33 79.5t79 32.5t79 -32.5t33 -79.5
q0 -46 -33 -79t-79 -33zM546 1651q-47 0 -80 33t-33 79q0 47 33 79.5t80 32.5q46 0 78.5 -32.5t32.5 -79.5q0 -46 -32.5 -79t-78.5 -33zM1026 2140v-121h-546v121h546z" />
    <glyph glyph-name="uni01D6" unicode="&#x1d6;" horiz-adv-x="1191" 
d="M536 -15q-112 0 -198 46.5t-134.5 140t-48.5 231.5v703h167v-690q0 -132 70 -206t190 -74q81 0 146 35t103 103t38 166v666h168v-1106h-162v266h27q-50 -152 -146 -216.5t-220 -64.5zM807 1267q-46 0 -79 33t-33 79q0 47 33 79.5t79 32.5t79 -32.5t33 -79.5
q0 -46 -33 -79t-79 -33zM389 1267q-47 0 -80 33t-33 79q0 47 33 79.5t80 32.5q46 0 78.5 -32.5t32.5 -79.5q0 -46 -32.5 -79t-78.5 -33zM869 1756v-121h-546v121h546z" />
    <glyph glyph-name="uni01D7" unicode="&#x1d7;" horiz-adv-x="1503" 
d="M752 -24q-174 0 -304.5 69t-202.5 189t-72 273v983h177v-970q0 -110 49 -195.5t139 -135t214 -49.5t214 49.5t138.5 135t48.5 195.5v970h176v-983q0 -153 -72 -273t-201.5 -189t-303.5 -69zM964 1651q-46 0 -79 33t-33 79q0 47 33 79.5t79 32.5t79 -32.5t33 -79.5
q0 -46 -33 -79t-79 -33zM546 1651q-47 0 -80 33t-33 79q0 47 33 79.5t80 32.5q46 0 78.5 -32.5t32.5 -79.5q0 -46 -32.5 -79t-78.5 -33zM683 1980l141 276h188l-192 -276h-137z" />
    <glyph glyph-name="uni01D8" unicode="&#x1d8;" horiz-adv-x="1191" 
d="M536 -15q-112 0 -198 46.5t-134.5 140t-48.5 231.5v703h167v-690q0 -132 70 -206t190 -74q81 0 146 35t103 103t38 166v666h168v-1106h-162v266h27q-50 -152 -146 -216.5t-220 -64.5zM807 1267q-46 0 -79 33t-33 79q0 47 33 79.5t79 32.5t79 -32.5t33 -79.5
q0 -46 -33 -79t-79 -33zM389 1267q-47 0 -80 33t-33 79q0 47 33 79.5t80 32.5q46 0 78.5 -32.5t32.5 -79.5q0 -46 -32.5 -79t-78.5 -33zM526 1596l141 276h188l-192 -276h-137z" />
    <glyph glyph-name="uni01D9" unicode="&#x1d9;" horiz-adv-x="1503" 
d="M752 -24q-174 0 -304.5 69t-202.5 189t-72 273v983h177v-970q0 -110 49 -195.5t139 -135t214 -49.5t214 49.5t138.5 135t48.5 195.5v970h176v-983q0 -153 -72 -273t-201.5 -189t-303.5 -69zM964 1651q-46 0 -79 33t-33 79q0 47 33 79.5t79 32.5t79 -32.5t33 -79.5
q0 -46 -33 -79t-79 -33zM546 1651q-47 0 -80 33t-33 79q0 47 33 79.5t80 32.5q46 0 78.5 -32.5t32.5 -79.5q0 -46 -32.5 -79t-78.5 -33zM607 2251l150 -179l148 179h168v-7l-238 -268h-157l-237 268v7h166z" />
    <glyph glyph-name="uni01DA" unicode="&#x1da;" horiz-adv-x="1191" 
d="M536 -15q-112 0 -198 46.5t-134.5 140t-48.5 231.5v703h167v-690q0 -132 70 -206t190 -74q81 0 146 35t103 103t38 166v666h168v-1106h-162v266h27q-50 -152 -146 -216.5t-220 -64.5zM807 1267q-46 0 -79 33t-33 79q0 47 33 79.5t79 32.5t79 -32.5t33 -79.5
q0 -46 -33 -79t-79 -33zM389 1267q-47 0 -80 33t-33 79q0 47 33 79.5t80 32.5q46 0 78.5 -32.5t32.5 -79.5q0 -46 -32.5 -79t-78.5 -33zM450 1867l150 -179l148 179h168v-7l-238 -268h-157l-237 268v7h166z" />
    <glyph glyph-name="uni01DB" unicode="&#x1db;" horiz-adv-x="1503" 
d="M752 -24q-174 0 -304.5 69t-202.5 189t-72 273v983h177v-970q0 -110 49 -195.5t139 -135t214 -49.5t214 49.5t138.5 135t48.5 195.5v970h176v-983q0 -153 -72 -273t-201.5 -189t-303.5 -69zM964 1651q-46 0 -79 33t-33 79q0 47 33 79.5t79 32.5t79 -32.5t33 -79.5
q0 -46 -33 -79t-79 -33zM546 1651q-47 0 -80 33t-33 79q0 47 33 79.5t80 32.5q46 0 78.5 -32.5t32.5 -79.5q0 -46 -32.5 -79t-78.5 -33zM678 1980l-192 276h188l142 -276h-138z" />
    <glyph glyph-name="uni01DC" unicode="&#x1dc;" horiz-adv-x="1191" 
d="M536 -15q-112 0 -198 46.5t-134.5 140t-48.5 231.5v703h167v-690q0 -132 70 -206t190 -74q81 0 146 35t103 103t38 166v666h168v-1106h-162v266h27q-50 -152 -146 -216.5t-220 -64.5zM807 1267q-46 0 -79 33t-33 79q0 47 33 79.5t79 32.5t79 -32.5t33 -79.5
q0 -46 -33 -79t-79 -33zM389 1267q-47 0 -80 33t-33 79q0 47 33 79.5t80 32.5q46 0 78.5 -32.5t32.5 -79.5q0 -46 -32.5 -79t-78.5 -33zM521 1596l-192 276h188l142 -276h-138z" />
    <glyph glyph-name="eturn" unicode="&#x1dd;" horiz-adv-x="1173" 
d="M559 1130q159 0 274.5 -72.5t177.5 -200.5t62 -297q0 -168 -61.5 -298.5t-173 -204t-260.5 -73.5q-93 0 -180 32.5t-155 100t-108 173t-40 251.5v66h870v-142h-779l76 52q0 -112 37 -199t107.5 -136t171.5 -49t174.5 50t113 132.5t39.5 181.5v88q0 124 -42.5 212.5
t-120.5 135.5t-184 47q-70 0 -126 -21t-95.5 -61.5t-59.5 -95.5l-162 37q25 85 86.5 150.5t152.5 103t205 37.5z" />
    <glyph glyph-name="uni01DE" unicode="&#x1de;" horiz-adv-x="1389" 
d="M47 0l544 1490h204l548 -1490h-186l-325 909q-30 83 -67.5 200.5t-91.5 297.5h38q-53 -181 -91.5 -300t-66.5 -198l-320 -909h-186zM316 423v155h757v-155h-757zM907 1651q-46 0 -79 33t-33 79q0 47 33 79.5t79 32.5t79 -32.5t33 -79.5q0 -46 -33 -79t-79 -33zM489 1651
q-47 0 -80 33t-33 79q0 47 33 79.5t80 32.5q46 0 78.5 -32.5t32.5 -79.5q0 -46 -32.5 -79t-78.5 -33zM969 2140v-121h-546v121h546z" />
    <glyph glyph-name="uni01DF" unicode="&#x1df;" horiz-adv-x="1126" 
d="M465 -24q-105 0 -190 39t-135.5 114.5t-50.5 184.5q0 92 36 150.5t97.5 93t138.5 52.5t160 28q98 13 161 20.5t93 25t30 58.5v11q0 69 -27.5 118t-81 76t-132.5 27t-137 -25t-94 -64.5t-51 -82.5l-163 43q35 99 103 159.5t156.5 88.5t181.5 28q65 0 137 -16.5t134.5 -58
t101.5 -116t39 -190.5v-740h-165v158h-10q-20 -42 -62 -84t-109 -70t-161 -28zM492 124q101 0 171 40.5t106 105.5t36 139v152q-11 -13 -45.5 -23t-79.5 -18t-89.5 -14t-75.5 -10q-72 -8 -130.5 -29t-92.5 -59.5t-34 -102.5q0 -58 30 -98.5t83 -61.5t121 -21zM761 1267
q-46 0 -79 33t-33 79q0 47 33 79.5t79 32.5t79 -32.5t33 -79.5q0 -46 -33 -79t-79 -33zM343 1267q-47 0 -80 33t-33 79q0 47 33 79.5t80 32.5q46 0 78.5 -32.5t32.5 -79.5q0 -46 -32.5 -79t-78.5 -33zM823 1756v-121h-546v121h546z" />
    <glyph glyph-name="uni01E0" unicode="&#x1e0;" horiz-adv-x="1389" 
d="M47 0l544 1490h204l548 -1490h-186l-325 909q-30 83 -67.5 200.5t-91.5 297.5h38q-53 -181 -91.5 -300t-66.5 -198l-320 -909h-186zM316 423v155h757v-155h-757zM698 1651q-48 0 -82.5 33t-34.5 79q0 48 34.5 80.5t82.5 32.5t82.5 -32.5t34.5 -80.5q0 -46 -34.5 -79
t-82.5 -33zM969 2140v-121h-546v121h546z" />
    <glyph glyph-name="uni01E1" unicode="&#x1e1;" horiz-adv-x="1126" 
d="M465 -24q-105 0 -190 39t-135.5 114.5t-50.5 184.5q0 92 36 150.5t97.5 93t138.5 52.5t160 28q98 13 161 20.5t93 25t30 58.5v11q0 69 -27.5 118t-81 76t-132.5 27t-137 -25t-94 -64.5t-51 -82.5l-163 43q35 99 103 159.5t156.5 88.5t181.5 28q65 0 137 -16.5t134.5 -58
t101.5 -116t39 -190.5v-740h-165v158h-10q-20 -42 -62 -84t-109 -70t-161 -28zM492 124q101 0 171 40.5t106 105.5t36 139v152q-11 -13 -45.5 -23t-79.5 -18t-89.5 -14t-75.5 -10q-72 -8 -130.5 -29t-92.5 -59.5t-34 -102.5q0 -58 30 -98.5t83 -61.5t121 -21zM551 1267
q-48 0 -82.5 33t-34.5 79q0 48 34.5 80.5t82.5 32.5t82.5 -32.5t34.5 -80.5q0 -46 -34.5 -79t-82.5 -33zM822 1756v-121h-546v121h546z" />
    <glyph glyph-name="uni01E2" unicode="&#x1e2;" horiz-adv-x="2017" 
d="M47 0l712 1490h1126v-156h-732v-509h684v-156h-684v-513h742v-156h-912v1367h-106l-638 -1367h-192zM383 429v149h684v-149h-684zM1590 1857v-134h-546v134h546z" />
    <glyph glyph-name="uni01E3" unicode="&#x1e3;" horiz-adv-x="1860" 
d="M470 -24q-108 0 -194.5 40t-136.5 115.5t-50 181.5q0 91 40.5 154t108 101t153 55.5t175.5 17.5h1102l-76 -57q10 111 -25.5 199t-108.5 139t-174 51t-175 -50t-114.5 -132.5t-40.5 -181.5v-88q0 -123 42.5 -211.5t120.5 -136t182 -47.5q72 0 128 21t95.5 61t59.5 96
l163 -35q-25 -85 -86.5 -151t-152.5 -104t-207 -38q-122 0 -218 43t-158 120t-84 178l22 505q35 91 94.5 158.5t142.5 104.5t186 37q94 0 180 -32.5t154 -100t107.5 -173t39.5 -251.5v-66h-1198q-88 0 -157.5 -21t-110.5 -64t-41 -108q0 -89 65.5 -135t168.5 -46
q102 0 171 39.5t104.5 105t35.5 139.5v344q0 68 -27 117.5t-80 76.5t-132 27t-137 -25t-94 -64.5t-51 -82.5l-163 43q35 99 103 159.5t156.5 88.5t181.5 28q79 0 157 -24.5t138 -84t83 -165.5l-30 -617l-18 -1q-16 -55 -55 -101t-95.5 -80t-125.5 -53t-144 -19zM1188 1473
v-134h-546v134h546z" />
    <glyph glyph-name="Gbar" unicode="&#x1e4;" horiz-adv-x="1519" 
d="M783 -21q-198 0 -347.5 94.5t-234 266.5t-84.5 404q0 234 84.5 406t232.5 266.5t340 94.5q119 0 221.5 -36.5t183 -102.5t133.5 -155.5t72 -196.5h-181q-21 73 -59.5 132.5t-93.5 103.5t-124 67.5t-151 23.5q-138 0 -248 -71t-173.5 -206t-63.5 -326q0 -189 64 -323.5
t175.5 -206t253.5 -71.5q129 0 228 55.5t155 157.5t56 240l54 -9h-452v155h570v-153q0 -184 -79 -321t-216.5 -213t-315.5 -76zM824 325v127h648v-127h-648z" />
    <glyph glyph-name="gbar" unicode="&#x1e5;" horiz-adv-x="1351" 
d="M600 -440q-121 0 -212 32t-150.5 88t-89.5 126l142 70q22 -39 59.5 -78.5t98 -65t152.5 -25.5q138 0 224 68t86 209v219h-13q-23 -42 -62.5 -87t-104.5 -76t-164 -31q-134 0 -240 65.5t-166.5 188t-60.5 293.5t60 298t166 197t244 70q100 0 165 -32.5t105 -79.5t62 -89
h14v186h162v-1129q0 -145 -63.5 -237.5t-172 -136t-241.5 -43.5zM593 159q102 0 174 48t109.5 138t37.5 214q0 122 -37 214.5t-109 145t-175 52.5q-105 0 -177 -54t-109.5 -146.5t-37.5 -211.5q0 -120 38 -210.5t110 -140t176 -49.5zM686 499v128h623v-128h-623z" />
    <glyph glyph-name="Gcaron" unicode="&#x1e6;" horiz-adv-x="1519" 
d="M783 -21q-198 0 -347.5 94.5t-234 266.5t-84.5 404q0 234 84.5 406t232.5 266.5t340 94.5q119 0 221.5 -36.5t183 -102.5t133.5 -155.5t72 -196.5h-181q-21 73 -59.5 132.5t-93.5 103.5t-124 67.5t-151 23.5q-138 0 -248 -71t-173.5 -206t-63.5 -326q0 -189 64 -323.5
t175.5 -206t253.5 -71.5q129 0 228 55.5t155 157.5t56 240l54 -9h-452v155h570v-153q0 -184 -79 -321t-216.5 -213t-315.5 -76zM620 1929l150 -179l149 179h167v-7l-238 -269h-157l-236 269v7h165z" />
    <glyph glyph-name="gcaron" unicode="&#x1e7;" horiz-adv-x="1232" 
d="M600 -440q-121 0 -212 32t-150.5 88t-89.5 126l142 70q22 -39 59.5 -78.5t98 -65t152.5 -25.5q138 0 224 68t86 209v219h-13q-23 -42 -62.5 -87t-104.5 -76t-164 -31q-134 0 -240 65.5t-166.5 188t-60.5 293.5t60 298t166 197t244 70q100 0 165 -32.5t105 -79.5t62 -89
h14v186h162v-1129q0 -145 -63.5 -237.5t-172 -136t-241.5 -43.5zM593 159q102 0 174 48t109.5 138t37.5 214q0 122 -37 214.5t-109 145t-175 52.5q-105 0 -177 -54t-109.5 -146.5t-37.5 -211.5q0 -120 38 -210.5t110 -140t176 -49.5zM444 1545l150 -179l149 179h167v-7
l-238 -269h-157l-236 269v7h165z" />
    <glyph glyph-name="uni01E8" unicode="&#x1e8;" horiz-adv-x="1348" 
d="M299 435l-2 196q52 68 103.5 130t104.5 122.5t109 119.5l450 487h232l-634 -680h-10zM178 0v1490h176v-513l-2 -324l2 -87v-566h-176zM1088 0l-545 765l110 137l643 -902h-208zM542 1929l150 -179l149 179h167v-7l-238 -269h-157l-236 269v7h165z" />
    <glyph glyph-name="uni01E9" unicode="&#x1e9;" horiz-adv-x="1096" 
d="M310 402v207h29l489 497h209l-515 -522l-18 -1zM155 0v1490h167v-1490h-167zM857 0l-434 548l119 117l529 -665h-214zM88 1929l150 -179l149 179h167v-7l-238 -269h-157l-236 269v7h165z" />
    <glyph glyph-name="uni01EA" unicode="&#x1ea;" horiz-adv-x="1555" 
d="M778 -21q-191 0 -340.5 94t-235 266t-85.5 405q0 234 85.5 406t235 266.5t340.5 94.5q192 0 341 -94.5t234 -266.5t85 -406q0 -233 -85 -405t-234 -266t-341 -94zM778 143q137 0 247 70t175 204.5t65 326.5q0 194 -65 328.5t-175 204.5t-247 70t-247.5 -70t-175.5 -204.5
t-65 -328.5q0 -192 65 -326.5t175.5 -204.5t247.5 -70zM838 -432q-93 0 -159 48.5t-66 142.5q0 73 40.5 124.5t108 93t148 84.5t161 97.5t147.5 132t108 187.5t41 266h71q0 -164 -35.5 -283t-94 -202.5t-128.5 -141.5t-140 -99t-128.5 -75t-94 -70t-35.5 -83
q0 -39 22.5 -59.5t65.5 -20.5q24 0 45.5 6t38.5 15l45 -125q-29 -13 -68.5 -25.5t-92.5 -12.5z" />
    <glyph glyph-name="uni01EB" unicode="&#x1eb;" horiz-adv-x="1204" 
d="M601 -24q-149 0 -262 72t-176.5 201t-63.5 298q0 172 63.5 301.5t176.5 201.5t262 72q150 0 263.5 -72t176.5 -201.5t63 -301.5q0 -169 -63 -298t-176.5 -201t-263.5 -72zM601 126q111 0 185.5 57.5t111.5 153t37 210.5q0 116 -37 212.5t-111.5 154.5t-185.5 58
q-110 0 -184 -58t-111 -154t-37 -213q0 -115 37 -210.5t111 -153t184 -57.5zM667 -432q-97 0 -162 48.5t-65 140.5q0 63 30 110.5t79.5 87t108.5 78.5t117.5 84.5t108 104.5t79.5 138.5t30 187.5h111q0 -142 -35.5 -239.5t-92 -163t-120.5 -110.5t-120.5 -80.5t-92 -73.5
t-35.5 -92q0 -38 22 -58.5t68 -20.5q24 0 44 6t37 15l44 -125q-27 -13 -66 -25.5t-90 -12.5z" />
    <glyph glyph-name="uni01EC" unicode="&#x1ec;" horiz-adv-x="1555" 
d="M778 -21q-191 0 -340.5 94t-235 266t-85.5 405q0 234 85.5 406t235 266.5t340.5 94.5q192 0 341 -94.5t234 -266.5t85 -406q0 -233 -85 -405t-234 -266t-341 -94zM778 143q137 0 247 70t175 204.5t65 326.5q0 194 -65 328.5t-175 204.5t-247 70t-247.5 -70t-175.5 -204.5
t-65 -328.5q0 -192 65 -326.5t175.5 -204.5t247.5 -70zM838 -432q-93 0 -159 48.5t-66 142.5q0 73 40.5 124.5t108 93t148 84.5t161 97.5t147.5 132t108 187.5t41 266h71q0 -164 -35.5 -283t-94 -202.5t-128.5 -141.5t-140 -99t-128.5 -75t-94 -70t-35.5 -83
q0 -39 22.5 -59.5t65.5 -20.5q24 0 45.5 6t38.5 15l45 -125q-29 -13 -68.5 -25.5t-92.5 -12.5zM1051 1857v-134h-546v134h546z" />
    <glyph glyph-name="uni01ED" unicode="&#x1ed;" horiz-adv-x="1204" 
d="M601 -24q-149 0 -262 72t-176.5 201t-63.5 298q0 172 63.5 301.5t176.5 201.5t262 72q150 0 263.5 -72t176.5 -201.5t63 -301.5q0 -169 -63 -298t-176.5 -201t-263.5 -72zM601 126q111 0 185.5 57.5t111.5 153t37 210.5q0 116 -37 212.5t-111.5 154.5t-185.5 58
q-110 0 -184 -58t-111 -154t-37 -213q0 -115 37 -210.5t111 -153t184 -57.5zM667 -432q-97 0 -162 48.5t-65 140.5q0 63 30 110.5t79.5 87t108.5 78.5t117.5 84.5t108 104.5t79.5 138.5t30 187.5h111q0 -142 -35.5 -239.5t-92 -163t-120.5 -110.5t-120.5 -80.5t-92 -73.5
t-35.5 -92q0 -38 22 -58.5t68 -20.5q24 0 44 6t37 15l44 -125q-27 -13 -66 -25.5t-90 -12.5zM874 1473v-134h-546v134h546z" />
    <glyph glyph-name="uni01EE" unicode="&#x1ee;" horiz-adv-x="1385" 
d="M91 67h180q6 -103 63.5 -182t148.5 -123t199 -44q128 0 221 60.5t144 164.5t51 234q0 145 -63.5 252t-176.5 166t-260 60h-111v145l506 522v9h-817v159h1058v-129l-532 -556v-13q169 -7 297.5 -87.5t201 -215.5t72.5 -311q0 -133 -42.5 -246t-120.5 -196.5t-187.5 -129.5
t-243.5 -46q-160 0 -290.5 64.5t-210 178.5t-87.5 264zM541 1929l150 -179l149 179h167v-7l-238 -269h-157l-236 269v7h165z" />
    <glyph glyph-name="uni01EF" unicode="&#x1ef;" horiz-adv-x="1294" 
d="M650 -404q-137 0 -249.5 50.5t-181 143t-75.5 219.5h179q6 -81 50 -139t116.5 -88t162.5 -30q95 0 169.5 34.5t117.5 99.5t43 157q0 87 -41.5 157t-126 111t-216.5 41h-128v141l395 449v9h-643v156h875v-134l-477 -538v31q167 16 287 -38.5t184.5 -156t64.5 -229.5
q0 -129 -64.5 -230t-178.5 -158.5t-263 -57.5zM498 1546l150 -179l149 179h167v-7l-238 -269h-157l-236 269v7h165z" />
    <glyph glyph-name="uni01F0" unicode="&#x1f0;" horiz-adv-x="477" 
d="M154 1106h168v-1205q1 -98 -35 -170t-106 -110.5t-172 -38.5h-41v153h36q76 0 113 44t37 127v1200zM88 1545l150 -179l149 179h167v-7l-238 -269h-157l-236 269v7h165z" />
    <glyph glyph-name="uni01F1" unicode="&#x1f1;" horiz-adv-x="2741" 
d="M635 0h-360v156h349q185 0 307 71t182.5 204t60.5 317q0 183 -60 314t-177 201.5t-293 70.5h-376v156h388q217 0 371 -89t236 -255.5t82 -397.5q0 -233 -83 -400.5t-241.5 -257.5t-385.5 -90zM354 1490v-1490h-176v1490h176zM1581 0v130l694 1008q45 65 94.5 130.5
t99.5 130.5l20 -59q-90 -4 -180 -5.5t-180 -1.5h-547v157h1040v-132l-684 -992q-48 -70 -100 -138.5t-104 -136.5l-21 59q89 4 178 5t178 1h560v-156h-1048z" />
    <glyph glyph-name="uni01F2" unicode="&#x1f2;" horiz-adv-x="2559" 
d="M635 0h-360v156h349q185 0 307 71t182.5 204t60.5 317q0 183 -60 314t-177 201.5t-293 70.5h-376v156h388q217 0 371 -89t236 -255.5t82 -397.5q0 -233 -83 -400.5t-241.5 -257.5t-385.5 -90zM354 1490v-1490h-176v1490h176zM1585 0v126l622 816v10h-605v154h818v-134
l-608 -809v-9h626v-154h-853z" />
    <glyph glyph-name="uni01F3" unicode="&#x1f3;" horiz-adv-x="2327" 
d="M567 -23q-138 0 -244 71t-165 199.5t-59 303.5q0 173 59.5 301.5t165 198.5t243.5 70q101 0 165.5 -33t104 -79.5t61.5 -86.5h11v568h167v-1490h-162v180h-16q-22 -42 -62 -89t-105 -80.5t-164 -33.5zM591 127q103 0 175 54t109.5 150t37.5 221q0 126 -37.5 220
t-109 146.5t-175.5 52.5t-176 -54t-109 -149t-37 -216q0 -122 37.5 -218t109.5 -151.5t175 -55.5zM1352 0v126l622 816v10h-605v154h818v-134l-608 -809v-9h626v-154h-853z" />
    <glyph glyph-name="uni01F4" unicode="&#x1f4;" horiz-adv-x="1519" 
d="M783 -21q-198 0 -347.5 94.5t-234 266.5t-84.5 404q0 234 84.5 406t232.5 266.5t340 94.5q119 0 221.5 -36.5t183 -102.5t133.5 -155.5t72 -196.5h-181q-21 73 -59.5 132.5t-93.5 103.5t-124 67.5t-151 23.5q-138 0 -248 -71t-173.5 -206t-63.5 -326q0 -189 64 -323.5
t175.5 -206t253.5 -71.5q129 0 228 55.5t155 157.5t56 240l54 -9h-452v155h570v-153q0 -184 -79 -321t-216.5 -213t-315.5 -76zM697 1635l141 294h187l-190 -294h-138z" />
    <glyph glyph-name="uni01F5" unicode="&#x1f5;" horiz-adv-x="1232" 
d="M600 -440q-121 0 -212 32t-150.5 88t-89.5 126l142 70q22 -39 59.5 -78.5t98 -65t152.5 -25.5q138 0 224 68t86 209v219h-13q-23 -42 -62.5 -87t-104.5 -76t-164 -31q-134 0 -240 65.5t-166.5 188t-60.5 293.5t60 298t166 197t244 70q100 0 165 -32.5t105 -79.5t62 -89
h14v186h162v-1129q0 -145 -63.5 -237.5t-172 -136t-241.5 -43.5zM593 159q102 0 174 48t109.5 138t37.5 214q0 122 -37 214.5t-109 145t-175 52.5q-105 0 -177 -54t-109.5 -146.5t-37.5 -211.5q0 -120 38 -210.5t110 -140t176 -49.5zM520 1251l141 294h187l-190 -294h-138z
" />
    <glyph glyph-name="uni01F6" unicode="&#x1f6;" horiz-adv-x="2273" 
d="M1640 -20q-144 0 -254.5 55t-172 164.5t-61.5 271.5v197h-798v-668h-176v1490h176v-666h798v666h178v-1019q0 -170 82 -250t228 -80q147 0 224.5 80t77.5 250v648h177v-648q0 -164 -61 -273.5t-169 -163.5t-249 -54z" />
    <glyph glyph-name="uni01F7" unicode="&#x1f7;" horiz-adv-x="1260" 
d="M303 1490v-1908h-201v1908h201zM198 -177v161q195 33 338 117t237 202t139.5 255t45.5 274v53q0 120 -24.5 207.5t-72.5 144.5t-119 84t-164 27q-111 0 -179 -37.5t-105.5 -105.5t-55.5 -161l-2 364q61 47 143 74.5t197 27.5q176 0 306.5 -68.5t202.5 -208t72 -352.5v-49
q0 -196 -72 -367t-201.5 -305t-304.5 -221.5t-381 -115.5z" />
    <glyph glyph-name="uni01F8" unicode="&#x1f8;" horiz-adv-x="1528" 
d="M178 0v1490h205l626 -971q24 -37 58 -93.5t72.5 -125t74.5 -144.5l-24 -6q-7 77 -10.5 152t-4.5 139t-1 108v941h176v-1490h-207l-565 874q-34 54 -71.5 115.5t-85 143.5t-113.5 197l31 9q4 -107 7.5 -197t5.5 -158t2 -108v-876h-176zM698 1635l-190 294h188l140 -294
h-138z" />
    <glyph glyph-name="uni01F9" unicode="&#x1f9;" horiz-adv-x="1191" 
d="M322 666v-666h-167v1106h161v-266h-28q50 151 145.5 216t221.5 65q112 0 198.5 -46.5t135 -139.5t48.5 -232v-703h-168v689q0 133 -69.5 207t-189.5 74q-82 0 -147.5 -35t-103 -103t-37.5 -166zM529 1251l-190 294h188l140 -294h-138z" />
    <glyph glyph-name="Aringacute" unicode="&#x1fa;" horiz-adv-x="1389" 
d="M47 0l544 1490h204l548 -1490h-186l-325 909q-30 83 -67.5 200.5t-91.5 297.5h38q-53 -181 -91.5 -300t-66.5 -198l-320 -909h-186zM316 423v155h757v-155h-757zM626 2086l144 176h172l-183 -176h-133zM695 1556q-69 0 -126 32.5t-91 87t-34 120.5q0 67 34 121t91 86
t126 32q70 0 127 -32t90.5 -86t33.5 -121q0 -66 -33.5 -120.5t-90.5 -87t-127 -32.5zM695 1674q51 0 86.5 35.5t35.5 86.5t-35 86.5t-87 35.5q-50 0 -86 -35.5t-36 -86.5t36 -86.5t86 -35.5z" />
    <glyph glyph-name="aringacute" unicode="&#x1fb;" horiz-adv-x="1126" 
d="M465 -24q-105 0 -190 39t-135.5 114.5t-50.5 184.5q0 92 36 150.5t97.5 93t138.5 52.5t160 28q98 13 161 20.5t93 25t30 58.5v11q0 69 -27.5 118t-81 76t-132.5 27t-137 -25t-94 -64.5t-51 -82.5l-163 43q35 99 103 159.5t156.5 88.5t181.5 28q65 0 137 -16.5t134.5 -58
t101.5 -116t39 -190.5v-740h-165v158h-10q-20 -42 -62 -84t-109 -70t-161 -28zM492 124q101 0 171 40.5t106 105.5t36 139v152q-11 -13 -45.5 -23t-79.5 -18t-89.5 -14t-75.5 -10q-72 -8 -130.5 -29t-92.5 -59.5t-34 -102.5q0 -58 30 -98.5t83 -61.5t121 -21zM486 1730
l143 176h172l-183 -176h-132zM548 1186q-69 0 -126 32.5t-91 87t-34 121.5t34 121t91 86.5t126 32.5q70 0 127 -32.5t90.5 -86.5t33.5 -121t-33.5 -121.5t-90.5 -87t-127 -32.5zM548 1305q52 0 87.5 36t35.5 86q0 51 -35.5 86.5t-87.5 35.5q-50 0 -86 -35.5t-36 -86.5
q0 -50 36 -86t86 -36z" />
    <glyph glyph-name="AEacute" unicode="&#x1fc;" horiz-adv-x="2017" 
d="M47 0l712 1490h1126v-156h-732v-509h684v-156h-684v-513h742v-156h-912v1367h-106l-638 -1367h-192zM383 429v149h684v-149h-684zM1243 1635l141 294h187l-190 -294h-138z" />
    <glyph glyph-name="aeacute" unicode="&#x1fd;" horiz-adv-x="1860" 
d="M470 -24q-108 0 -194.5 40t-136.5 115.5t-50 181.5q0 91 40.5 154t108 101t153 55.5t175.5 17.5h1102l-76 -57q10 111 -25.5 199t-108.5 139t-174 51t-175 -50t-114.5 -132.5t-40.5 -181.5v-88q0 -123 42.5 -211.5t120.5 -136t182 -47.5q72 0 128 21t95.5 61t59.5 96
l163 -35q-25 -85 -86.5 -151t-152.5 -104t-207 -38q-122 0 -218 43t-158 120t-84 178l22 505q35 91 94.5 158.5t142.5 104.5t186 37q94 0 180 -32.5t154 -100t107.5 -173t39.5 -251.5v-66h-1198q-88 0 -157.5 -21t-110.5 -64t-41 -108q0 -89 65.5 -135t168.5 -46
q102 0 171 39.5t104.5 105t35.5 139.5v344q0 68 -27 117.5t-80 76.5t-132 27t-137 -25t-94 -64.5t-51 -82.5l-163 43q35 99 103 159.5t156.5 88.5t181.5 28q79 0 157 -24.5t138 -84t83 -165.5l-30 -617l-18 -1q-16 -55 -55 -101t-95.5 -80t-125.5 -53t-144 -19zM842 1251
l141 294h187l-190 -294h-138z" />
    <glyph glyph-name="Oslashacute" unicode="&#x1fe;" horiz-adv-x="1555" 
d="M778 -21q-191 0 -340.5 94t-235 266t-85.5 405q0 234 85.5 406t235 266.5t340.5 94.5q192 0 341 -94.5t234 -266.5t85 -406q0 -233 -85 -405t-234 -266t-341 -94zM778 143q137 0 247 70t175 204.5t65 326.5q0 194 -65 328.5t-175 204.5t-247 70t-247.5 -70t-175.5 -204.5
t-65 -328.5q0 -192 65 -326.5t175.5 -204.5t247.5 -70zM304 -45l-122 88l1070 1492l123 -88zM705 1635l141 294h187l-190 -294h-138z" />
    <glyph glyph-name="oslashacute" unicode="&#x1ff;" horiz-adv-x="1204" 
d="M601 -24q-149 0 -262 72t-176.5 201t-63.5 298q0 172 63.5 301.5t176.5 201.5t262 72q150 0 263.5 -72t176.5 -201.5t63 -301.5q0 -169 -63 -298t-176.5 -201t-263.5 -72zM601 126q111 0 185.5 57.5t111.5 153t37 210.5q0 116 -37 212.5t-111.5 154.5t-185.5 58
q-110 0 -184 -58t-111 -154t-37 -213q0 -115 37 -210.5t111 -153t184 -57.5zM181 -43l-101 86l943 1105l100 -85zM527 1251l141 294h187l-190 -294h-138z" />
    <glyph glyph-name="uni0200" unicode="&#x200;" horiz-adv-x="1389" 
d="M47 0l544 1490h204l548 -1490h-186l-325 909q-30 83 -67.5 200.5t-91.5 297.5h38q-53 -181 -91.5 -300t-66.5 -198l-320 -909h-186zM316 423v155h757v-155h-757zM785 1635l-168 294h186l120 -294h-138zM469 1635l-216 294h188l167 -294h-139z" />
    <glyph glyph-name="uni0201" unicode="&#x201;" horiz-adv-x="1126" 
d="M465 -24q-105 0 -190 39t-135.5 114.5t-50.5 184.5q0 92 36 150.5t97.5 93t138.5 52.5t160 28q98 13 161 20.5t93 25t30 58.5v11q0 69 -27.5 118t-81 76t-132.5 27t-137 -25t-94 -64.5t-51 -82.5l-163 43q35 99 103 159.5t156.5 88.5t181.5 28q65 0 137 -16.5t134.5 -58
t101.5 -116t39 -190.5v-740h-165v158h-10q-20 -42 -62 -84t-109 -70t-161 -28zM492 124q101 0 171 40.5t106 105.5t36 139v152q-11 -13 -45.5 -23t-79.5 -18t-89.5 -14t-75.5 -10q-72 -8 -130.5 -29t-92.5 -59.5t-34 -102.5q0 -58 30 -98.5t83 -61.5t121 -21zM639 1251
l-168 294h186l120 -294h-138zM323 1251l-216 294h188l167 -294h-139z" />
    <glyph glyph-name="uni0202" unicode="&#x202;" horiz-adv-x="1389" 
d="M47 0l544 1490h204l548 -1490h-186l-325 909q-30 83 -67.5 200.5t-91.5 297.5h38q-53 -181 -91.5 -300t-66.5 -198l-320 -909h-186zM316 423v155h757v-155h-757zM694 1944q87 0 153.5 -38.5t105.5 -104.5t39 -147h-124q0 73 -51.5 119t-122.5 46q-70 0 -121.5 -46
t-51.5 -119h-124q0 81 38.5 147t106 104.5t152.5 38.5z" />
    <glyph glyph-name="uni0203" unicode="&#x203;" horiz-adv-x="1126" 
d="M465 -24q-105 0 -190 39t-135.5 114.5t-50.5 184.5q0 92 36 150.5t97.5 93t138.5 52.5t160 28q98 13 161 20.5t93 25t30 58.5v11q0 69 -27.5 118t-81 76t-132.5 27t-137 -25t-94 -64.5t-51 -82.5l-163 43q35 99 103 159.5t156.5 88.5t181.5 28q65 0 137 -16.5t134.5 -58
t101.5 -116t39 -190.5v-740h-165v158h-10q-20 -42 -62 -84t-109 -70t-161 -28zM492 124q101 0 171 40.5t106 105.5t36 139v152q-11 -13 -45.5 -23t-79.5 -18t-89.5 -14t-75.5 -10q-72 -8 -130.5 -29t-92.5 -59.5t-34 -102.5q0 -58 30 -98.5t83 -61.5t121 -21zM548 1560
q87 0 153.5 -38.5t105.5 -104.5t39 -147h-124q0 73 -51.5 119t-122.5 46q-70 0 -121.5 -46t-51.5 -119h-124q0 81 38.5 147t106 104.5t152.5 38.5z" />
    <glyph glyph-name="uni0204" unicode="&#x204;" horiz-adv-x="1219" 
d="M178 0v1490h911v-156h-735v-502h684v-157h-684v-519h743v-156h-919zM727 1635l-168 294h186l120 -294h-138zM411 1635l-216 294h188l167 -294h-139z" />
    <glyph glyph-name="uni0205" unicode="&#x205;" horiz-adv-x="1173" 
d="M614 -24q-160 0 -275 72t-177.5 200.5t-62.5 297.5t62 299t173.5 203.5t260.5 73.5q93 0 179.5 -32.5t155 -100t108.5 -173t40 -251.5v-66h-871v142h780l-77 -52q0 112 -36.5 199t-107 136t-171.5 49t-174.5 -50t-113 -132.5t-39.5 -181.5v-88q0 -123 42.5 -212
t120.5 -136t183 -47q71 0 127 21t95.5 61t59.5 96l162 -37q-25 -85 -86.5 -150.5t-152.5 -103t-205 -37.5zM681 1251l-168 294h186l120 -294h-138zM365 1251l-216 294h188l167 -294h-139z" />
    <glyph glyph-name="uni0206" unicode="&#x206;" horiz-adv-x="1219" 
d="M178 0v1490h911v-156h-735v-502h684v-157h-684v-519h743v-156h-919zM637 1944q87 0 153.5 -38.5t105.5 -104.5t39 -147h-124q0 73 -51.5 119t-122.5 46q-70 0 -121.5 -46t-51.5 -119h-124q0 81 38.5 147t106 104.5t152.5 38.5z" />
    <glyph glyph-name="uni0207" unicode="&#x207;" horiz-adv-x="1173" 
d="M614 -24q-160 0 -275 72t-177.5 200.5t-62.5 297.5t62 299t173.5 203.5t260.5 73.5q93 0 179.5 -32.5t155 -100t108.5 -173t40 -251.5v-66h-871v142h780l-77 -52q0 112 -36.5 199t-107 136t-171.5 49t-174.5 -50t-113 -132.5t-39.5 -181.5v-88q0 -123 42.5 -212
t120.5 -136t183 -47q71 0 127 21t95.5 61t59.5 96l162 -37q-25 -85 -86.5 -150.5t-152.5 -103t-205 -37.5zM591 1560q87 0 153.5 -38.5t105.5 -104.5t39 -147h-124q0 73 -51.5 119t-122.5 46q-70 0 -121.5 -46t-51.5 -119h-124q0 81 38.5 147t106 104.5t152.5 38.5z" />
    <glyph glyph-name="uni0208" unicode="&#x208;" horiz-adv-x="531" 
d="M354 1490v-1490h-176v1490h176zM356 1635l-168 294h186l120 -294h-138zM40 1635l-216 294h188l167 -294h-139z" />
    <glyph glyph-name="uni0209" unicode="&#x209;" horiz-adv-x="476" 
d="M155 0v1106h167v-1106h-167zM329 1251l-168 294h186l120 -294h-138zM13 1251l-216 294h188l167 -294h-139z" />
    <glyph glyph-name="uni020A" unicode="&#x20a;" horiz-adv-x="531" 
d="M354 1490v-1490h-176v1490h176zM265 1944q87 0 153.5 -38.5t105.5 -104.5t39 -147h-124q0 73 -51.5 119t-122.5 46q-70 0 -121.5 -46t-51.5 -119h-124q0 81 38.5 147t106 104.5t152.5 38.5z" />
    <glyph glyph-name="uni020B" unicode="&#x20b;" horiz-adv-x="476" 
d="M155 0v1106h167v-1106h-167zM238 1560q87 0 153.5 -38.5t105.5 -104.5t39 -147h-124q0 73 -51.5 119t-122.5 46q-70 0 -121.5 -46t-51.5 -119h-124q0 81 38.5 147t106 104.5t152.5 38.5z" />
    <glyph glyph-name="uni020C" unicode="&#x20c;" horiz-adv-x="1555" 
d="M778 -21q-191 0 -340.5 94t-235 266t-85.5 405q0 234 85.5 406t235 266.5t340.5 94.5q192 0 341 -94.5t234 -266.5t85 -406q0 -233 -85 -405t-234 -266t-341 -94zM778 143q137 0 247 70t175 204.5t65 326.5q0 194 -65 328.5t-175 204.5t-247 70t-247.5 -70t-175.5 -204.5
t-65 -328.5q0 -192 65 -326.5t175.5 -204.5t247.5 -70zM868 1635l-168 294h186l120 -294h-138zM552 1635l-216 294h188l167 -294h-139z" />
    <glyph glyph-name="uni020D" unicode="&#x20d;" horiz-adv-x="1204" 
d="M601 -24q-149 0 -262 72t-176.5 201t-63.5 298q0 172 63.5 301.5t176.5 201.5t262 72q150 0 263.5 -72t176.5 -201.5t63 -301.5q0 -169 -63 -298t-176.5 -201t-263.5 -72zM601 126q111 0 185.5 57.5t111.5 153t37 210.5q0 116 -37 212.5t-111.5 154.5t-185.5 58
q-110 0 -184 -58t-111 -154t-37 -213q0 -115 37 -210.5t111 -153t184 -57.5zM691 1251l-168 294h186l120 -294h-138zM375 1251l-216 294h188l167 -294h-139z" />
    <glyph glyph-name="uni020E" unicode="&#x20e;" horiz-adv-x="1555" 
d="M778 -21q-191 0 -340.5 94t-235 266t-85.5 405q0 234 85.5 406t235 266.5t340.5 94.5q192 0 341 -94.5t234 -266.5t85 -406q0 -233 -85 -405t-234 -266t-341 -94zM778 143q137 0 247 70t175 204.5t65 326.5q0 194 -65 328.5t-175 204.5t-247 70t-247.5 -70t-175.5 -204.5
t-65 -328.5q0 -192 65 -326.5t175.5 -204.5t247.5 -70zM778 1944q87 0 153.5 -38.5t105.5 -104.5t39 -147h-124q0 73 -51.5 119t-122.5 46q-70 0 -121.5 -46t-51.5 -119h-124q0 81 38.5 147t106 104.5t152.5 38.5z" />
    <glyph glyph-name="uni020F" unicode="&#x20f;" horiz-adv-x="1204" 
d="M601 -24q-149 0 -262 72t-176.5 201t-63.5 298q0 172 63.5 301.5t176.5 201.5t262 72q150 0 263.5 -72t176.5 -201.5t63 -301.5q0 -169 -63 -298t-176.5 -201t-263.5 -72zM601 126q111 0 185.5 57.5t111.5 153t37 210.5q0 116 -37 212.5t-111.5 154.5t-185.5 58
q-110 0 -184 -58t-111 -154t-37 -213q0 -115 37 -210.5t111 -153t184 -57.5zM601 1560q87 0 153.5 -38.5t105.5 -104.5t39 -147h-124q0 73 -51.5 119t-122.5 46q-70 0 -121.5 -46t-51.5 -119h-124q0 81 38.5 147t106 104.5t152.5 38.5z" />
    <glyph glyph-name="uni0210" unicode="&#x210;" horiz-adv-x="1308" 
d="M178 0v1490h512q167 0 278 -58t167 -161t56 -237q0 -133 -56.5 -234.5t-168 -158t-278.5 -56.5h-412v157h407q115 0 188.5 35.5t109 101.5t35.5 155q0 92 -36 159t-109.5 104t-188.5 37h-328v-1334h-176zM1038 0l-361 671h199l366 -671h-204zM737 1635l-168 294h186
l120 -294h-138zM421 1635l-216 294h188l167 -294h-139z" />
    <glyph glyph-name="uni0211" unicode="&#x211;" horiz-adv-x="740" 
d="M155 0v1106h161v-172h10q31 85 108.5 136.5t178.5 51.5q20 0 44 -1.5t38 -2.5v-168q-8 2 -37 6t-63 4q-78 0 -140 -33t-97.5 -93t-35.5 -140v-694h-167zM505 1251l-168 294h186l120 -294h-138zM189 1251l-216 294h188l167 -294h-139z" />
    <glyph glyph-name="uni0212" unicode="&#x212;" horiz-adv-x="1308" 
d="M178 0v1490h512q167 0 278 -58t167 -161t56 -237q0 -133 -56.5 -234.5t-168 -158t-278.5 -56.5h-412v157h407q115 0 188.5 35.5t109 101.5t35.5 155q0 92 -36 159t-109.5 104t-188.5 37h-328v-1334h-176zM1038 0l-361 671h199l366 -671h-204zM646 1944q87 0 153.5 -38.5
t105.5 -104.5t39 -147h-124q0 73 -51.5 119t-122.5 46q-70 0 -121.5 -46t-51.5 -119h-124q0 81 38.5 147t106 104.5t152.5 38.5z" />
    <glyph glyph-name="uni0213" unicode="&#x213;" horiz-adv-x="740" 
d="M155 0v1106h161v-172h10q31 85 108.5 136.5t178.5 51.5q20 0 44 -1.5t38 -2.5v-168q-8 2 -37 6t-63 4q-78 0 -140 -33t-97.5 -93t-35.5 -140v-694h-167zM415 1560q87 0 153.5 -38.5t105.5 -104.5t39 -147h-124q0 73 -51.5 119t-122.5 46q-70 0 -121.5 -46t-51.5 -119
h-124q0 81 38.5 147t106 104.5t152.5 38.5z" />
    <glyph glyph-name="uni0214" unicode="&#x214;" horiz-adv-x="1503" 
d="M752 -24q-174 0 -304.5 69t-202.5 189t-72 273v983h177v-970q0 -110 49 -195.5t139 -135t214 -49.5t214 49.5t138.5 135t48.5 195.5v970h176v-983q0 -153 -72 -273t-201.5 -189t-303.5 -69zM842 1635l-168 294h186l120 -294h-138zM526 1635l-216 294h188l167 -294h-139z
" />
    <glyph glyph-name="uni0215" unicode="&#x215;" horiz-adv-x="1191" 
d="M536 -15q-112 0 -198 46.5t-134.5 140t-48.5 231.5v703h167v-690q0 -132 70 -206t190 -74q81 0 146 35t103 103t38 166v666h168v-1106h-162v266h27q-50 -152 -146 -216.5t-220 -64.5zM685 1251l-168 294h186l120 -294h-138zM369 1251l-216 294h188l167 -294h-139z" />
    <glyph glyph-name="uni0216" unicode="&#x216;" horiz-adv-x="1503" 
d="M752 -24q-174 0 -304.5 69t-202.5 189t-72 273v983h177v-970q0 -110 49 -195.5t139 -135t214 -49.5t214 49.5t138.5 135t48.5 195.5v970h176v-983q0 -153 -72 -273t-201.5 -189t-303.5 -69zM752 1944q87 0 153.5 -38.5t105.5 -104.5t39 -147h-124q0 73 -51.5 119
t-122.5 46q-70 0 -121.5 -46t-51.5 -119h-124q0 81 38.5 147t106 104.5t152.5 38.5z" />
    <glyph glyph-name="uni0217" unicode="&#x217;" horiz-adv-x="1191" 
d="M536 -15q-112 0 -198 46.5t-134.5 140t-48.5 231.5v703h167v-690q0 -132 70 -206t190 -74q81 0 146 35t103 103t38 166v666h168v-1106h-162v266h27q-50 -152 -146 -216.5t-220 -64.5zM595 1560q87 0 153.5 -38.5t105.5 -104.5t39 -147h-124q0 73 -51.5 119t-122.5 46
q-70 0 -121.5 -46t-51.5 -119h-124q0 81 38.5 147t106 104.5t152.5 38.5z" />
    <glyph glyph-name="uni0218" unicode="&#x218;" horiz-adv-x="1297" 
d="M650 -25q-161 0 -279.5 53t-185 149.5t-73.5 225.5h180q7 -89 55.5 -149t127.5 -90.5t175 -30.5q105 0 186.5 34t129 95.5t47.5 142.5q0 71 -38 117.5t-105.5 78t-155.5 55.5l-177 49q-188 52 -287 146.5t-99 242.5q0 125 66 219t181 146t259 52q147 0 259 -53
t176.5 -145t68.5 -210h-173q-12 118 -104 184.5t-232 66.5q-98 0 -172 -33t-115.5 -89.5t-41.5 -129.5q0 -74 44 -122t110.5 -77t134.5 -48l154 -42q72 -19 146 -49.5t135.5 -78t99.5 -116t38 -165.5q0 -122 -64 -219.5t-183.5 -153.5t-287.5 -56zM480 -493l82 375h171
l-124 -375h-129z" />
    <glyph glyph-name="uni0219" unicode="&#x219;" horiz-adv-x="1054" 
d="M527 -24q-114 0 -203 34.5t-146 102t-74 166.5l160 31q21 -95 88 -141t172 -46q119 0 189 51t70 124q0 61 -42.5 100.5t-125.5 58.5l-182 43q-149 36 -223 110.5t-74 191.5q0 94 52.5 166t143.5 113t207 41q112 0 193 -35.5t131.5 -98.5t70.5 -148l-153 -32
q-20 69 -76.5 120t-164.5 51q-103 0 -169 -48t-66 -121q0 -64 45.5 -103t141.5 -61l170 -41q149 -35 221 -109.5t72 -187.5q0 -98 -54.5 -172.5t-151 -117t-222.5 -42.5zM367 -493l82 375h171l-124 -375h-129z" />
    <glyph glyph-name="uni021A.1" unicode="&#x21a;" horiz-adv-x="1303" 
d="M91 1334v156h1121v-156h-471v-1334h-177v1334h-473zM483 -493l82 375h171l-124 -375h-129z" />
    <glyph glyph-name="uni021B" unicode="&#x21b;" horiz-adv-x="649" 
d="M584 1106v-144h-566v144h566zM189 1376h167v-1099q0 -74 31.5 -107.5t102.5 -32.5q17 0 42.5 3.5t46.5 6.5l28 -142q-27 -8 -59.5 -12t-63.5 -4q-141 -1 -218 71t-77 204v1112zM203 -493l82 375h171l-124 -375h-129z" />
    <glyph glyph-name="uni021C" unicode="&#x21c;" horiz-adv-x="1276" 
d="M214 340v146q172 51 306 109.5t225.5 128t139 154.5t47.5 189q0 134 -78 207.5t-219 73.5q-94 0 -164 -31t-108.5 -85.5t-38.5 -125.5h-201q1 123 66.5 213.5t181.5 140.5t264 50q143 0 255 -49.5t176 -144t64 -229.5q0 -134 -67.5 -251t-190.5 -213t-290.5 -167.5
t-367.5 -115.5zM793 649l94 112q84 -30 144 -86t92 -142t32 -207q0 -174 -68.5 -298.5t-193.5 -212t-297.5 -147.5t-381.5 -104v161q178 38 315.5 87.5t231.5 119.5t142.5 169.5t48.5 237.5q0 126 -36 202t-123 108z" />
    <glyph glyph-name="uni021D" unicode="&#x21d;" horiz-adv-x="1091" 
d="M211 212v143q173 40 294 103.5t184 146.5t63 181q0 91 -52 141.5t-152 50.5q-68 0 -119.5 -24t-80.5 -68.5t-29 -105.5h-191q0 108 53 186.5t148.5 122t225.5 43.5q180 0 285 -91t105 -246q0 -138 -91.5 -255.5t-256.5 -202t-386 -125.5zM642 454l101 98
q109 -45 165.5 -140t56.5 -236q1 -261 -188.5 -412t-565.5 -200v151q201 43 324.5 105t180 151.5t56.5 215.5q0 100 -34.5 169.5t-95.5 97.5z" />
    <glyph glyph-name="uni021E" unicode="&#x21e;" horiz-adv-x="1505" 
d="M178 0v1490h176v-650h798v650h176v-1490h-176v684h-798v-684h-176zM602 1929l150 -179l149 179h167v-7l-238 -269h-157l-236 269v7h165z" />
    <glyph glyph-name="uni021F" unicode="&#x21f;" horiz-adv-x="1191" 
d="M322 666v-666h-167v1490h167v-650h-34q50 151 145.5 216t221.5 65q112 0 198.5 -46.5t135 -139.5t48.5 -232v-703h-168v689q0 133 -69.5 207t-189.5 74q-82 0 -147.5 -35t-103 -103t-37.5 -166zM88 1929l150 -179l149 179h167v-7l-238 -269h-157l-236 269v7h165z" />
    <glyph glyph-name="uni0220" unicode="&#x220;" horiz-adv-x="1261" 
d="M1154 -416h-195v1431q0 118 -40.5 192t-118 108.5t-188.5 34.5q-107 0 -199.5 -30t-164.5 -82l-2 157q70 49 168.5 82t214.5 33q140 0 259.5 -54.5t192.5 -164t73 -277.5v-1430zM303 1490v-1490h-191v1490h191z" />
    <glyph glyph-name="uni0221" unicode="&#x221;" horiz-adv-x="1550" 
d="M1212 -417q-110 0 -178 45.5t-99.5 117.5t-31.5 148v333h167v-350q0 -74 42.5 -113.5t99.5 -39.5q55 0 89 34t34 86q0 46 -28 78.5t-78 39.5q-36 5 -68.5 -4t-62 -29t-58.5 -53l-258 -261l-106 111l218 223q73 78 160 117.5t170 39.5q121 0 202 -72t81 -190
q0 -117 -80 -189t-215 -72zM567 -23q-138 0 -244 71t-165 199.5t-59 303.5q0 173 59.5 301.5t165 198.5t243.5 70q101 0 165.5 -33t104 -79.5t61.5 -86.5h11v568h167v-1490h-162v180h-16q-22 -42 -62 -89t-105 -80.5t-164 -33.5zM591 127q103 0 175 54t109.5 150t37.5 221
q0 126 -37.5 220t-109 146.5t-175.5 52.5t-176 -54t-109 -149t-37 -216q0 -122 37.5 -218t109.5 -151.5t175 -55.5z" />
    <glyph glyph-name="uni0222" unicode="&#x222;" horiz-adv-x="1269" 
d="M622 880h25q157 0 281 -50.5t196 -149t72 -245.5q0 -153 -72 -254t-196.5 -151t-281.5 -50h-23q-157 0 -281 50t-196.5 150.5t-72.5 252.5q0 147 71.5 246t195.5 150t282 51zM647 728h-25q-161 0 -255.5 -72.5t-94.5 -222.5q0 -149 95.5 -218t255.5 -69h23
q160 0 255.5 69t95.5 220q0 148 -95 220.5t-255 72.5zM615 894h39q95 0 172.5 17.5t123 68.5t45.5 150t-48.5 152.5t-141.5 74.5v154q110 -6 198 -49t140 -125t52 -207q0 -148 -74.5 -232.5t-197.5 -120t-269 -35.5h-39q-146 0 -269 35t-197 120t-74 233q0 124 51.5 206
t139.5 125t196 49v-153q-94 -23 -141 -76.5t-47 -150.5q0 -99 46.5 -150t124 -68.5t170.5 -17.5z" />
    <glyph glyph-name="uni0223" unicode="&#x223;" horiz-adv-x="1273" 
d="M622 875h29q157 1 281 -48t195 -147t71 -245q0 -152 -72 -253.5t-195.5 -151.5t-280.5 -50h-27q-156 0 -280 50t-196 151t-72 253q0 147 71.5 245.5t195 147.5t280.5 48zM651 730h-29q-161 0 -256.5 -73.5t-95.5 -222.5t96 -224t257 -75h27q159 0 256 75t97 225
q0 148 -97 221t-255 74zM659 885q94 0 172 23t125 80t47 160q0 110 -49 170t-144 94v144q110 -5 197.5 -54t139 -138t51.5 -216q0 -149 -74 -238.5t-196.5 -129t-268.5 -39.5h-46q-145 0 -267.5 40t-196 129t-73.5 238q0 127 51 216t138.5 137.5t194.5 53.5v-144
q-92 -34 -141 -94t-49 -169q0 -102 47 -159t125 -80.5t171 -23.5h46z" />
    <glyph glyph-name="uni0224" unicode="&#x224;" horiz-adv-x="1278" 
d="M783 -418v149q17 -2 36.5 -3t31.5 -1q78 0 108.5 25.5t30.5 79.5v168h176v-175q0 -122 -71 -186t-210 -64q-30 0 -58 2t-44 5zM118 0v130l694 1008q45 65 94.5 130.5t99.5 130.5l20 -59q-90 -4 -180 -5.5t-180 -1.5h-547v157h1040v-132l-684 -992q-48 -70 -100 -138.5
t-104 -136.5l-21 59q89 4 178 5t178 1h560v-156h-1048z" />
    <glyph glyph-name="uni0225" unicode="&#x225;" horiz-adv-x="1096" 
d="M873 -226v50q0 73 -28 124.5t-115 51.5h-608v126l622 816v10h-605v154h818v-134l-608 -809v-9h384q139 0 215.5 -82.5t76.5 -207.5v-90h-152z" />
    <glyph glyph-name="uni0226" unicode="&#x226;" horiz-adv-x="1389" 
d="M47 0l544 1490h204l548 -1490h-186l-325 909q-30 83 -67.5 200.5t-91.5 297.5h38q-53 -181 -91.5 -300t-66.5 -198l-320 -909h-186zM316 423v155h757v-155h-757zM695 1683q-48 0 -82.5 33t-34.5 80t34.5 79.5t82.5 32.5t82.5 -32.5t34.5 -79.5t-34.5 -80t-82.5 -33z" />
    <glyph glyph-name="uni0227" unicode="&#x227;" horiz-adv-x="1126" 
d="M465 -24q-105 0 -190 39t-135.5 114.5t-50.5 184.5q0 92 36 150.5t97.5 93t138.5 52.5t160 28q98 13 161 20.5t93 25t30 58.5v11q0 69 -27.5 118t-81 76t-132.5 27t-137 -25t-94 -64.5t-51 -82.5l-163 43q35 99 103 159.5t156.5 88.5t181.5 28q65 0 137 -16.5t134.5 -58
t101.5 -116t39 -190.5v-740h-165v158h-10q-20 -42 -62 -84t-109 -70t-161 -28zM492 124q101 0 171 40.5t106 105.5t36 139v152q-11 -13 -45.5 -23t-79.5 -18t-89.5 -14t-75.5 -10q-72 -8 -130.5 -29t-92.5 -59.5t-34 -102.5q0 -58 30 -98.5t83 -61.5t121 -21zM549 1299
q-48 0 -82.5 33t-34.5 80t34.5 79.5t82.5 32.5t82.5 -32.5t34.5 -79.5t-34.5 -80t-82.5 -33z" />
    <glyph glyph-name="uni0228" unicode="&#x228;" horiz-adv-x="1219" 
d="M178 0v1490h911v-156h-735v-502h684v-157h-684v-519h743v-156h-919zM530 -418v100h116q55 0 78.5 16t23.5 54q0 37 -23.5 53t-78.5 16h-80l31 225h90v-46l-2 -87q95 -4 142 -44t47 -118q0 -87 -56.5 -128t-170.5 -41h-117z" />
    <glyph glyph-name="uni0229" unicode="&#x229;" horiz-adv-x="1173" 
d="M614 -24q-160 0 -275 72t-177.5 200.5t-62.5 297.5t62 299t173.5 203.5t260.5 73.5q93 0 179.5 -32.5t155 -100t108.5 -173t40 -251.5v-66h-871v142h780l-77 -52q0 112 -36.5 199t-107 136t-171.5 49t-174.5 -50t-113 -132.5t-39.5 -181.5v-88q0 -123 42.5 -212
t120.5 -136t183 -47q71 0 127 21t95.5 61t59.5 96l162 -37q-25 -85 -86.5 -150.5t-152.5 -103t-205 -37.5zM485 -418v100h116q55 0 78.5 16t23.5 54q0 37 -23.5 53t-78.5 16h-80l31 225h90v-46l-2 -87q95 -4 142 -44t47 -118q0 -87 -56.5 -128t-170.5 -41h-117z" />
    <glyph glyph-name="uni022A" unicode="&#x22a;" horiz-adv-x="1555" 
d="M778 -21q-191 0 -340.5 94t-235 266t-85.5 405q0 234 85.5 406t235 266.5t340.5 94.5q192 0 341 -94.5t234 -266.5t85 -406q0 -233 -85 -405t-234 -266t-341 -94zM778 143q137 0 247 70t175 204.5t65 326.5q0 194 -65 328.5t-175 204.5t-247 70t-247.5 -70t-175.5 -204.5
t-65 -328.5q0 -192 65 -326.5t175.5 -204.5t247.5 -70zM990 1651q-46 0 -79 33t-33 79q0 47 33 79.5t79 32.5t79 -32.5t33 -79.5q0 -46 -33 -79t-79 -33zM572 1651q-47 0 -80 33t-33 79q0 47 33 79.5t80 32.5q46 0 78.5 -32.5t32.5 -79.5q0 -46 -32.5 -79t-78.5 -33z
M1052 2140v-121h-546v121h546z" />
    <glyph glyph-name="uni022B" unicode="&#x22b;" horiz-adv-x="1204" 
d="M601 -24q-149 0 -262 72t-176.5 201t-63.5 298q0 172 63.5 301.5t176.5 201.5t262 72q150 0 263.5 -72t176.5 -201.5t63 -301.5q0 -169 -63 -298t-176.5 -201t-263.5 -72zM601 126q111 0 185.5 57.5t111.5 153t37 210.5q0 116 -37 212.5t-111.5 154.5t-185.5 58
q-110 0 -184 -58t-111 -154t-37 -213q0 -115 37 -210.5t111 -153t184 -57.5zM813 1267q-46 0 -79 33t-33 79q0 47 33 79.5t79 32.5t79 -32.5t33 -79.5q0 -46 -33 -79t-79 -33zM395 1267q-47 0 -80 33t-33 79q0 47 33 79.5t80 32.5q46 0 78.5 -32.5t32.5 -79.5
q0 -46 -32.5 -79t-78.5 -33zM875 1756v-121h-546v121h546z" />
    <glyph glyph-name="uni022C" unicode="&#x22c;" horiz-adv-x="1555" 
d="M778 -21q-191 0 -340.5 94t-235 266t-85.5 405q0 234 85.5 406t235 266.5t340.5 94.5q192 0 341 -94.5t234 -266.5t85 -406q0 -233 -85 -405t-234 -266t-341 -94zM778 143q137 0 247 70t175 204.5t65 326.5q0 194 -65 328.5t-175 204.5t-247 70t-247.5 -70t-175.5 -204.5
t-65 -328.5q0 -192 65 -326.5t175.5 -204.5t247.5 -70zM913 1657q-37 0 -72 13t-66 30t-57.5 30t-47.5 13q-28 0 -41.5 -25.5t-16.5 -56.5h-118q3 88 42.5 145.5t117.5 57.5q40 0 73 -13t61.5 -30.5t55 -30.5t51.5 -13q27 0 41 19.5t20 63.5h116q-4 -92 -45.5 -147.5
t-113.5 -55.5zM1053 2140v-121h-547v121h547z" />
    <glyph glyph-name="uni022D" unicode="&#x22d;" horiz-adv-x="1204" 
d="M601 -24q-149 0 -262 72t-176.5 201t-63.5 298q0 172 63.5 301.5t176.5 201.5t262 72q150 0 263.5 -72t176.5 -201.5t63 -301.5q0 -169 -63 -298t-176.5 -201t-263.5 -72zM601 126q111 0 185.5 57.5t111.5 153t37 210.5q0 116 -37 212.5t-111.5 154.5t-185.5 58
q-110 0 -184 -58t-111 -154t-37 -213q0 -115 37 -210.5t111 -153t184 -57.5zM735 1273q-37 0 -72 13t-66 30t-57.5 30t-47.5 13q-28 0 -41.5 -25.5t-16.5 -56.5h-118q3 88 42.5 145.5t117.5 57.5q40 0 73 -13t61.5 -30.5t55 -30.5t51.5 -13q27 0 41 19.5t20 63.5h116
q-4 -92 -45.5 -147.5t-113.5 -55.5zM875 1756v-121h-547v121h547z" />
    <glyph glyph-name="uni022E" unicode="&#x22e;" horiz-adv-x="1555" 
d="M778 -21q-191 0 -340.5 94t-235 266t-85.5 405q0 234 85.5 406t235 266.5t340.5 94.5q192 0 341 -94.5t234 -266.5t85 -406q0 -233 -85 -405t-234 -266t-341 -94zM778 143q137 0 247 70t175 204.5t65 326.5q0 194 -65 328.5t-175 204.5t-247 70t-247.5 -70t-175.5 -204.5
t-65 -328.5q0 -192 65 -326.5t175.5 -204.5t247.5 -70zM779 1683q-48 0 -82.5 33t-34.5 80t34.5 79.5t82.5 32.5t82.5 -32.5t34.5 -79.5t-34.5 -80t-82.5 -33z" />
    <glyph glyph-name="uni022F" unicode="&#x22f;" horiz-adv-x="1204" 
d="M601 -24q-149 0 -262 72t-176.5 201t-63.5 298q0 172 63.5 301.5t176.5 201.5t262 72q150 0 263.5 -72t176.5 -201.5t63 -301.5q0 -169 -63 -298t-176.5 -201t-263.5 -72zM601 126q111 0 185.5 57.5t111.5 153t37 210.5q0 116 -37 212.5t-111.5 154.5t-185.5 58
q-110 0 -184 -58t-111 -154t-37 -213q0 -115 37 -210.5t111 -153t184 -57.5zM602 1299q-48 0 -82.5 33t-34.5 80t34.5 79.5t82.5 32.5t82.5 -32.5t34.5 -79.5t-34.5 -80t-82.5 -33z" />
    <glyph glyph-name="uni0230" unicode="&#x230;" horiz-adv-x="1555" 
d="M778 -21q-191 0 -340.5 94t-235 266t-85.5 405q0 234 85.5 406t235 266.5t340.5 94.5q192 0 341 -94.5t234 -266.5t85 -406q0 -233 -85 -405t-234 -266t-341 -94zM778 143q137 0 247 70t175 204.5t65 326.5q0 194 -65 328.5t-175 204.5t-247 70t-247.5 -70t-175.5 -204.5
t-65 -328.5q0 -192 65 -326.5t175.5 -204.5t247.5 -70zM781 1651q-48 0 -82.5 33t-34.5 79q0 48 34.5 80.5t82.5 32.5t82.5 -32.5t34.5 -80.5q0 -46 -34.5 -79t-82.5 -33zM1052 2140v-121h-546v121h546z" />
    <glyph glyph-name="uni0231" unicode="&#x231;" horiz-adv-x="1204" 
d="M601 -24q-149 0 -262 72t-176.5 201t-63.5 298q0 172 63.5 301.5t176.5 201.5t262 72q150 0 263.5 -72t176.5 -201.5t63 -301.5q0 -169 -63 -298t-176.5 -201t-263.5 -72zM601 126q111 0 185.5 57.5t111.5 153t37 210.5q0 116 -37 212.5t-111.5 154.5t-185.5 58
q-110 0 -184 -58t-111 -154t-37 -213q0 -115 37 -210.5t111 -153t184 -57.5zM604 1267q-48 0 -82.5 33t-34.5 79q0 48 34.5 80.5t82.5 32.5t82.5 -32.5t34.5 -80.5q0 -46 -34.5 -79t-82.5 -33zM875 1756v-121h-546v121h546z" />
    <glyph glyph-name="uni0232" unicode="&#x232;" horiz-adv-x="1369" 
d="M596 0v619l-549 871h204l301 -483q49 -78 88.5 -150t81.5 -173h-72q42 102 82 175t87 148l300 483h203l-549 -871v-619h-177zM957 1857v-134h-546v134h546z" />
    <glyph glyph-name="uni0233" unicode="&#x233;" horiz-adv-x="1127" 
d="M138 -407l35 145l35 -4q52 -12 94 -4t75.5 45t59.5 110l40 111l-425 1110h183l241 -662q36 -97 62.5 -192.5t54.5 -186.5h-58q28 91 55 187t62 192l242 662h181l-492 -1282q-32 -84 -78 -139.5t-106 -82t-135 -26.5q-43 0 -75.5 5.5t-50.5 11.5zM837 1473v-134h-546v134
h546z" />
    <glyph glyph-name="uni0234" unicode="&#x234;" horiz-adv-x="796" 
d="M464 -417q-110 0 -178.5 45.5t-99.5 117.5t-31 148v333h167v-350q0 -74 42.5 -113.5t99.5 -39.5q55 0 88.5 34t33.5 86q0 46 -27.5 78.5t-77.5 39.5q-36 5 -68.5 -4t-62 -29t-58.5 -53l-259 -261l-105 111l218 223q73 78 159.5 117.5t169.5 39.5q122 0 202.5 -72
t80.5 -190q0 -117 -80 -189t-214 -72zM322 1490v-1490h-167v1490h167z" />
    <glyph glyph-name="uni0235" unicode="&#x235;" horiz-adv-x="1511" 
d="M1179 -417q-110 0 -178 45.5t-99.5 117.5t-31.5 148v333h167v-350q0 -74 42.5 -113.5t99.5 -39.5q55 0 88.5 34t33.5 86q0 46 -27.5 78.5t-77.5 39.5q-36 5 -68.5 -4t-62 -29t-58.5 -53l-259 -261l-105 111l218 223q73 78 160 117.5t169 39.5q122 0 203 -72t81 -190
q0 -117 -80 -189t-215 -72zM322 666v-666h-167v1106h161v-266h-28q50 151 145.5 216t221.5 65q112 0 198.5 -46.5t135 -139.5t48.5 -232v-703h-168v689q0 133 -69.5 207t-189.5 74q-82 0 -147.5 -35t-103 -103t-37.5 -166z" />
    <glyph glyph-name="uni0236" unicode="&#x236;" horiz-adv-x="822" 
d="M492 -19q-110 0 -178.5 45.5t-99.5 117.5t-31 148v333h167v-350q0 -74 42.5 -113.5t99.5 -39.5q55 0 88.5 34t33.5 86q0 46 -27.5 78.5t-77.5 39.5q-36 5 -68.5 -4t-62 -29t-58.5 -52l-259 -262l-105 111l218 223q73 78 159.5 117.5t169.5 39.5q122 0 202.5 -72
t80.5 -190q0 -117 -80 -189t-214 -72zM183 398v978h167v-978h-167zM18 962v144h565v-144h-565z" />
    <glyph glyph-name="uni0237" unicode="&#x237;" horiz-adv-x="477" 
d="M154 1106h168v-1205q1 -98 -35 -170t-106 -110.5t-172 -38.5h-41v153h36q76 0 113 44t37 127v1200z" />
    <glyph glyph-name="uni0238" unicode="&#x238;" horiz-adv-x="1830" 
d="M1736 563v-18q0 -165 -53 -293t-151 -200t-234 -72q-92 0 -164.5 34.5t-125.5 101.5t-86 163t-47 219v115q18 164 71 280t142.5 177.5t215.5 61.5q134 0 230.5 -70.5t149 -198t52.5 -300.5zM1541 545v18q1 116 -27 208t-90 146.5t-163 54.5q-126 0 -198 -83.5t-97 -206.5
v-253q32 -122 101 -205.5t198 -83.5q100 0 160.5 53.5t88.5 145t27 206.5zM819 210v1280h193v-1490h-177zM93 545v18q0 173 52.5 300.5t149.5 198t232 70.5q126 0 215 -61.5t141.5 -177.5t69.5 -280v-115q-13 -123 -46 -219t-86 -163t-126 -101.5t-165 -34.5q-135 0 -233 72
t-151 200t-53 293zM286 563v-18q1 -115 29 -206.5t89 -145t161 -53.5q128 0 197 83.5t100 205.5v253q-23 122 -95 206t-198 84q-101 0 -163 -54.5t-90.5 -146.5t-29.5 -208z" />
    <glyph glyph-name="uni0239" unicode="&#x239;" horiz-adv-x="1830" 
d="M819 -416v1326l16 208h159l18 -207v-1327h-193zM93 545v18q0 173 52.5 300.5t149.5 198t232 70.5q126 0 215 -61.5t141.5 -177.5t69.5 -280v-115q-13 -123 -46 -219t-86 -163t-126 -101.5t-165 -34.5q-135 0 -233 72t-151 200t-53 293zM286 563v-18q1 -115 29 -206.5
t89 -145t161 -53.5q128 0 197 83.5t100 205.5v253q-23 122 -95 206t-198 84q-101 0 -163 -54.5t-90.5 -146.5t-29.5 -208zM1736 563v-18q0 -165 -53 -293t-151 -200t-234 -72q-92 0 -164.5 34.5t-125.5 101.5t-86 163t-47 219v115q18 164 71 280t142.5 177.5t215.5 61.5
q134 0 230.5 -70.5t149 -198t52.5 -300.5zM1541 545v18q1 116 -27 208t-90 146.5t-163 54.5q-126 0 -198 -83.5t-97 -206.5v-253q32 -122 101 -205.5t198 -83.5q100 0 160.5 53.5t88.5 145t27 206.5z" />
    <glyph glyph-name="uni023A" unicode="&#x23a;" horiz-adv-x="1389" 
d="M1124 1678l-664 -1868h-156l664 1868h156zM47 0l544 1490h204l548 -1490h-186l-325 909q-30 83 -67.5 200.5t-91.5 297.5h38q-53 -181 -91.5 -300t-66.5 -198l-320 -909h-186zM316 423v155h757v-155h-757z" />
    <glyph glyph-name="uni023B" unicode="&#x23b;" horiz-adv-x="1490" 
d="M334 -190l667 1868h156l-667 -1868h-156zM780 -21q-193 0 -343 94t-235 266t-85 405q0 234 85 406t235 266.5t343 94.5q115 0 216 -34.5t180.5 -99.5t132 -155.5t72.5 -202.5h-177q-17 78 -55.5 138.5t-95 103t-126 64.5t-147.5 22q-140 0 -251 -71t-175 -205.5
t-64 -326.5q0 -191 64.5 -325.5t175.5 -205t250 -70.5q78 0 147.5 22.5t126 64.5t95 103t55.5 138h177q-19 -112 -72 -202t-132.5 -155t-180 -100t-216.5 -35z" />
    <glyph glyph-name="uni023C" unicode="&#x23c;" horiz-adv-x="1145" 
d="M165 -418l722 1911h130l-721 -1911h-131zM601 -23q-149 0 -262 71.5t-176.5 200.5t-63.5 298q0 172 63.5 301.5t176.5 201.5t262 72q84 0 156.5 -23t130.5 -65t99 -100t60 -128l-162 -37q-11 41 -35.5 78t-60 65t-83 44t-105.5 16q-110 0 -184 -58t-111 -154t-37 -213
q0 -115 37 -210.5t111 -152.5t184 -57q59 0 107 16t84 44.5t60.5 67t36.5 81.5l161 -37q-18 -71 -59 -130t-100 -102t-132.5 -66.5t-157.5 -23.5z" />
    <glyph glyph-name="uni023D" unicode="&#x23d;" horiz-adv-x="1177" 
d="M211 0v1490h176v-1334h700v-156h-876zM19 672v146h804v-146h-804z" />
    <glyph glyph-name="uni023E" unicode="&#x23e;" horiz-adv-x="1303" 
d="M205 -207l759 1904h132l-759 -1904h-132zM91 1334v156h1121v-156h-471v-1334h-177v1334h-473z" />
    <glyph glyph-name="uni023F" unicode="&#x23f;" horiz-adv-x="1054" 
d="M245 256q96 -170 157.5 -275.5t101.5 -163t69.5 -78.5t58.5 -21q39 0 75.5 23t61.5 46l63 -110q-34 -33 -88.5 -64t-111.5 -31q-60 0 -108.5 26.5t-90.5 76.5t-83 120l-216 376zM527 -24q-114 0 -203 34.5t-146 102t-74 166.5l160 31q21 -95 88 -141t172 -46
q119 0 189 51t70 124q0 61 -42.5 100.5t-125.5 58.5l-182 43q-149 36 -223 110.5t-74 191.5q0 94 52.5 166t143.5 113t207 41q112 0 193 -35.5t131.5 -98.5t70.5 -148l-153 -32q-20 69 -76.5 120t-164.5 51q-103 0 -169 -48t-66 -121q0 -64 45.5 -103t141.5 -61l170 -41
q149 -35 221 -109.5t72 -187.5q0 -98 -54.5 -172.5t-151 -117t-222.5 -42.5z" />
    <glyph glyph-name="uni0240" unicode="&#x240;" horiz-adv-x="1096" 
d="M122 0v126l622 816v10h-605v154h818v-134l-608 -809v-163h-227zM999 -418q-53 0 -101 24.5t-98 77.5t-110 140q-52 75 -90.5 113t-84 50.5t-122.5 12.5h-118v154h121q102 0 171 -22t125 -76t121 -150q52 -74 84 -113.5t56 -54t52 -14.5t50 5.5t49 21.5l62 -124
q-40 -21 -84 -33t-83 -12z" />
    <glyph glyph-name="uni0241" unicode="&#x241;" horiz-adv-x="1091" 
d="M474 452h44q114 0 177.5 52t89 136t25.5 179v155q0 93 -25.5 177t-88 137.5t-174.5 53.5q-114 0 -180.5 -66.5t-72.5 -172.5h-188q5 117 60.5 209t153 145t226.5 53q164 0 272 -73.5t162 -195.5t54 -267v-155q0 -145 -54 -266.5t-163 -195t-273 -73.5h-45v168zM628 452
v-452h-202v452h202z" />
    <glyph glyph-name="uni0242" unicode="&#x242;" horiz-adv-x="1089" 
d="M134 702q0 138 53.5 234t148 146t217.5 50q187 0 294.5 -107.5t107.5 -312.5q0 -113 -39.5 -200.5t-127 -137.5t-230.5 -50h-52v121h43q117 0 166 71t49 187q0 119 -50 196.5t-163 77.5q-107 0 -165 -73.5t-59 -201.5h-193zM462 445h193v-445h-193v445z" />
    <glyph glyph-name="uni0243" unicode="&#x243;" horiz-adv-x="1336" 
d="M183 0v1490h524q152 0 254 -52t153 -141t51 -201q0 -93 -33 -156.5t-87.5 -102.5t-122.5 -59v-11q73 -6 142 -50t114 -123.5t45 -193.5q0 -115 -52.5 -205.5t-162.5 -142.5t-283 -52h-542zM359 156h362q173 0 252 69t79 175q0 79 -39.5 142.5t-111 101t-170.5 37.5h-372
v-525zM359 831h346q84 0 149.5 32.5t103 91t37.5 136.5q0 105 -72 174t-218 69h-346v-503zM19 355v128h623v-128h-623z" />
    <glyph glyph-name="uni0244" unicode="&#x244;" horiz-adv-x="1501" 
d="M1514 865v-114h-1526v114h1526zM749 -24q-174 0 -304.5 69t-202.5 189t-72 273v983h177v-970q0 -110 48.5 -195.5t139 -135t214.5 -49.5t214 49.5t138.5 135t48.5 195.5v970h176v-983q0 -153 -72 -273t-201.5 -189t-303.5 -69z" />
    <glyph glyph-name="uni0245" unicode="&#x245;" horiz-adv-x="1461" 
d="M1141 0l-426 1271l-49 219h155l538 -1490h-218zM745 1271l-421 -1271h-220l537 1490h154z" />
    <glyph glyph-name="uni0246" unicode="&#x246;" horiz-adv-x="1219" 
d="M319 -190l540 1868h154l-538 -1868h-156zM178 0v1490h911v-156h-735v-502h684v-157h-684v-519h743v-156h-919z" />
    <glyph glyph-name="uni0247" unicode="&#x247;" horiz-adv-x="1176" 
d="M127 -418l773 1908h131l-771 -1908h-133zM616 -24q-159 0 -274.5 72t-177.5 200.5t-62 297.5t61.5 299t173.5 203.5t260 73.5q94 0 180.5 -32.5t155 -100t108 -173t39.5 -251.5v-66h-870v142h780l-77 -52q0 112 -37 199t-107 136t-172 49q-101 0 -174.5 -50t-113 -132.5
t-39.5 -181.5v-88q0 -123 43 -212t121 -136t183 -47q71 0 127 21t95 61t59 96l163 -37q-25 -85 -86.5 -150.5t-152.5 -103t-206 -37.5z" />
    <glyph glyph-name="uni0248" unicode="&#x248;" horiz-adv-x="1218" 
d="M539 -20q-195 0 -317 115.5t-122 327.5v79h176v-79q0 -139 72 -213t191 -74t191 74t72 213v1067h176v-1067q0 -212 -122 -327.5t-317 -115.5zM579 820v128h623v-128h-623z" />
    <glyph glyph-name="uni0249" unicode="&#x249;" horiz-adv-x="477" 
d="M154 1106h168v-1205q1 -98 -35 -170t-106 -110.5t-172 -38.5h-41v153h36q76 0 113 44t37 127v1200zM-81 582v132h638v-132h-638zM239 1299q-48 0 -82.5 33t-34.5 80t34.5 79.5t82.5 32.5t82.5 -32.5t34.5 -79.5t-34.5 -80t-82.5 -33z" />
    <glyph glyph-name="Q_rthook" unicode="&#x24a;" horiz-adv-x="1555" 
d="M1377 1490v-1490h-167v247h-10q-57 -128 -175.5 -199.5t-273.5 -71.5q-139 0 -255.5 57t-201 160t-131 244.5t-46.5 311.5q0 166 46 305.5t131 241.5t201.5 158.5t256.5 56.5q155 0 274 -70t174 -193h10v242h167zM756 143q157 0 257.5 78.5t149.5 215.5t49 310
q0 172 -51 308.5t-151.5 215.5t-251.5 79q-140 0 -244.5 -77.5t-163 -213.5t-58.5 -312q0 -184 59 -319.5t164 -210t241 -74.5zM1490 -425q-137 0 -208.5 64t-71.5 186v175h167v-175q0 -55 34 -80t113 -25q13 0 32 1t36 2v-141q-17 -3 -43.5 -5t-58.5 -2z" />
    <glyph glyph-name="qrthook" unicode="&#x24b;" horiz-adv-x="1231" 
d="M1189 -425q-137 0 -207.5 64t-70.5 186v373h165v-373q0 -55 34 -80t113 -25q13 0 32 1t35 2v-141q-17 -3 -43 -5t-58 -2zM566 -23q-137 0 -242.5 71t-165 199.5t-59.5 303.5q0 173 60 301.5t166 198.5t244 70q100 0 164.5 -32.5t104 -79.5t60.5 -87h12v184h166v-1106
h-165v180h-13q-22 -42 -62 -89.5t-105.5 -80.5t-164.5 -33zM593 127q103 0 174.5 54t109 150t37.5 221q0 126 -37 220t-109 146.5t-175 52.5q-104 0 -176.5 -54t-110 -148.5t-37.5 -216.5t37.5 -218t110 -151.5t176.5 -55.5z" />
    <glyph glyph-name="uni024C" unicode="&#x24c;" horiz-adv-x="1308" 
d="M289 587h-271v153h271v-153zM194 0v1490h513q166 0 277.5 -58t167.5 -161t56 -237q0 -133 -56.5 -234.5t-168.5 -158t-278 -56.5h-413v157h408q115 0 188 35.5t108.5 101.5t35.5 155q0 92 -35.5 159t-109 104t-189.5 37h-328v-1334h-176zM1054 0l-360 671h199l365 -671
h-204z" />
    <glyph glyph-name="uni024D" unicode="&#x24d;" horiz-adv-x="740" 
d="M155 0v1106h161v-172h10q31 85 108.5 136.5t178.5 51.5q20 0 44 -1.5t38 -2.5v-168q-8 2 -37 6t-63 4q-78 0 -140 -33t-97.5 -93t-35.5 -140v-694h-167zM-80 470v132h638v-132h-638z" />
    <glyph glyph-name="uni024E" unicode="&#x24e;" horiz-adv-x="1344" 
d="M1346 1183v-114h-1348v114h1348zM596 0v619l-549 871h204l301 -483q49 -78 88.5 -150t81.5 -173h-72q42 102 82 175t87 148l300 483h203l-549 -871v-619h-177z" />
    <glyph glyph-name="uni024F" unicode="&#x24f;" horiz-adv-x="1127" 
d="M1043 799v-127h-966v127h966zM138 -407l35 145l35 -4q52 -12 94 -4t75.5 45t59.5 110l40 111l-425 1110h183l241 -662q36 -97 62.5 -192.5t54.5 -186.5h-58q28 91 55 187t62 192l242 662h181l-492 -1282q-32 -84 -78 -139.5t-106 -82t-135 -26.5q-43 0 -75.5 5.5
t-50.5 11.5z" />
    <glyph glyph-name="aturn" unicode="&#x250;" horiz-adv-x="1126" 
d="M662 1130q104 0 189.5 -39t135.5 -114.5t50 -184.5q0 -92 -36 -150.5t-97.5 -93t-138.5 -52.5t-159 -29q-98 -11 -161 -19t-93.5 -25t-30.5 -59v-11q0 -68 27.5 -118t81.5 -76.5t132 -26.5q80 0 137.5 24.5t94 64.5t51.5 83l162 -43q-34 -98 -102.5 -159t-156.5 -89
t-182 -28q-65 0 -136.5 16.5t-134 58t-101.5 116t-39 190.5v740h164v-158h10q20 43 62.5 84.5t109.5 69.5t161 28zM634 981q-100 0 -170 -40t-106.5 -104.5t-36.5 -139.5v-152q12 12 46.5 22.5t79 18.5t89 14t76.5 9q72 10 130 30.5t92.5 59.5t34.5 101q0 59 -30.5 99
t-83 61t-121.5 21z" />
    <glyph glyph-name="ascript" unicode="&#x251;" horiz-adv-x="1231" 
d="M566 -23q-137 0 -242.5 71t-165 199.5t-59.5 303.5q0 173 60 301.5t166 198.5t244 70q100 0 164.5 -32.5t104 -79.5t60.5 -87h12v184h166v-1106h-165v180h-13q-22 -42 -62 -89.5t-105.5 -80.5t-164.5 -33zM593 127q103 0 174.5 54t109 150t37.5 221q0 126 -37 220
t-109 146.5t-175 52.5q-104 0 -176.5 -54t-110 -148.5t-37.5 -216.5t37.5 -218t110 -151.5t176.5 -55.5z" />
    <glyph glyph-name="ascriptturn" unicode="&#x252;" horiz-adv-x="1231" 
d="M665 -23q-99 0 -164.5 33t-105 80.5t-63.5 89.5h-12v-180h-165v1106h165v-184h12q23 40 61.5 87t103.5 79.5t165 32.5q138 0 244 -70t165.5 -198.5t59.5 -301.5q0 -175 -59.5 -303.5t-164.5 -199.5t-242 -71zM638 127q104 0 176 55.5t110 151.5t38 218t-37.5 216.5
t-109.5 148.5t-177 54q-104 0 -175.5 -52.5t-109 -146.5t-37.5 -220q0 -125 37.5 -221t110 -150t174.5 -54z" />
    <glyph glyph-name="uni0253" unicode="&#x253;" horiz-adv-x="1224" 
d="M657 -23q-99 0 -164.5 33.5t-105 80.5t-62.5 88h-16v-179h-154v1106h159v-183h11q23 39 61.5 85.5t103.5 79.5t165 33q140 0 245.5 -70.5t165 -199t59.5 -300.5q0 -174 -59 -303t-164.5 -200t-244.5 -71zM636 122q105 0 178 56t111 153t38 221q0 123 -37.5 218.5
t-110 150.5t-179.5 55q-105 0 -177.5 -53t-110.5 -148.5t-38 -222.5t38.5 -224t111.5 -151.5t176 -54.5zM155 887v364q0 122 73.5 185.5t211.5 63.5q31 0 57.5 -1.5t42.5 -4.5v-141q-15 2 -34.5 2.5t-31.5 0.5q-80 0 -116 -25t-36 -80v-364h-167z" />
    <glyph glyph-name="uni0254" unicode="&#x254;" horiz-adv-x="1090" 
d="M87 343h181q7 -59 41.5 -106t91.5 -74.5t127 -27.5q107 0 169 57t88.5 145.5t26.5 183.5v53q0 104 -28 196t-91 149.5t-170 57.5q-119 0 -181.5 -74t-73.5 -192h-181q6 125 60 220t149 148t226 53q160 0 267 -75.5t160.5 -201.5t53.5 -281v-53q0 -145 -55 -268.5
t-161 -198t-259 -74.5q-124 0 -221.5 50.5t-155.5 133.5t-64 179z" />
    <glyph glyph-name="drthook" unicode="&#x256;" horiz-adv-x="1230" 
d="M1183 -425q-137 0 -207.5 64t-70.5 186v373h165v-373q0 -55 33.5 -80t113.5 -25q12 0 31.5 1t34.5 2v-141q-16 -3 -42.5 -5t-57.5 -2zM567 -23q-138 0 -244 71t-165 199.5t-59 303.5q0 173 59.5 301.5t165 198.5t243.5 70q101 0 165.5 -33t104 -79.5t61.5 -86.5h11v568
h167v-1490h-162v180h-16q-22 -42 -62 -89t-105 -80.5t-164 -33.5zM591 127q103 0 175 54t109.5 150t37.5 221q0 126 -37.5 220t-109 146.5t-175.5 52.5t-176 -54t-109 -149t-37 -216q0 -122 37.5 -218t109.5 -151.5t175 -55.5z" />
    </font>
</defs>
</svg>
